<?xml version="1.0" encoding="UTF-8"?>
<svg id="Layer_1" data-name="Layer 1" xmlns="http://www.w3.org/2000/svg" viewBox="0 0 35.55 25.63">
  <defs>
    <style>
      .cls-1, .cls-2, .cls-3 {
        stroke-width: 0px;
      }

      .cls-2 {
        fill: #fff;
      }

      .cls-3 {
        fill: #ffe7b2;
      }
    </style>
  </defs>
  <path class="cls-3" d="M13.63,15.76c.95-1.34,2.74-2.04,4.34-1.69s2.94,1.72,3.25,3.34c.23,1.21-.13,2.55-1.03,3.38-1.19,1.1-3.14,1.12-4.53.29s-3.25-3.26-2.03-5.32"/>
  <g>
    <path class="cls-1" d="M34.43,5.84c-.13-1.34-.56-2.57-1.37-3.66-.42-.56-.93-1.03-1.53-1.39-.45-.28-.92-.51-1.44-.6-.42-.07-.85-.19-1.27-.19-1.06,0-2.07.25-3,.78-.97.55-1.76,1.29-2.39,2.2-.56.79-.97,1.65-1.24,2.57-.2.67-.32,1.37-.36,2.07-.07,1.22.07,2.41.49,3.55.26.72.63,1.39,1.13,1.98.75.9,1.71,1.5,2.85,1.77.72.16,1.44.17,2.18.05,1.24-.22,2.3-.77,3.21-1.61,1.91-1.77,2.72-4.01,2.81-6.47-.02-.41-.04-.73-.07-1.05ZM27.83,1.48c-.79.92-1.34,1.97-1.68,3.13-.17.55-.34,1.11-.43,1.68-.19,1.24-.22,2.48.02,3.73.13.69.32,1.36.6,2,.27.63.62,1.22,1.09,1.73.05.05.06.13.09.2-.07.02-.15.05-.22.04-1.05-.11-1.84-.65-2.48-1.45-.62-.77-.95-1.66-1.19-2.61-.27-1.09-.21-2.16-.01-3.23.29-1.59.96-3.01,2.1-4.18.48-.49,1.04-.88,1.67-1.15.17-.07.35-.1.52-.15.01.02.02.04.04.07-.04.06-.07.13-.12.19ZM30.5,5.63c-.24.14-.51.25-.8.13-.23-.09-.31-.2-.33-.47.05-.11.07-.24.15-.31.17-.16.35-.32.55-.42.27-.14.53.02.62.31.14.43.05.61-.19.76Z"/>
    <path class="cls-2" d="M30.5,5.63c-.24.14-.51.25-.8.13-.23-.09-.31-.2-.33-.47.05-.11.07-.24.15-.31.17-.16.35-.32.55-.42.27-.14.53.02.62.31.14.43.05.61-.19.76Z"/>
    <path class="cls-2" d="M25.72,6.29c-.19,1.24-.22,2.48.02,3.73.13.69.32,1.36.6,2,.27.63.62,1.22,1.09,1.73.05.05.06.13.09.2-.07.02-.15.05-.22.04-1.05-.11-1.84-.65-2.48-1.45-.62-.77-.95-1.66-1.19-2.61-.27-1.09-.21-2.16-.01-3.23.29-1.59.96-3.01,2.1-4.18.48-.49,1.04-.88,1.67-1.15.17-.07.35-.1.52-.15.01.02.02.04.04.07-.04.06-.07.13-.12.19-.79.92-1.34,1.97-1.68,3.13-.17.55-.34,1.11-.43,1.68Z"/>
    <path class="cls-1" d="M12.07,4.47c-.28-.67-.64-1.29-1.13-1.84-.88-.99-1.98-1.59-3.28-1.76-.82-.11-1.66-.11-2.46.21-.41.16-.84.31-1.23.53-1.1.61-1.96,1.48-2.62,2.55C.67,5.26.24,6.44.08,7.73c-.1.86-.11,1.72,0,2.59.12.77.31,1.52.64,2.22.34.72.78,1.37,1.37,1.92.81.73,1.75,1.21,2.83,1.34.99.13,1.97.05,2.91-.35.87-.37,1.64-.87,2.3-1.54.87-.87,1.51-1.89,1.94-3.05.38-1.05.57-2.13.59-3.07-.02-1.26-.17-2.31-.6-3.32ZM5.89,2.43c-.58.69-1.01,1.46-1.32,2.29-.22.6-.44,1.2-.56,1.82-.28,1.32-.36,2.66-.14,4,.13.78.32,1.53.63,2.25.28.65.64,1.25,1.12,1.78.05.05.09.11.18.22-.19,0-.32.02-.45,0-.71-.1-1.32-.42-1.85-.91-.92-.85-1.44-1.92-1.68-3.14-.04-.22-.11-.44-.14-.66-.14-1.16-.01-2.3.32-3.41.41-1.4,1.09-2.65,2.21-3.63.46-.4.95-.73,1.54-.91.1-.03.21-.03.32-.05.01.03.02.05.03.08-.07.09-.14.18-.21.27ZM7.54,5.42c-.14.3-.38.52-.7.63-.37.12-.71-.18-.67-.59-.08-.56.66-.84,1.13-.71.26.07.37.4.24.67Z"/>
    <path class="cls-2" d="M7.54,5.42c-.14.3-.38.52-.7.63-.37.12-.71-.18-.67-.59-.08-.56.66-.84,1.13-.71.26.07.37.4.24.67Z"/>
    <path class="cls-2" d="M4.01,6.54c-.28,1.32-.36,2.66-.14,4,.13.78.32,1.53.63,2.25.28.65.64,1.25,1.12,1.78.05.05.09.11.18.22-.19,0-.32.02-.45,0-.71-.1-1.32-.42-1.85-.91-.92-.85-1.44-1.92-1.68-3.14-.04-.22-.11-.44-.14-.66-.14-1.16-.01-2.3.32-3.41.41-1.4,1.09-2.65,2.21-3.63.46-.4.95-.73,1.54-.91.1-.03.21-.03.32-.05.01.03.02.05.03.08-.07.09-.14.18-.21.27-.58.69-1.01,1.46-1.32,2.29-.22.6-.44,1.2-.56,1.82Z"/>
    <path class="cls-1" d="M16.23,25.63c-.44-.05-1.17-.13-1.9-.24-.57-.08-1.14-.19-1.71-.3-.94-.19-1.83-.51-2.64-1.05-.21-.14-.43-.28-.63-.43-.26-.2-.3-.59-.09-.79.14-.13.46-.14.65-.02.43.26.85.55,1.3.76.41.19.86.32,1.31.43.59.14,1.18.24,1.78.34.46.07.93.12,1.39.15.35.02.7,0,1.05,0,.66,0,1.3-.13,1.93-.32.7-.21,1.39-.44,2.07-.69.55-.2,1.08-.45,1.62-.67.36-.15.72-.29,1.08-.41.25-.09.5,0,.61.19.12.19.12.56-.05.7-.19.17-.4.32-.63.42-.89.36-1.79.71-2.7,1.04-.6.22-1.2.42-1.82.57-.77.19-1.55.31-2.65.32Z"/>
    <path class="cls-1" d="M19.48,18.02c-.03.28-.15.46-.36.53-.26.08-.54,0-.67-.24-.14-.26-.26-.54-.39-.8-.25-.5-.56-.94-1.06-1.22-.34-.2-.66-.1-.95.08-.54.32-.92.79-1.14,1.39-.2.55-.4,1.1-.58,1.65-.07.21-.09.44-.16.65-.04.13-.1.26-.18.36-.13.15-.33.17-.48.09-.18-.1-.3-.32-.27-.55.03-.19.06-.38.1-.57.21-.87.44-1.74.87-2.54.39-.74.97-1.31,1.76-1.6.65-.24,1.29-.15,1.86.28.69.52,1.15,1.2,1.48,1.98.07.17.12.35.18.52Z"/>
    <path class="cls-1" d="M34.98,15.58c.23-.01.42.1.51.29.09.2.11.42-.05.62-.09.12-.18.25-.29.37-.19.21-.52.27-.73.15-.27-.15-.37-.4-.28-.72.11-.39.49-.71.84-.71Z"/>
  </g>
</svg>