<svg width="50" height="50" viewBox="0 0 50 50" fill="none" xmlns="http://www.w3.org/2000/svg">
<path d="M36.1973 22.3069L41.8887 16.9514L41.9219 16.9182C43.0941 15.746 43.7527 14.1561 43.7527 12.4983C43.7527 10.8405 43.0941 9.25059 41.9219 8.07835C40.7497 6.90611 39.1598 6.24756 37.502 6.24756C35.8442 6.24756 34.2543 6.90611 33.082 8.07835C33.082 8.09007 33.0606 8.09983 33.0488 8.11155L27.6934 13.803L11.4824 7.90452C11.203 7.8029 10.9004 7.7831 10.6102 7.84745C10.3199 7.9118 10.054 8.05762 9.84376 8.2678L5.15626 12.9553C4.99292 13.1188 4.86787 13.3164 4.79013 13.5341C4.71239 13.7517 4.68389 13.9839 4.70668 14.2138C4.72947 14.4438 4.80298 14.6658 4.92193 14.864C5.04088 15.0621 5.20229 15.2314 5.39455 15.3596L17.8731 23.678L14.9785 26.5627H10.9375C10.5237 26.5629 10.1268 26.7273 9.834 27.0198L5.1465 31.7073C4.96369 31.8896 4.82892 32.1144 4.75426 32.3616C4.67959 32.6088 4.66734 32.8706 4.71861 33.1237C4.76989 33.3768 4.88308 33.6132 5.04807 33.8118C5.21306 34.0105 5.4247 34.1651 5.66408 34.2619L12.8555 37.1389L15.7266 44.3166L15.7383 44.3479C15.8376 44.5883 15.9954 44.8001 16.1973 44.9641C16.3992 45.1281 16.6389 45.2391 16.8946 45.2871C17.1503 45.335 17.4139 45.3183 17.6615 45.2385C17.9091 45.1588 18.1329 45.0185 18.3125 44.8303L22.9746 40.1662C23.1205 40.0217 23.2365 39.8499 23.3159 39.6606C23.3953 39.4712 23.4367 39.2681 23.4375 39.0627V35.0217L26.3203 32.1389L34.6387 44.6174C34.7669 44.8097 34.9362 44.9711 35.1343 45.09C35.3325 45.209 35.5545 45.2825 35.7845 45.3053C36.0144 45.3281 36.2466 45.2996 36.4642 45.2218C36.6818 45.1441 36.8795 45.019 37.043 44.8557L41.7305 40.1682C41.9407 39.9579 42.0865 39.692 42.1508 39.4018C42.2152 39.1115 42.1954 38.8089 42.0938 38.5295L36.1973 22.3069ZM36.1836 41.2971L27.8652 28.8205C27.7377 28.6268 27.5687 28.4639 27.3704 28.3437C27.1721 28.2234 26.9495 28.1488 26.7188 28.1252C26.666 28.1252 26.6152 28.1252 26.5645 28.1252C26.3591 28.1253 26.1557 28.1659 25.966 28.2447C25.7764 28.3234 25.6041 28.4388 25.459 28.5842L20.7715 33.2717C20.4783 33.5642 20.3132 33.9611 20.3125 34.3752V38.4162L17.7598 40.969L15.5137 35.3518C15.4351 35.1568 15.318 34.9796 15.1693 34.831C15.0206 34.6823 14.8435 34.5651 14.6485 34.4866L9.03517 32.2405L11.586 29.6877H15.625C15.8303 29.6879 16.0335 29.6476 16.2232 29.5692C16.4129 29.4908 16.5853 29.3757 16.7305 29.2307L21.418 24.5432C21.5817 24.3797 21.707 24.1819 21.785 23.9641C21.8629 23.7463 21.8916 23.5139 21.8688 23.2836C21.846 23.0534 21.7723 22.8311 21.6532 22.6328C21.534 22.4345 21.3723 22.2651 21.1797 22.1369L8.70314 13.8166L11.3399 11.1819L27.5938 17.092C27.8801 17.1973 28.1911 17.2163 28.4882 17.1469C28.7853 17.0775 29.0555 16.9226 29.2656 16.7014L35.3086 10.2737C35.8976 9.70188 36.688 9.38482 37.5088 9.391C38.3297 9.39718 39.1152 9.7261 39.6955 10.3067C40.2758 10.8873 40.6044 11.6729 40.6102 12.4938C40.616 13.3146 40.2986 14.1048 39.7266 14.6936L33.3067 20.7346C33.0854 20.9447 32.9305 21.215 32.8611 21.5121C32.7917 21.8092 32.8108 22.1201 32.916 22.4065L38.8262 38.6604L36.1836 41.2971Z" fill="white"/>
</svg>
