<svg width="48" height="48" viewBox="0 0 48 48" fill="none" xmlns="http://www.w3.org/2000/svg">
<path d="M41.5612 25.0611L28.0613 38.5611C27.7798 38.8426 27.398 39.0007 27 39.0007C26.602 39.0007 26.2202 38.8426 25.9387 38.5611C25.6573 38.2796 25.4992 37.8979 25.4992 37.4999C25.4992 37.1018 25.6573 36.7201 25.9387 36.4386L36.8794 25.4999H7.5C7.10218 25.4999 6.72064 25.3418 6.43934 25.0605C6.15804 24.7792 6 24.3977 6 23.9999C6 23.602 6.15804 23.2205 6.43934 22.9392C6.72064 22.6579 7.10218 22.4999 7.5 22.4999H36.8794L25.9387 11.5611C25.6573 11.2796 25.4992 10.8979 25.4992 10.4999C25.4992 10.1018 25.6573 9.72007 25.9387 9.43861C26.2202 9.15715 26.602 8.99902 27 8.99902C27.398 8.99902 27.7798 9.15715 28.0613 9.43861L41.5612 22.9386C41.7007 23.0779 41.8114 23.2434 41.8868 23.4254C41.9623 23.6075 42.0012 23.8027 42.0012 23.9999C42.0012 24.197 41.9623 24.3922 41.8868 24.5743C41.8114 24.7564 41.7007 24.9218 41.5612 25.0611Z" fill="white"/>
</svg>
