<svg width="48" height="49" viewBox="0 0 48 49" fill="none" xmlns="http://www.w3.org/2000/svg">
<g id="ArrowRight">
<path id="Vector" d="M41.5612 25.3443L28.0613 38.8443C27.7798 39.1258 27.398 39.2839 27 39.2839C26.602 39.2839 26.2202 39.1258 25.9387 38.8443C25.6573 38.5629 25.4992 38.1811 25.4992 37.7831C25.4992 37.385 25.6573 37.0033 25.9387 36.7218L36.8794 25.7831H7.5C7.10218 25.7831 6.72064 25.625 6.43934 25.3437C6.15804 25.0624 6 24.6809 6 24.2831C6 23.8852 6.15804 23.5037 6.43934 23.2224C6.72064 22.9411 7.10218 22.7831 7.5 22.7831H36.8794L25.9387 11.8443C25.6573 11.5628 25.4992 11.1811 25.4992 10.7831C25.4992 10.385 25.6573 10.0033 25.9387 9.72181C26.2202 9.44035 26.602 9.28223 27 9.28223C27.398 9.28223 27.7798 9.44035 28.0613 9.72181L41.5612 23.2218C41.7007 23.3611 41.8114 23.5266 41.8868 23.7087C41.9623 23.8907 42.0012 24.0859 42.0012 24.2831C42.0012 24.4802 41.9623 24.6754 41.8868 24.8575C41.8114 25.0396 41.7007 25.205 41.5612 25.3443Z" fill="white"/>
</g>
</svg>
