<svg width="50" height="50" viewBox="0 0 50 50" fill="none" xmlns="http://www.w3.org/2000/svg">
<path d="M25 4.6875C20.9826 4.6875 17.0554 5.87881 13.715 8.11077C10.3746 10.3427 7.77111 13.5151 6.23371 17.2267C4.6963 20.9384 4.29405 25.0225 5.07781 28.9628C5.86157 32.903 7.79615 36.5224 10.6369 39.3631C13.4777 42.2039 17.097 44.1384 21.0372 44.9222C24.9775 45.706 29.0616 45.3037 32.7733 43.7663C36.4849 42.2289 39.6573 39.6254 41.8892 36.285C44.1212 32.9446 45.3125 29.0174 45.3125 25C45.3068 19.6145 43.1649 14.4513 39.3568 10.6432C35.5487 6.83507 30.3855 4.69319 25 4.6875ZM25 42.1875C21.6006 42.1875 18.2776 41.1795 15.4511 39.2909C12.6247 37.4023 10.4217 34.718 9.12083 31.5774C7.81995 28.4368 7.47958 24.9809 8.14276 21.6469C8.80595 18.3128 10.4429 15.2503 12.8466 12.8466C15.2503 10.4429 18.3128 8.80594 21.6469 8.14275C24.9809 7.47957 28.4368 7.81994 31.5774 9.12082C34.718 10.4217 37.4023 12.6247 39.2909 15.4511C41.1795 18.2776 42.1875 21.6006 42.1875 25C42.1823 29.5568 40.3699 33.9255 37.1477 37.1477C33.9255 40.3699 29.5568 42.1823 25 42.1875ZM33.6758 14.2266L21.1758 20.4766C20.8736 20.6284 20.6284 20.8736 20.4766 21.1758L14.2266 33.6758C14.1073 33.9141 14.051 34.1789 14.063 34.4451C14.0749 34.7113 14.1548 34.9701 14.2949 35.1967C14.4351 35.4234 14.6308 35.6104 14.8636 35.7401C15.0964 35.8697 15.3585 35.9377 15.625 35.9375C15.8676 35.9371 16.1068 35.881 16.3242 35.7734L28.8242 29.5234C29.1264 29.3716 29.3716 29.1264 29.5234 28.8242L35.7734 16.3242C35.9209 16.0307 35.9721 15.6982 35.9198 15.374C35.8675 15.0497 35.7144 14.7502 35.4821 14.5179C35.2499 14.2856 34.9503 14.1325 34.6261 14.0802C34.3018 14.0279 33.9693 14.0791 33.6758 14.2266ZM26.9531 26.9531L19.1191 30.8809L23.0469 23.0469L30.8887 19.127L26.9531 26.9531Z" fill="white"/>
</svg>
