<svg width="50" height="50" viewBox="0 0 50 50" fill="none" xmlns="http://www.w3.org/2000/svg">
<path d="M20.3132 37.5C20.3132 37.9144 20.1486 38.3118 19.8556 38.6049C19.5626 38.8979 19.1651 39.0625 18.7507 39.0625H15.6257C15.2113 39.0625 14.8139 38.8979 14.5209 38.6049C14.2279 38.3118 14.0632 37.9144 14.0632 37.5C14.0632 37.0856 14.2279 36.6882 14.5209 36.3951C14.8139 36.1021 15.2113 35.9375 15.6257 35.9375H18.7507C19.1651 35.9375 19.5626 36.1021 19.8556 36.3951C20.1486 36.6882 20.3132 37.0856 20.3132 37.5ZM34.3757 35.9375H31.2507C30.8363 35.9375 30.4389 36.1021 30.1459 36.3951C29.8529 36.6882 29.6882 37.0856 29.6882 37.5C29.6882 37.9144 29.8529 38.3118 30.1459 38.6049C30.4389 38.8979 30.8363 39.0625 31.2507 39.0625H34.3757C34.7901 39.0625 35.1876 38.8979 35.4806 38.6049C35.7736 38.3118 35.9382 37.9144 35.9382 37.5C35.9382 37.0856 35.7736 36.6882 35.4806 36.3951C35.1876 36.1021 34.7901 35.9375 34.3757 35.9375ZM19.532 26.5625C19.9955 26.5625 20.4487 26.425 20.8341 26.1675C21.2195 25.91 21.5199 25.5439 21.6973 25.1157C21.8747 24.6874 21.9211 24.2162 21.8307 23.7615C21.7403 23.3069 21.517 22.8892 21.1893 22.5615C20.8615 22.2337 20.4439 22.0105 19.9892 21.92C19.5346 21.8296 19.0633 21.876 18.6351 22.0534C18.2068 22.2308 17.8408 22.5312 17.5832 22.9166C17.3257 23.3021 17.1882 23.7552 17.1882 24.2188C17.1882 24.8404 17.4352 25.4365 17.8747 25.876C18.3142 26.3156 18.9104 26.5625 19.532 26.5625ZM30.4695 26.5625C30.933 26.5625 31.3862 26.425 31.7716 26.1675C32.157 25.91 32.4574 25.5439 32.6348 25.1157C32.8122 24.6874 32.8586 24.2162 32.7682 23.7615C32.6778 23.3069 32.4545 22.8892 32.1268 22.5615C31.799 22.2337 31.3814 22.0105 30.9267 21.92C30.4721 21.8296 30.0008 21.876 29.5726 22.0534C29.1443 22.2308 28.7783 22.5312 28.5207 22.9166C28.2632 23.3021 28.1257 23.7552 28.1257 24.2188C28.1257 24.8404 28.3727 25.4365 28.8122 25.876C29.2517 26.3156 29.8479 26.5625 30.4695 26.5625ZM47.7332 23.8516C47.4401 24.2104 47.071 24.4996 46.6525 24.6982C46.234 24.8968 45.7765 24.9999 45.3132 25H39.0632V31.25C40.375 32.2338 41.344 33.6054 41.8329 35.1706C42.3218 36.7357 42.3058 38.415 41.7873 39.9705C41.2688 41.5261 40.274 42.8791 38.9438 43.8378C37.6136 44.7966 36.0154 45.3125 34.3757 45.3125H15.6257C13.986 45.3125 12.3879 44.7966 11.0577 43.8378C9.72749 42.8791 8.73267 41.5261 8.21415 39.9705C7.69563 38.415 7.67969 36.7357 8.1686 35.1706C8.65751 33.6054 9.62647 32.2338 10.9382 31.25V25H4.68824C4.22863 24.9992 3.77485 24.8971 3.35924 24.7009C2.94362 24.5047 2.5764 24.2192 2.28375 23.8648C1.9911 23.5104 1.78022 23.0959 1.66615 22.6506C1.55207 22.2054 1.53761 21.7405 1.62378 21.2891C2.12479 18.8126 3.46583 16.5852 5.42007 14.9836C7.3743 13.3821 9.82175 12.5047 12.3484 12.5H12.6687C11.626 11.4836 10.7974 10.2687 10.2319 8.92689C9.66629 7.5851 9.37519 6.14362 9.37574 4.6875C9.37574 4.2731 9.54036 3.87567 9.83338 3.58265C10.1264 3.28962 10.5238 3.125 10.9382 3.125C11.3526 3.125 11.7501 3.28962 12.0431 3.58265C12.3361 3.87567 12.5007 4.2731 12.5007 4.6875C12.5007 6.7595 13.3238 8.74664 14.789 10.2118C16.2541 11.6769 18.2412 12.5 20.3132 12.5H29.6882C30.7142 12.5 31.7301 12.2979 32.678 11.9053C33.6258 11.5127 34.487 10.9372 35.2125 10.2118C35.938 9.48631 36.5134 8.62507 36.906 7.67721C37.2987 6.72936 37.5007 5.71345 37.5007 4.6875C37.5007 4.2731 37.6654 3.87567 37.9584 3.58265C38.2514 3.28962 38.6488 3.125 39.0632 3.125C39.4776 3.125 39.8751 3.28962 40.1681 3.58265C40.4611 3.87567 40.6257 4.2731 40.6257 4.6875C40.6263 6.14362 40.3352 7.5851 39.7696 8.92689C39.2041 10.2687 38.3755 11.4836 37.3328 12.5H37.6531C40.1797 12.5047 42.6272 13.3821 44.5814 14.9836C46.5356 16.5852 47.8767 18.8126 48.3777 21.2891C48.4664 21.7373 48.4546 22.1996 48.3432 22.6427C48.2317 23.0858 48.0234 23.4987 47.7332 23.8516ZM14.0632 29.8438C14.5776 29.7401 15.101 29.6877 15.6257 29.6875H34.3757C34.9005 29.6877 35.4239 29.7401 35.9382 29.8438V20.3125C35.9382 19.0693 35.4444 17.877 34.5653 16.9979C33.6862 16.1189 32.4939 15.625 31.2507 15.625H18.7507C17.5075 15.625 16.3152 16.1189 15.4362 16.9979C14.5571 17.877 14.0632 19.0693 14.0632 20.3125V29.8438ZM10.9382 21.875V20.3125C10.9355 18.6217 11.4841 16.976 12.5007 15.625H12.3445C10.5443 15.6279 8.80018 16.251 7.40568 17.3894C6.01117 18.5278 5.0515 20.1119 4.68824 21.875H10.9382ZM39.0632 37.5C39.0632 36.2568 38.5694 35.0645 37.6903 34.1854C36.8112 33.3064 35.6189 32.8125 34.3757 32.8125H15.6257C14.3825 32.8125 13.1903 33.3064 12.3112 34.1854C11.4321 35.0645 10.9382 36.2568 10.9382 37.5C10.9382 38.7432 11.4321 39.9355 12.3112 40.8146C13.1903 41.6936 14.3825 42.1875 15.6257 42.1875H34.3757C35.6189 42.1875 36.8112 41.6936 37.6903 40.8146C38.5694 39.9355 39.0632 38.7432 39.0632 37.5ZM45.3132 21.875C44.9503 20.1117 43.9907 18.5274 42.5962 17.389C41.2016 16.2505 39.4572 15.6276 37.657 15.625H37.5007C38.5174 16.976 39.0659 18.6217 39.0632 20.3125V21.875H45.3132Z" fill="white"/>
</svg>
