<svg width="29" height="28" viewBox="0 0 29 28" fill="none" xmlns="http://www.w3.org/2000/svg">
<path d="M23.5531 4.29297L9.30704 1.77734C8.85003 1.69692 8.37979 1.8013 7.99972 2.06753C7.61966 2.33376 7.36089 2.74004 7.28032 3.19703L4.02642 21.6814C3.98662 21.9079 3.99183 22.1399 4.04176 22.3644C4.09169 22.5888 4.18535 22.8012 4.3174 22.9894C4.44944 23.1776 4.61729 23.338 4.81133 23.4613C5.00537 23.5846 5.22182 23.6685 5.44829 23.7081L19.6944 26.2238C19.9209 26.2637 20.1531 26.2586 20.3777 26.2088C20.6022 26.1589 20.8147 26.0653 21.0031 25.9332C21.1914 25.8012 21.3519 25.6333 21.4753 25.4391C21.5987 25.245 21.6826 25.0285 21.7222 24.8019L24.9761 6.3175C25.0558 5.86034 24.9507 5.39024 24.6838 5.01058C24.417 4.63092 24.0103 4.37279 23.5531 4.29297ZM19.9963 24.5L5.74907 21.9844L9.00298 3.5L23.2491 6.01563L19.9963 24.5ZM10.2706 6.38969C10.3112 6.16128 10.4407 5.95832 10.6309 5.82542C10.821 5.69251 11.0561 5.64054 11.2845 5.68094L20.3627 7.28328C20.5784 7.32108 20.7722 7.43842 20.9056 7.61212C21.039 7.78582 21.1025 8.00325 21.0834 8.22146C21.0643 8.43966 20.964 8.64276 20.8024 8.79064C20.6408 8.93852 20.4297 9.02042 20.2106 9.02016C20.1593 9.02009 20.1081 9.0157 20.0575 9.00703L10.9794 7.4036C10.751 7.36306 10.548 7.23349 10.4151 7.04337C10.2822 6.85324 10.2302 6.61812 10.2706 6.38969ZM9.6647 9.83719C9.68464 9.724 9.72669 9.61584 9.78844 9.5189C9.85019 9.42196 9.93044 9.33814 10.0246 9.27222C10.1188 9.2063 10.225 9.15958 10.3372 9.13472C10.4494 9.10986 10.5654 9.10736 10.6786 9.12734L19.7567 10.7308C19.974 10.7671 20.1696 10.8841 20.3044 11.0583C20.4392 11.2325 20.5033 11.4512 20.484 11.6706C20.4647 11.89 20.3633 12.0941 20.2001 12.2421C20.0369 12.39 19.8239 12.471 19.6036 12.4688C19.5519 12.4689 19.5002 12.4641 19.4494 12.4545L10.3713 10.8522C10.143 10.8112 9.94042 10.6812 9.80794 10.4909C9.67546 10.3006 9.62394 10.0655 9.6647 9.83719ZM9.05767 13.2836C9.09896 13.0558 9.22885 12.8536 9.41889 12.7214C9.60893 12.5892 9.84362 12.5377 10.0716 12.5781L14.6084 13.3755C14.8241 13.4132 15.0178 13.5305 15.1512 13.7041C15.2846 13.8777 15.3481 14.095 15.3292 14.3131C15.3102 14.5312 15.2102 14.7343 15.0488 14.8823C14.8874 15.0302 14.6765 15.1123 14.4575 15.1123C14.4062 15.1123 14.355 15.1079 14.3044 15.0992L9.76532 14.2975C9.53712 14.2567 9.33443 14.127 9.20175 13.9369C9.06907 13.7468 9.01725 13.5119 9.05767 13.2836Z" fill="black"/>
</svg>
