<svg width="50" height="50" viewBox="0 0 50 50" fill="none" xmlns="http://www.w3.org/2000/svg">
<path d="M34.375 6.25C30.3496 6.25 26.8984 9.79688 25 15.2051C23.1016 9.79688 19.6504 6.25 15.625 6.25C9.49219 6.25 4.6875 14.4863 4.6875 25C4.6875 35.5137 9.49219 43.75 15.625 43.75C19.6504 43.75 23.1016 40.2031 25 34.7949C26.8984 40.2031 30.3496 43.75 34.375 43.75C40.5078 43.75 45.3125 35.5137 45.3125 25C45.3125 14.4863 40.5078 6.25 34.375 6.25ZM20.8828 36.4043C19.4199 39.0859 17.5039 40.625 15.625 40.625C13.7461 40.625 11.8301 39.0859 10.3672 36.4043C9.42148 34.6108 8.74745 32.6869 8.36719 30.6953C9.31911 31.1255 10.3637 31.3103 11.4054 31.2327C12.4472 31.1552 13.4529 30.8177 14.3306 30.2512C15.2082 29.6847 15.93 28.9073 16.4297 27.9899C16.9294 27.0726 17.1913 26.0446 17.1913 25C17.1913 23.9554 16.9294 22.9274 16.4297 22.0101C15.93 21.0927 15.2082 20.3153 14.3306 19.7488C13.4529 19.1823 12.4472 18.8448 11.4054 18.7673C10.3637 18.6897 9.31911 18.8745 8.36719 19.3047C8.74745 17.3131 9.42148 15.3892 10.3672 13.5957C11.8301 10.9141 13.7461 9.375 15.625 9.375C17.5039 9.375 19.4199 10.9141 20.8828 13.5957C22.5293 16.6152 23.4375 20.666 23.4375 25C23.4375 29.334 22.5293 33.3848 20.8828 36.4043ZM7.8125 25C7.8125 24.3819 7.99578 23.7777 8.33916 23.2638C8.68254 22.7499 9.17059 22.3494 9.74161 22.1129C10.3126 21.8764 10.941 21.8145 11.5472 21.935C12.1533 22.0556 12.7102 22.3533 13.1472 22.7903C13.5842 23.2273 13.8819 23.7842 14.0025 24.3903C14.123 24.9965 14.0611 25.6249 13.8246 26.1959C13.5881 26.7669 13.1876 27.255 12.6737 27.5983C12.1598 27.9417 11.5556 28.125 10.9375 28.125C10.1087 28.125 9.31384 27.7958 8.72779 27.2097C8.14174 26.6237 7.8125 25.8288 7.8125 25ZM39.6328 36.4043C38.1699 39.0859 36.2539 40.625 34.375 40.625C32.4961 40.625 30.5801 39.0859 29.1172 36.4043C28.1715 34.6108 27.4975 32.6869 27.1172 30.6953C28.0691 31.1255 29.1137 31.3103 30.1554 31.2327C31.1972 31.1552 32.2029 30.8177 33.0806 30.2512C33.9582 29.6847 34.68 28.9073 35.1797 27.9899C35.6794 27.0726 35.9413 26.0446 35.9413 25C35.9413 23.9554 35.6794 22.9274 35.1797 22.0101C34.68 21.0927 33.9582 20.3153 33.0806 19.7488C32.2029 19.1823 31.1972 18.8448 30.1554 18.7673C29.1137 18.6897 28.0691 18.8745 27.1172 19.3047C27.4975 17.3131 28.1715 15.3892 29.1172 13.5957C30.5801 10.9141 32.4961 9.375 34.375 9.375C36.2539 9.375 38.1699 10.9141 39.6328 13.5957C41.2793 16.6152 42.1875 20.666 42.1875 25C42.1875 29.334 41.2793 33.3848 39.6328 36.4043ZM26.5625 25C26.5625 24.3819 26.7458 23.7777 27.0892 23.2638C27.4325 22.7499 27.9206 22.3494 28.4916 22.1129C29.0626 21.8764 29.691 21.8145 30.2972 21.935C30.9033 22.0556 31.4602 22.3533 31.8972 22.7903C32.3342 23.2273 32.6319 23.7842 32.7525 24.3903C32.873 24.9965 32.8111 25.6249 32.5746 26.1959C32.3381 26.7669 31.9376 27.255 31.4237 27.5983C30.9098 27.9417 30.3056 28.125 29.6875 28.125C28.8587 28.125 28.0638 27.7958 27.4778 27.2097C26.8917 26.6237 26.5625 25.8288 26.5625 25Z" fill="white"/>
<path d="M7.8125 25C7.8125 24.3819 7.99578 23.7777 8.33916 23.2638C8.68254 22.7499 9.17059 22.3494 9.74161 22.1129C10.3126 21.8764 10.941 21.8145 11.5472 21.935C12.1533 22.0556 12.7102 22.3533 13.1472 22.7903C13.5842 23.2273 13.8819 23.7842 14.0025 24.3903C14.123 24.9965 14.0611 25.6249 13.8246 26.1959C13.5881 26.7669 13.1876 27.255 12.6737 27.5983C12.1598 27.9417 11.5556 28.125 10.9375 28.125C10.1087 28.125 9.31384 27.7958 8.72779 27.2097C8.14174 26.6237 7.8125 25.8288 7.8125 25Z" fill="white"/>
<path d="M26.5625 25C26.5625 24.3819 26.7458 23.7777 27.0892 23.2638C27.4325 22.7499 27.9206 22.3494 28.4916 22.1129C29.0626 21.8764 29.691 21.8145 30.2972 21.935C30.9033 22.0556 31.4602 22.3533 31.8972 22.7903C32.3342 23.2273 32.6319 23.7842 32.7525 24.3903C32.873 24.9965 32.8111 25.6249 32.5746 26.1959C32.3381 26.7669 31.9376 27.255 31.4237 27.5983C30.9098 27.9417 30.3056 28.125 29.6875 28.125C28.8587 28.125 28.0638 27.7958 27.4778 27.2097C26.8917 26.6237 26.5625 25.8288 26.5625 25Z" fill="white"/>
</svg>
