<?xml version="1.0" encoding="utf-8"?>
<!-- Generator: Adobe Illustrator 28.1.0, SVG Export Plug-In . SVG Version: 6.00 Build 0)  -->
<svg version="1.1" id="Layer_1" xmlns="http://www.w3.org/2000/svg" xmlns:xlink="http://www.w3.org/1999/xlink" x="0px" y="0px"
	 viewBox="0 0 50 50" style="enable-background:new 0 0 50 50;" xml:space="preserve">
<style type="text/css">
	.st0{fill:#FFFFFF;}
</style>
<path class="st0" d="M34.4,6.2c-4,0-7.5,3.5-9.4,9c-1.9-5.4-5.3-9-9.4-9C9.5,6.2,4.7,14.5,4.7,25c0,10.5,4.8,18.8,10.9,18.8
	c4,0,7.5-3.5,9.4-9c1.9,5.4,5.3,9,9.4,9c6.1,0,10.9-8.2,10.9-18.8C45.3,14.5,40.5,6.2,34.4,6.2z M20.9,36.4
	c-1.5,2.7-3.4,4.2-5.3,4.2s-3.8-1.5-5.3-4.2c-0.9-1.8-1.6-3.7-2-5.7c1,0.4,2,0.6,3,0.5c1-0.1,2-0.4,2.9-1c0.9-0.6,1.6-1.3,2.1-2.3
	c0.5-0.9,0.8-1.9,0.8-3c0-1-0.3-2.1-0.8-3c-0.5-0.9-1.2-1.7-2.1-2.3c-0.9-0.6-1.9-0.9-2.9-1c-1-0.1-2.1,0.1-3,0.5
	c0.4-2,1.1-3.9,2-5.7c1.5-2.7,3.4-4.2,5.3-4.2s3.8,1.5,5.3,4.2c1.6,3,2.6,7.1,2.6,11.4C23.4,29.3,22.5,33.4,20.9,36.4z M34.4,40.6
	c-1.9,0-3.8-1.5-5.3-4.2c-0.9-1.8-1.6-3.7-2-5.7c1,0.4,2,0.6,3,0.5c1-0.1,2-0.4,2.9-1c0.9-0.6,1.6-1.3,2.1-2.3
	c0.5-0.9,0.8-1.9,0.8-3c0-1-0.3-2.1-0.8-3c-0.5-0.9-1.2-1.7-2.1-2.3c-0.9-0.6-1.9-0.9-2.9-1c-1-0.1-2.1,0.1-3,0.5
	c0.4-2,1.1-3.9,2-5.7c1.5-2.7,3.4-4.2,5.3-4.2s3.8,1.5,5.3,4.2c1.6,3,2.6,7.1,2.6,11.4c0,4.3-0.9,8.4-2.6,11.4
	C38.2,39.1,36.3,40.6,34.4,40.6z"/>
</svg>
