<svg width="48" height="48" viewBox="0 0 48 48" fill="none" xmlns="http://www.w3.org/2000/svg">
<g id="Eyes">
<g id="Vector">
<path d="M33 6C29.1356 6 25.8225 9.405 24 14.5969C22.1775 9.405 18.8644 6 15 6C9.1125 6 4.5 13.9069 4.5 24C4.5 34.0931 9.1125 42 15 42C18.8644 42 22.1775 38.595 24 33.4031C25.8225 38.595 29.1356 42 33 42C38.8875 42 43.5 34.0931 43.5 24C43.5 13.9069 38.8875 6 33 6ZM20.0475 34.9481C18.6431 37.5225 16.8038 39 15 39C13.1962 39 11.3569 37.5225 9.9525 34.9481C9.04462 33.2264 8.39755 31.3794 8.0325 29.4675C8.94634 29.8805 9.94914 30.0579 10.9492 29.9834C11.9493 29.909 12.9147 29.585 13.7573 29.0412C14.5999 28.4973 15.2928 27.751 15.7725 26.8703C16.2523 25.9897 16.5036 25.0028 16.5036 24C16.5036 22.9972 16.2523 22.0103 15.7725 21.1297C15.2928 20.249 14.5999 19.5027 13.7573 18.9588C12.9147 18.415 11.9493 18.091 10.9492 18.0166C9.94914 17.9421 8.94634 18.1195 8.0325 18.5325C8.39755 16.6206 9.04462 14.7736 9.9525 13.0519C11.3569 10.4775 13.1962 9 15 9C16.8038 9 18.6431 10.4775 20.0475 13.0519C21.6281 15.9506 22.5 19.8394 22.5 24C22.5 28.1606 21.6281 32.0494 20.0475 34.9481ZM7.5 24C7.5 23.4067 7.67595 22.8266 8.00559 22.3333C8.33524 21.8399 8.80377 21.4554 9.35195 21.2284C9.90013 21.0013 10.5033 20.9419 11.0853 21.0576C11.6672 21.1734 12.2018 21.4591 12.6213 21.8787C13.0409 22.2982 13.3266 22.8328 13.4424 23.4147C13.5581 23.9967 13.4987 24.5999 13.2716 25.1481C13.0446 25.6962 12.6601 26.1648 12.1667 26.4944C11.6734 26.8241 11.0933 27 10.5 27C9.70435 27 8.94129 26.6839 8.37868 26.1213C7.81607 25.5587 7.5 24.7956 7.5 24ZM38.0475 34.9481C36.6431 37.5225 34.8037 39 33 39C31.1962 39 29.3569 37.5225 27.9525 34.9481C27.0446 33.2264 26.3976 31.3794 26.0325 29.4675C26.9463 29.8805 27.9491 30.0579 28.9492 29.9834C29.9493 29.909 30.9147 29.585 31.7573 29.0412C32.5999 28.4973 33.2928 27.751 33.7725 26.8703C34.2523 25.9897 34.5036 25.0028 34.5036 24C34.5036 22.9972 34.2523 22.0103 33.7725 21.1297C33.2928 20.249 32.5999 19.5027 31.7573 18.9588C30.9147 18.415 29.9493 18.091 28.9492 18.0166C27.9491 17.9421 26.9463 18.1195 26.0325 18.5325C26.3976 16.6206 27.0446 14.7736 27.9525 13.0519C29.3569 10.4775 31.1962 9 33 9C34.8037 9 36.6431 10.4775 38.0475 13.0519C39.6281 15.9506 40.5 19.8394 40.5 24C40.5 28.1606 39.6281 32.0494 38.0475 34.9481ZM25.5 24C25.5 23.4067 25.6759 22.8266 26.0056 22.3333C26.3352 21.8399 26.8038 21.4554 27.3519 21.2284C27.9001 21.0013 28.5033 20.9419 29.0853 21.0576C29.6672 21.1734 30.2018 21.4591 30.6213 21.8787C31.0409 22.2982 31.3266 22.8328 31.4424 23.4147C31.5581 23.9967 31.4987 24.5999 31.2716 25.1481C31.0446 25.6962 30.6601 26.1648 30.1667 26.4944C29.6734 26.8241 29.0933 27 28.5 27C27.7043 27 26.9413 26.6839 26.3787 26.1213C25.8161 25.5587 25.5 24.7956 25.5 24Z" fill="white"/>
<path d="M7.5 24C7.5 23.4067 7.67595 22.8266 8.00559 22.3333C8.33524 21.8399 8.80377 21.4554 9.35195 21.2284C9.90013 21.0013 10.5033 20.9419 11.0853 21.0576C11.6672 21.1734 12.2018 21.4591 12.6213 21.8787C13.0409 22.2982 13.3266 22.8328 13.4424 23.4147C13.5581 23.9967 13.4987 24.5999 13.2716 25.1481C13.0446 25.6962 12.6601 26.1648 12.1667 26.4944C11.6734 26.8241 11.0933 27 10.5 27C9.70435 27 8.94129 26.6839 8.37868 26.1213C7.81607 25.5587 7.5 24.7956 7.5 24Z" fill="white"/>
<path d="M25.5 24C25.5 23.4067 25.6759 22.8266 26.0056 22.3333C26.3352 21.8399 26.8038 21.4554 27.3519 21.2284C27.9001 21.0013 28.5033 20.9419 29.0853 21.0576C29.6672 21.1734 30.2018 21.4591 30.6213 21.8787C31.0409 22.2982 31.3266 22.8328 31.4424 23.4147C31.5581 23.9967 31.4987 24.5999 31.2716 25.1481C31.0446 25.6962 30.6601 26.1648 30.1667 26.4944C29.6734 26.8241 29.0933 27 28.5 27C27.7043 27 26.9413 26.6839 26.3787 26.1213C25.8161 25.5587 25.5 24.7956 25.5 24Z" fill="white"/>
</g>
</g>
</svg>
