<svg width="50" height="50" viewBox="0 0 50 50" fill="none" xmlns="http://www.w3.org/2000/svg">
<path d="M47.3887 18.8359L11.4512 6.33587C11.2156 6.25388 10.9639 6.22946 10.717 6.26466C10.4701 6.29986 10.2352 6.39366 10.0319 6.53821C9.82868 6.68275 9.66299 6.87385 9.5487 7.09553C9.43441 7.31721 9.37485 7.56303 9.375 7.81243V42.1874C9.375 42.6018 9.53962 42.9993 9.83265 43.2923C10.1257 43.5853 10.5231 43.7499 10.9375 43.7499C11.3519 43.7499 11.7493 43.5853 12.0424 43.2923C12.3354 42.9993 12.5 42.6018 12.5 42.1874V33.9238L47.3887 21.789C47.6957 21.6827 47.9619 21.4834 48.1504 21.2188C48.3389 20.9541 48.4401 20.6373 48.4401 20.3124C48.4401 19.9875 48.3389 19.6707 48.1504 19.4061C47.9619 19.1415 47.6957 18.9421 47.3887 18.8359ZM12.5 30.6152V10.0097L42.1191 20.3124L12.5 30.6152Z" fill="white"/>
</svg>
