<svg width="29" height="28" viewBox="0 0 29 28" fill="none" xmlns="http://www.w3.org/2000/svg">
<g clip-path="url(#clip0_232_70)">
<path d="M23.2839 8.27751C23.5514 7.41476 23.6372 6.50595 23.5359 5.60839C23.4346 4.71082 23.1484 3.84398 22.6955 3.06251C22.6187 2.92947 22.5082 2.81899 22.3751 2.74219C22.2421 2.66539 22.0911 2.62498 21.9375 2.62501C20.9183 2.62288 19.9128 2.85915 19.0012 3.31493C18.0896 3.77072 17.2973 4.4334 16.6875 5.25001H14.0625C13.4527 4.4334 12.6604 3.77072 11.7488 3.31493C10.8372 2.85915 9.83167 2.62288 8.8125 2.62501C8.65887 2.62498 8.50794 2.66539 8.37489 2.74219C8.24183 2.81899 8.13135 2.92947 8.05453 3.06251C7.60155 3.84398 7.3154 4.71082 7.21413 5.60839C7.11285 6.50595 7.19864 7.41476 7.46609 8.27751C6.92548 9.22111 6.63589 10.2876 6.625 11.375V12.25C6.62684 13.7305 7.1643 15.1604 8.13812 16.2755C9.11194 17.3907 10.4564 18.1158 11.9231 18.317C11.3244 19.0832 10.9994 20.0277 11 21V21.875H8.375C7.67881 21.875 7.01113 21.5985 6.51884 21.1062C6.02656 20.6139 5.75 19.9462 5.75 19.25C5.75 18.6755 5.63684 18.1066 5.41697 17.5758C5.19711 17.045 4.87485 16.5627 4.46859 16.1564C4.06234 15.7502 3.58004 15.4279 3.04924 15.208C2.51844 14.9882 1.94953 14.875 1.375 14.875C1.14294 14.875 0.920376 14.9672 0.756282 15.1313C0.592187 15.2954 0.5 15.518 0.5 15.75C0.5 15.9821 0.592187 16.2046 0.756282 16.3687C0.920376 16.5328 1.14294 16.625 1.375 16.625C2.07119 16.625 2.73887 16.9016 3.23116 17.3939C3.72344 17.8861 4 18.5538 4 19.25C4 20.4103 4.46094 21.5231 5.28141 22.3436C6.10188 23.1641 7.21468 23.625 8.375 23.625H11V25.375C11 25.6071 11.0922 25.8296 11.2563 25.9937C11.4204 26.1578 11.6429 26.25 11.875 26.25C12.1071 26.25 12.3296 26.1578 12.4937 25.9937C12.6578 25.8296 12.75 25.6071 12.75 25.375V21C12.75 20.3038 13.0266 19.6361 13.5188 19.1439C14.0111 18.6516 14.6788 18.375 15.375 18.375C16.0712 18.375 16.7389 18.6516 17.2312 19.1439C17.7234 19.6361 18 20.3038 18 21V25.375C18 25.6071 18.0922 25.8296 18.2563 25.9937C18.4204 26.1578 18.6429 26.25 18.875 26.25C19.1071 26.25 19.3296 26.1578 19.4937 25.9937C19.6578 25.8296 19.75 25.6071 19.75 25.375V21C19.7506 20.0277 19.4256 19.0832 18.8269 18.317C20.2936 18.1158 21.6381 17.3907 22.6119 16.2755C23.5857 15.1604 24.1232 13.7305 24.125 12.25V11.375C24.1141 10.2876 23.8245 9.22111 23.2839 8.27751ZM22.375 12.25C22.375 13.4103 21.9141 14.5231 21.0936 15.3436C20.2731 16.1641 19.1603 16.625 18 16.625H12.75C11.5897 16.625 10.4769 16.1641 9.65641 15.3436C8.83594 14.5231 8.375 13.4103 8.375 12.25V11.375C8.38573 10.5 8.64769 9.64658 9.12969 8.91626C9.21954 8.79783 9.27774 8.65846 9.29879 8.5113C9.31984 8.36414 9.30305 8.21404 9.25 8.07517C9.02209 7.48739 8.9124 6.8604 8.92723 6.23015C8.94206 5.5999 9.0811 4.97877 9.33641 4.40236C10.0525 4.47939 10.7421 4.71661 11.354 5.09642C11.966 5.47623 12.4846 5.9889 12.8714 6.59642C12.9502 6.71969 13.0587 6.82123 13.1869 6.89173C13.3151 6.96224 13.459 6.99947 13.6053 7.00001H17.1436C17.2905 7.00002 17.435 6.96305 17.5638 6.89252C17.6926 6.82199 17.8017 6.72016 17.8808 6.59642C18.2676 5.98885 18.7862 5.47614 19.3981 5.09632C20.0101 4.7165 20.6997 4.47932 21.4158 4.40236C21.6707 4.97892 21.8094 5.60012 21.8239 6.23037C21.8383 6.86062 21.7283 7.48753 21.5 8.07517C21.4471 8.21272 21.4294 8.36129 21.4485 8.50741C21.4676 8.65353 21.5229 8.79256 21.6094 8.91189C22.0962 9.64221 22.362 10.4974 22.375 11.375V12.25Z" fill="black"/>
</g>
<defs>
<clipPath id="clip0_232_70">
<rect width="28" height="28" fill="white" transform="translate(0.5)"/>
</clipPath>
</defs>
</svg>
