<svg width="50" height="50" viewBox="0 0 50 50" fill="none" xmlns="http://www.w3.org/2000/svg">
<path d="M39.4316 10.6758C37.5625 8.78785 35.3393 7.28714 32.8894 6.25958C30.4395 5.23203 27.811 4.6978 25.1543 4.6875H25C19.6128 4.6875 14.4462 6.82756 10.6369 10.6369C6.82756 14.4462 4.6875 19.6128 4.6875 25V35.9375C4.6875 37.1807 5.18136 38.373 6.06044 39.2521C6.93951 40.1311 8.1318 40.625 9.375 40.625H12.5C13.7432 40.625 14.9355 40.1311 15.8146 39.2521C16.6936 38.373 17.1875 37.1807 17.1875 35.9375V28.125C17.1875 26.8818 16.6936 25.6895 15.8146 24.8104C14.9355 23.9314 13.7432 23.4375 12.5 23.4375H7.88281C8.27264 19.1672 10.2446 15.1968 13.4116 12.3059C16.5787 9.41497 20.7119 7.81229 25 7.8125H25.1309C29.4011 7.83054 33.5106 9.44277 36.6539 12.3332C39.7972 15.2236 41.7477 19.1838 42.123 23.4375H37.5C36.2568 23.4375 35.0645 23.9314 34.1854 24.8104C33.3064 25.6895 32.8125 26.8818 32.8125 28.125V35.9375C32.8125 37.1807 33.3064 38.373 34.1854 39.2521C35.0645 40.1311 36.2568 40.625 37.5 40.625H40.625C41.8682 40.625 43.0605 40.1311 43.9396 39.2521C44.8186 38.373 45.3125 37.1807 45.3125 35.9375V25C45.3227 22.3429 44.8085 19.7099 43.7993 17.2519C42.7902 14.7939 41.3059 12.5592 39.4316 10.6758ZM12.5 26.5625C12.9144 26.5625 13.3118 26.7271 13.6049 27.0201C13.8979 27.3132 14.0625 27.7106 14.0625 28.125V35.9375C14.0625 36.3519 13.8979 36.7493 13.6049 37.0424C13.3118 37.3354 12.9144 37.5 12.5 37.5H9.375C8.9606 37.5 8.56317 37.3354 8.27015 37.0424C7.97712 36.7493 7.8125 36.3519 7.8125 35.9375V26.5625H12.5ZM42.1875 35.9375C42.1875 36.3519 42.0229 36.7493 41.7299 37.0424C41.4368 37.3354 41.0394 37.5 40.625 37.5H37.5C37.0856 37.5 36.6882 37.3354 36.3951 37.0424C36.1021 36.7493 35.9375 36.3519 35.9375 35.9375V28.125C35.9375 27.7106 36.1021 27.3132 36.3951 27.0201C36.6882 26.7271 37.0856 26.5625 37.5 26.5625H42.1875V35.9375Z" fill="white"/>
</svg>
