<svg width="50" height="50" viewBox="0 0 50 50" fill="none" xmlns="http://www.w3.org/2000/svg">
<path d="M19.5312 24.2188C19.0677 24.2188 18.6146 24.0813 18.2291 23.8238C17.8437 23.5662 17.5433 23.2002 17.3659 22.7719C17.1885 22.3437 17.1421 21.8724 17.2325 21.4178C17.323 20.9631 17.5462 20.5455 17.874 20.2177C18.2017 19.8899 18.6194 19.6667 19.074 19.5763C19.5286 19.4858 19.9999 19.5323 20.4282 19.7097C20.8564 19.8871 21.2225 20.1875 21.48 20.5729C21.7375 20.9583 21.875 21.4114 21.875 21.875C21.875 22.4966 21.6281 23.0927 21.1885 23.5323C20.749 23.9718 20.1529 24.2188 19.5312 24.2188ZM30.4688 19.5312C30.0052 19.5312 29.5521 19.6687 29.1666 19.9262C28.7812 20.1838 28.4808 20.5498 28.3034 20.9781C28.126 21.4063 28.0796 21.8776 28.17 22.3322C28.2605 22.7869 28.4837 23.2045 28.8115 23.5323C29.1392 23.8601 29.5569 24.0833 30.0115 24.1737C30.4662 24.2642 30.9374 24.2177 31.3657 24.0403C31.7939 23.8629 32.16 23.5625 32.4175 23.1771C32.675 22.7917 32.8125 22.3386 32.8125 21.875C32.8125 21.2534 32.5656 20.6573 32.126 20.2177C31.6865 19.7782 31.0904 19.5312 30.4688 19.5312ZM29.6348 28.3652C28.2431 29.2289 26.6379 29.6866 25 29.6866C23.3621 29.6866 21.7569 29.2289 20.3652 28.3652C20.0145 28.144 19.5904 28.0712 19.186 28.1628C18.7816 28.2544 18.4302 28.5028 18.209 28.8535C17.9878 29.2042 17.915 29.6284 18.0066 30.0328C18.0981 30.4371 18.3466 30.7886 18.6973 31.0098C20.5882 32.1885 22.7718 32.8134 25 32.8134C27.2282 32.8134 29.4118 32.1885 31.3027 31.0098C31.4764 30.9002 31.6267 30.7576 31.7453 30.59C31.8638 30.4223 31.9481 30.233 31.9934 30.0328C32.0388 29.8325 32.0442 29.6253 32.0095 29.423C31.9748 29.2207 31.9005 29.0272 31.791 28.8535C31.6815 28.6799 31.5388 28.5295 31.3712 28.411C31.2036 28.2925 31.0142 28.2081 30.814 28.1628C30.6138 28.1175 30.4066 28.112 30.2043 28.1467C30.0019 28.1815 29.8084 28.2557 29.6348 28.3652ZM42.1875 15.625V34.375C42.1862 35.7606 41.7253 37.1067 40.8771 38.2023C40.0288 39.298 38.8411 40.0813 37.5 40.4297V43.75C37.5 44.5788 37.1708 45.3737 36.5847 45.9597C35.9987 46.5458 35.2038 46.875 34.375 46.875H15.625C14.7962 46.875 14.0013 46.5458 13.4153 45.9597C12.8292 45.3737 12.5 44.5788 12.5 43.75V40.4297C11.1589 40.0813 9.97117 39.298 9.12293 38.2023C8.27468 37.1067 7.81381 35.7606 7.8125 34.375V15.625C7.8125 13.9674 8.47098 12.3777 9.64308 11.2056C10.8152 10.0335 12.4049 9.375 14.0625 9.375H17.1875V6.25C17.1875 5.4212 17.5167 4.62634 18.1028 4.04029C18.6888 3.45424 19.4837 3.125 20.3125 3.125H29.6875C30.5163 3.125 31.3112 3.45424 31.8972 4.04029C32.4833 4.62634 32.8125 5.4212 32.8125 6.25V9.375H35.9375C37.5951 9.375 39.1848 10.0335 40.3569 11.2056C41.529 12.3777 42.1875 13.9674 42.1875 15.625ZM20.3125 9.375H29.6875V6.25H20.3125V9.375ZM34.375 43.75V40.625H15.625V43.75H34.375ZM39.0625 15.625C39.0625 14.7962 38.7333 14.0013 38.1472 13.4153C37.5612 12.8292 36.7663 12.5 35.9375 12.5H14.0625C13.2337 12.5 12.4388 12.8292 11.8528 13.4153C11.2667 14.0013 10.9375 14.7962 10.9375 15.625V34.375C10.9375 35.2038 11.2667 35.9987 11.8528 36.5847C12.4388 37.1708 13.2337 37.5 14.0625 37.5H35.9375C36.7663 37.5 37.5612 37.1708 38.1472 36.5847C38.7333 35.9987 39.0625 35.2038 39.0625 34.375V15.625Z" fill="white"/>
</svg>
