<svg width="48" height="48" viewBox="0 0 48 48" fill="none" xmlns="http://www.w3.org/2000/svg">
<g id="LegoSmiley">
<path id="Vector" d="M18.75 23.25C18.305 23.25 17.87 23.118 17.5 22.8708C17.13 22.6236 16.8416 22.2722 16.6713 21.861C16.501 21.4499 16.4564 20.9975 16.5432 20.561C16.63 20.1246 16.8443 19.7237 17.159 19.409C17.4737 19.0943 17.8746 18.88 18.311 18.7932C18.7475 18.7064 19.1999 18.751 19.611 18.9213C20.0222 19.0916 20.3736 19.38 20.6208 19.75C20.868 20.12 21 20.555 21 21C21 21.5967 20.7629 22.169 20.341 22.591C19.919 23.0129 19.3467 23.25 18.75 23.25ZM29.25 18.75C28.805 18.75 28.37 18.882 28 19.1292C27.63 19.3764 27.3416 19.7278 27.1713 20.139C27.001 20.5501 26.9564 21.0025 27.0432 21.439C27.13 21.8754 27.3443 22.2763 27.659 22.591C27.9737 22.9057 28.3746 23.12 28.811 23.2068C29.2475 23.2936 29.6999 23.249 30.111 23.0787C30.5222 22.9084 30.8736 22.62 31.1208 22.25C31.368 21.88 31.5 21.445 31.5 21C31.5 20.4033 31.2629 19.831 30.841 19.409C30.419 18.9871 29.8467 18.75 29.25 18.75ZM28.4494 27.2306C27.1134 28.0598 25.5723 28.4991 24 28.4991C22.4277 28.4991 20.8866 28.0598 19.5506 27.2306C19.214 27.0183 18.8067 26.9484 18.4185 27.0363C18.0303 27.1242 17.693 27.3627 17.4806 27.6994C17.2683 28.036 17.1984 28.4433 17.2863 28.8315C17.3742 29.2197 17.6127 29.557 17.9494 29.7694C19.7646 30.901 21.8609 31.5009 24 31.5009C26.1391 31.5009 28.2354 30.901 30.0506 29.7694C30.2173 29.6642 30.3617 29.5273 30.4755 29.3664C30.5892 29.2054 30.6702 29.0237 30.7137 28.8315C30.7572 28.6392 30.7625 28.4403 30.7291 28.2461C30.6958 28.0518 30.6245 27.8661 30.5194 27.6994C30.4142 27.5327 30.2773 27.3883 30.1164 27.2745C29.9554 27.1608 29.7737 27.0798 29.5815 27.0363C29.3892 26.9928 29.1903 26.9875 28.9961 27.0209C28.8018 27.0542 28.6161 27.1255 28.4494 27.2306ZM40.5 15V33C40.4987 34.3302 40.0563 35.6224 39.242 36.6742C38.4277 37.7261 37.2875 38.4781 36 38.8125V42C36 42.7957 35.6839 43.5587 35.1213 44.1213C34.5587 44.6839 33.7956 45 33 45H15C14.2044 45 13.4413 44.6839 12.8787 44.1213C12.3161 43.5587 12 42.7957 12 42V38.8125C10.7125 38.4781 9.57232 37.7261 8.75801 36.6742C7.94369 35.6224 7.50126 34.3302 7.5 33V15C7.5 13.4087 8.13214 11.8826 9.25736 10.7574C10.3826 9.63214 11.9087 9 13.5 9H16.5V6C16.5 5.20435 16.8161 4.44129 17.3787 3.87868C17.9413 3.31607 18.7044 3 19.5 3H28.5C29.2956 3 30.0587 3.31607 30.6213 3.87868C31.1839 4.44129 31.5 5.20435 31.5 6V9H34.5C36.0913 9 37.6174 9.63214 38.7426 10.7574C39.8679 11.8826 40.5 13.4087 40.5 15ZM19.5 9H28.5V6H19.5V9ZM33 42V39H15V42H33ZM37.5 15C37.5 14.2044 37.1839 13.4413 36.6213 12.8787C36.0587 12.3161 35.2956 12 34.5 12H13.5C12.7044 12 11.9413 12.3161 11.3787 12.8787C10.8161 13.4413 10.5 14.2044 10.5 15V33C10.5 33.7956 10.8161 34.5587 11.3787 35.1213C11.9413 35.6839 12.7044 36 13.5 36H34.5C35.2956 36 36.0587 35.6839 36.6213 35.1213C37.1839 34.5587 37.5 33.7956 37.5 33V15Z" fill="white"/>
</g>
</svg>
