<svg width="48" height="48" viewBox="0 0 48 48" fill="none" xmlns="http://www.w3.org/2000/svg">
<path d="M45.6713 13.6614L36.9919 9.32266C35.9137 7.36141 33.2269 6.00391 30 6.00391C25.7944 6.00391 22.5 8.31016 22.5 11.2539C22.5004 11.67 22.5675 12.0834 22.6987 12.4783L19.0388 14.3083C17.7623 13.7647 16.3873 13.4909 15 13.5039C10.7944 13.5039 7.5 15.8102 7.5 18.7539C7.50041 19.17 7.56751 19.5834 7.69875 19.9783L2.32875 22.6614C2.07954 22.7861 1.87 22.9778 1.72362 23.2149C1.57723 23.452 1.4998 23.7252 1.5 24.0039V36.0039C1.4998 36.2826 1.57723 36.5558 1.72362 36.7929C1.87 37.03 2.07954 37.2217 2.32875 37.3464L14.3287 43.3464C14.5371 43.4507 14.767 43.505 15 43.505C15.233 43.505 15.4629 43.4507 15.6713 43.3464L45.6713 28.3464C45.9205 28.2217 46.13 28.03 46.2764 27.7929C46.4228 27.5558 46.5002 27.2826 46.5 27.0039V15.0039C46.5002 14.7252 46.4228 14.452 46.2764 14.2149C46.13 13.9778 45.9205 13.7861 45.6713 13.6614ZM15 28.3277L6.35438 24.0039L9.5625 22.4008C10.92 23.3927 12.84 24.0039 15 24.0039C19.2056 24.0039 22.5 21.6977 22.5 18.7539C22.4929 17.8825 22.2071 17.0362 21.6844 16.3389L24.5625 14.9008C25.92 15.8927 27.84 16.5039 30 16.5039C33.4462 16.5039 36.2794 14.9552 37.1906 12.7764L41.6456 15.0039L15 28.3277ZM30 9.00391C32.5762 9.00391 34.5 10.1927 34.5 11.2539C34.5 12.3152 32.5762 13.5039 30 13.5039C27.4238 13.5039 25.5 12.3152 25.5 11.2539C25.5 10.1927 27.4238 9.00391 30 9.00391ZM15 16.5039C17.5762 16.5039 19.5 17.6927 19.5 18.7539C19.5 19.8152 17.5762 21.0039 15 21.0039C13.1869 21.0039 11.6981 20.4152 10.9744 19.6914C10.9264 19.6294 10.8737 19.5711 10.8169 19.517C10.6272 19.3063 10.5154 19.037 10.5 18.7539C10.5 17.6927 12.4238 16.5039 15 16.5039ZM4.5 26.4302L13.5 30.9302V39.5777L4.5 35.0777V26.4302ZM16.5 39.5777V30.9302L43.5 17.4302V26.0777L16.5 39.5777Z" fill="white"/>
</svg>
