<svg width="50" height="50" viewBox="0 0 50 50" fill="none" xmlns="http://www.w3.org/2000/svg">
<path d="M25 4.6875C20.9826 4.6875 17.0554 5.87881 13.715 8.11077C10.3746 10.3427 7.77111 13.5151 6.23371 17.2267C4.6963 20.9384 4.29405 25.0225 5.07781 28.9628C5.86157 32.903 7.79615 36.5224 10.6369 39.3631C13.4777 42.2039 17.097 44.1384 21.0372 44.9222C24.9775 45.706 29.0616 45.3037 32.7733 43.7663C36.4849 42.2289 39.6573 39.6254 41.8892 36.285C44.1212 32.9446 45.3125 29.0174 45.3125 25C45.3068 19.6145 43.1649 14.4513 39.3568 10.6432C35.5487 6.83507 30.3855 4.69319 25 4.6875ZM32.6367 30.4277C33.7672 28.8436 34.3749 26.9461 34.3749 25C34.3749 23.0539 33.7672 21.1564 32.6367 19.5723L38.2031 14.0078C40.7776 17.0922 42.1877 20.9824 42.1877 25C42.1877 29.0176 40.7776 32.9078 38.2031 35.9922L32.6367 30.4277ZM18.75 25C18.75 23.7639 19.1166 22.5555 19.8033 21.5277C20.4901 20.4999 21.4662 19.6988 22.6082 19.2258C23.7503 18.7527 25.0069 18.6289 26.2193 18.8701C27.4317 19.1112 28.5453 19.7065 29.4194 20.5806C30.2935 21.4547 30.8888 22.5683 31.1299 23.7807C31.3711 24.9931 31.2473 26.2497 30.7743 27.3918C30.3012 28.5338 29.5001 29.5099 28.4723 30.1967C27.4445 30.8834 26.2361 31.25 25 31.25C23.3424 31.25 21.7527 30.5915 20.5806 29.4194C19.4085 28.2473 18.75 26.6576 18.75 25ZM35.9922 11.7969L30.4277 17.3633C28.8437 16.2328 26.9461 15.6251 25 15.6251C23.0539 15.6251 21.1564 16.2328 19.5723 17.3633L14.0078 11.7969C17.0922 9.22246 20.9824 7.81231 25 7.81231C29.0176 7.81231 32.9078 9.22246 35.9922 11.7969ZM11.7969 14.0078L17.3633 19.5723C16.2328 21.1564 15.6252 23.0539 15.6252 25C15.6252 26.9461 16.2328 28.8436 17.3633 30.4277L11.7969 35.9922C9.22246 32.9078 7.81231 29.0176 7.81231 25C7.81231 20.9824 9.22246 17.0922 11.7969 14.0078ZM14.0078 38.2031L19.5723 32.6367C21.1564 33.7672 23.0539 34.3749 25 34.3749C26.9461 34.3749 28.8437 33.7672 30.4277 32.6367L35.9922 38.2031C32.9078 40.7775 29.0176 42.1877 25 42.1877C20.9824 42.1877 17.0922 40.7775 14.0078 38.2031Z" fill="white"/>
</svg>
