<svg width="50" height="50" viewBox="0 0 50 50" fill="none" xmlns="http://www.w3.org/2000/svg">
<path d="M35.9375 14.0626C35.9377 11.9661 35.3353 9.91362 34.2021 8.14971C33.0689 6.3858 31.4526 4.98474 29.5457 4.1134C27.6388 3.24205 25.5216 2.93713 23.4463 3.23494C21.371 3.53276 19.4251 4.42076 17.8401 5.7932C16.2552 7.16564 15.0982 8.96468 14.5067 10.9761C13.9153 12.9875 13.9144 15.1265 14.5042 17.1384C15.094 19.1503 16.2496 20.9503 17.8334 22.324C19.4172 23.6977 21.3624 24.5873 23.4375 24.8868V45.3126C23.4375 45.727 23.6021 46.1245 23.8951 46.4175C24.1882 46.7105 24.5856 46.8751 25 46.8751C25.4144 46.8751 25.8118 46.7105 26.1049 46.4175C26.3979 46.1245 26.5625 45.727 26.5625 45.3126V24.8868C29.1639 24.5077 31.5422 23.2057 33.2633 21.2185C34.9844 19.2313 35.9336 16.6915 35.9375 14.0626ZM25 21.8751C23.4548 21.8751 21.9444 21.4169 20.6596 20.5585C19.3748 19.7 18.3735 18.4799 17.7822 17.0523C17.1909 15.6248 17.0362 14.054 17.3376 12.5385C17.6391 11.023 18.3831 9.63095 19.4757 8.53836C20.5683 7.44576 21.9604 6.70169 23.4759 6.40024C24.9913 6.0988 26.5622 6.25351 27.9897 6.84482C29.4173 7.43613 30.6374 8.43748 31.4959 9.72224C32.3543 11.007 32.8125 12.5175 32.8125 14.0626C32.8125 15.0886 32.6104 16.1045 32.2178 17.0523C31.8252 18.0002 31.2497 18.8614 30.5243 19.5869C29.7988 20.3124 28.9376 20.8878 27.9897 21.2804C27.0419 21.6731 26.026 21.8751 25 21.8751Z" fill="white"/>
</svg>
