<svg width="50" height="50" viewBox="0 0 50 50" fill="none" xmlns="http://www.w3.org/2000/svg">
<path d="M32.0306 15.625C33.1122 15.625 34.1696 15.3043 35.0689 14.7034C35.9682 14.1024 36.6692 13.2483 37.0831 12.2491C37.497 11.2498 37.6053 10.1502 37.3943 9.08935C37.1833 8.02852 36.6624 7.05408 35.8976 6.28926C35.1328 5.52444 34.1584 5.0036 33.0975 4.79258C32.0367 4.58157 30.9371 4.68987 29.9378 5.10379C28.9385 5.5177 28.0844 6.21865 27.4835 7.11798C26.8826 8.01731 26.5619 9.07464 26.5619 10.1563C26.5619 11.6067 27.138 12.9977 28.1636 14.0232C29.1892 15.0488 30.5802 15.625 32.0306 15.625ZM32.0306 7.8125C32.4942 7.8125 32.9473 7.94996 33.3327 8.2075C33.7182 8.46503 34.0186 8.83107 34.196 9.25934C34.3734 9.6876 34.4198 10.1589 34.3293 10.6135C34.2389 11.0681 34.0157 11.4858 33.6879 11.8135C33.3601 12.1413 32.9425 12.3645 32.4879 12.455C32.0332 12.5454 31.562 12.499 31.1337 12.3216C30.7054 12.1442 30.3394 11.8438 30.0819 11.4584C29.8243 11.0729 29.6869 10.6198 29.6869 10.1563C29.6869 9.53465 29.9338 8.93851 30.3733 8.49897C30.8129 8.05943 31.409 7.8125 32.0306 7.8125ZM49.7806 38.2656L39.1244 20.2813C38.8496 19.8128 38.4564 19.4247 37.9844 19.156C37.5124 18.8872 36.9781 18.7472 36.4349 18.75C35.892 18.7472 35.3579 18.8872 34.8862 19.1559C34.4145 19.4247 34.0218 19.8128 33.7474 20.2813L28.638 28.9063L19.8802 14.043C19.6043 13.574 19.2106 13.1851 18.7382 12.915C18.2658 12.6448 17.7311 12.5027 17.1869 12.5027C16.6427 12.5027 16.1079 12.6448 15.6355 12.915C15.1631 13.1851 14.7695 13.574 14.4935 14.043L0.216169 38.2695C0.0764174 38.5068 0.00185494 38.7768 3.41653e-05 39.0522C-0.00178661 39.3275 0.069199 39.5985 0.205801 39.8376C0.342403 40.0767 0.539769 40.2755 0.777908 40.4137C1.01605 40.552 1.2865 40.6249 1.56187 40.625H48.4369C48.7127 40.625 48.9835 40.5519 49.2219 40.4133C49.4604 40.2747 49.6579 40.0754 49.7943 39.8358C49.9308 39.5961 50.0015 39.3246 49.999 39.0489C49.9966 38.7731 49.9213 38.5029 49.7806 38.2656ZM17.1869 15.625L21.7904 23.4375H12.5834L17.1869 15.625ZM4.29625 37.5L10.7416 26.5625H23.6322L27.2923 32.7734L30.0775 37.5H4.29625ZM33.7045 37.5L30.4505 31.9766L36.4349 21.875L45.7025 37.5H33.7045Z" fill="white"/>
</svg>
