<svg width="50" height="50" viewBox="0 0 50 50" fill="none" xmlns="http://www.w3.org/2000/svg">
<path d="M25 4.6875C20.9826 4.6875 17.0554 5.87881 13.715 8.11077C10.3746 10.3427 7.77111 13.5151 6.23371 17.2267C4.6963 20.9384 4.29405 25.0225 5.07781 28.9628C5.86157 32.903 7.79615 36.5224 10.6369 39.3631C13.4777 42.2039 17.097 44.1384 21.0372 44.9222C24.9775 45.706 29.0616 45.3037 32.7733 43.7663C36.4849 42.2289 39.6573 39.6254 41.8892 36.285C44.1212 32.9446 45.3125 29.0174 45.3125 25C45.3068 19.6145 43.1649 14.4513 39.3568 10.6432C35.5487 6.83507 30.3855 4.69319 25 4.6875ZM25 42.1875C21.6006 42.1875 18.2776 41.1795 15.4511 39.2909C12.6247 37.4023 10.4217 34.718 9.12083 31.5774C7.81995 28.4368 7.47958 24.9809 8.14276 21.6469C8.80595 18.3128 10.4429 15.2503 12.8466 12.8466C15.2503 10.4429 18.3128 8.80594 21.6469 8.14275C24.9809 7.47957 28.4368 7.81994 31.5774 9.12082C34.718 10.4217 37.4023 12.6247 39.2909 15.4511C41.1795 18.2776 42.1875 21.6006 42.1875 25C42.1823 29.5568 40.3699 33.9255 37.1477 37.1477C33.9255 40.3699 29.5568 42.1823 25 42.1875ZM31.25 28.125H29.6875V15.625C29.6872 15.2997 29.5853 14.9825 29.3961 14.7179C29.2069 14.4532 28.9398 14.2542 28.6321 14.1486C28.3244 14.043 27.9914 14.0361 27.6795 14.1289C27.3677 14.2216 27.0926 14.4094 26.8926 14.666L15.9551 28.7285C15.7756 28.9593 15.6646 29.2359 15.6345 29.5267C15.6044 29.8175 15.6565 30.111 15.7849 30.3736C15.9133 30.6363 16.1128 30.8577 16.3607 31.0126C16.6087 31.1675 16.8951 31.2498 17.1875 31.25H26.5625V34.375C26.5625 34.7894 26.7271 35.1868 27.0202 35.4799C27.3132 35.7729 27.7106 35.9375 28.125 35.9375C28.5394 35.9375 28.9368 35.7729 29.2299 35.4799C29.5229 35.1868 29.6875 34.7894 29.6875 34.375V31.25H31.25C31.6644 31.25 32.0618 31.0854 32.3549 30.7924C32.6479 30.4993 32.8125 30.1019 32.8125 29.6875C32.8125 29.2731 32.6479 28.8757 32.3549 28.5826C32.0618 28.2896 31.6644 28.125 31.25 28.125ZM26.5625 28.125H20.3828L26.5625 20.1797V28.125Z" fill="white"/>
</svg>
