<svg width="50" height="50" viewBox="0 0 50 50" fill="none" xmlns="http://www.w3.org/2000/svg">
<path d="M25 4.6875C20.9826 4.6875 17.0554 5.87881 13.715 8.11077C10.3746 10.3427 7.77111 13.5151 6.23371 17.2267C4.6963 20.9384 4.29405 25.0225 5.07781 28.9628C5.86157 32.903 7.79615 36.5224 10.6369 39.3631C13.4777 42.2039 17.097 44.1384 21.0372 44.9222C24.9775 45.706 29.0616 45.3037 32.7733 43.7663C36.4849 42.2289 39.6573 39.6254 41.8892 36.285C44.1212 32.9446 45.3125 29.0174 45.3125 25C45.3068 19.6145 43.1649 14.4513 39.3568 10.6432C35.5487 6.83507 30.3855 4.69319 25 4.6875ZM25 42.1875C21.6006 42.1875 18.2776 41.1795 15.4511 39.2909C12.6247 37.4023 10.4217 34.718 9.12083 31.5774C7.81995 28.4368 7.47958 24.9809 8.14276 21.6469C8.80595 18.3128 10.4429 15.2503 12.8466 12.8466C15.2503 10.4429 18.3128 8.80594 21.6469 8.14275C24.9809 7.47957 28.4368 7.81994 31.5774 9.12082C34.718 10.4217 37.4023 12.6247 39.2909 15.4511C41.1795 18.2776 42.1875 21.6006 42.1875 25C42.1823 29.5568 40.3699 33.9255 37.1477 37.1477C33.9255 40.3699 29.5568 42.1823 25 42.1875ZM31.25 29.6875C31.2497 31.084 30.8335 32.4488 30.0545 33.6078C29.2755 34.7669 28.169 35.6677 26.8761 36.1955C25.5831 36.7233 24.1623 36.8541 22.7947 36.5713C21.4272 36.2884 20.1748 35.6048 19.1973 34.6074C19.0446 34.463 18.9226 34.2892 18.8387 34.0965C18.7547 33.9039 18.7105 33.6962 18.7086 33.4861C18.7068 33.2759 18.7474 33.0675 18.8279 32.8734C18.9085 32.6793 19.0274 32.5034 19.1775 32.3563C19.3276 32.2092 19.5059 32.0939 19.7016 32.0173C19.8973 31.9407 20.1065 31.9044 20.3166 31.9105C20.5267 31.9166 20.7333 31.9651 20.9243 32.0529C21.1152 32.1408 21.2864 32.2663 21.4277 32.4219C21.8785 32.8818 22.436 33.2231 23.0506 33.4154C23.6652 33.6078 24.3178 33.6452 24.9503 33.5244C25.5829 33.4035 26.1757 33.1282 26.6761 32.7228C27.1765 32.3175 27.569 31.7947 27.8185 31.201C28.068 30.6073 28.1669 29.9612 28.1063 29.3201C28.0457 28.6789 27.8276 28.0627 27.4713 27.5263C27.115 26.9899 26.6316 26.5498 26.0641 26.2454C25.4967 25.9409 24.8627 25.7815 24.2188 25.7812C23.9329 25.7812 23.6526 25.7027 23.4083 25.5543C23.1639 25.406 22.965 25.1935 22.8331 24.9399C22.7011 24.6863 22.6413 24.4014 22.6601 24.1162C22.6788 23.831 22.7755 23.5564 22.9395 23.3223L26.6856 17.9688H20.3125C19.8981 17.9688 19.5007 17.8041 19.2077 17.5111C18.9146 17.2181 18.75 16.8207 18.75 16.4062C18.75 15.9918 18.9146 15.5944 19.2077 15.3014C19.5007 15.0084 19.8981 14.8438 20.3125 14.8438H29.6875C29.9733 14.8438 30.2537 14.9223 30.498 15.0707C30.7423 15.219 30.9413 15.4315 31.0732 15.6851C31.2051 15.9387 31.265 16.2236 31.2462 16.5088C31.2274 16.794 31.1308 17.0686 30.9668 17.3027L26.8652 23.1621C28.1619 23.6909 29.2715 24.594 30.0525 25.7563C30.8335 26.9186 31.2504 28.2872 31.25 29.6875Z" fill="white"/>
</svg>
