<svg width="50" height="50" viewBox="0 0 50 50" fill="none" xmlns="http://www.w3.org/2000/svg">
<path d="M25 4.6875C20.9826 4.6875 17.0554 5.87881 13.715 8.11077C10.3746 10.3427 7.77111 13.5151 6.23371 17.2267C4.6963 20.9384 4.29405 25.0225 5.07781 28.9628C5.86157 32.903 7.79615 36.5224 10.6369 39.3631C13.4777 42.2039 17.097 44.1384 21.0372 44.9222C24.9775 45.706 29.0616 45.3037 32.7733 43.7663C36.4849 42.2289 39.6573 39.6254 41.8892 36.285C44.1212 32.9446 45.3125 29.0174 45.3125 25C45.3068 19.6145 43.1649 14.4513 39.3568 10.6432C35.5487 6.83507 30.3855 4.69319 25 4.6875ZM25 42.1875C21.6006 42.1875 18.2776 41.1795 15.4511 39.2909C12.6247 37.4023 10.4217 34.718 9.12083 31.5774C7.81995 28.4368 7.47958 24.9809 8.14276 21.6469C8.80595 18.3128 10.4429 15.2503 12.8466 12.8466C15.2503 10.4429 18.3128 8.80594 21.6469 8.14275C24.9809 7.47957 28.4368 7.81994 31.5774 9.12082C34.718 10.4217 37.4023 12.6247 39.2909 15.4511C41.1795 18.2776 42.1875 21.6006 42.1875 25C42.1823 29.5568 40.3699 33.9255 37.1477 37.1477C33.9255 40.3699 29.5568 42.1823 25 42.1875ZM29.9922 24.0742L23.4375 32.8125H29.6875C30.1019 32.8125 30.4993 32.9771 30.7924 33.2701C31.0854 33.5632 31.25 33.9606 31.25 34.375C31.25 34.7894 31.0854 35.1868 30.7924 35.4799C30.4993 35.7729 30.1019 35.9375 29.6875 35.9375H20.3125C20.0223 35.9375 19.7379 35.8567 19.4911 35.7041C19.2442 35.5516 19.0447 35.3333 18.915 35.0738C18.7852 34.8142 18.7303 34.5237 18.7563 34.2347C18.7824 33.9457 18.8884 33.6696 19.0625 33.4375L27.4942 22.1953C27.7641 21.8355 27.9533 21.4217 28.0486 20.9821C28.1439 20.5425 28.1433 20.0875 28.0466 19.6482C27.9499 19.2089 27.7596 18.7956 27.4885 18.4366C27.2175 18.0776 26.8721 17.7814 26.476 17.5682C26.08 17.3549 25.6426 17.2297 25.1936 17.2011C24.7447 17.1724 24.2949 17.241 23.875 17.4022C23.455 17.5633 23.0748 17.8132 22.7603 18.1349C22.4458 18.4565 22.2045 18.8422 22.0527 19.2656C21.9144 19.6565 21.6265 19.9763 21.2524 20.1549C20.8782 20.3335 20.4485 20.3561 20.0576 20.2178C19.6668 20.0795 19.3469 19.7916 19.1684 19.4174C18.9898 19.0433 18.9672 18.6135 19.1055 18.2227C19.4069 17.3741 19.8881 16.6007 20.5162 15.9554C21.1443 15.3101 21.9044 14.8082 22.7444 14.4839C23.5845 14.1597 24.4848 14.0208 25.3835 14.0768C26.2823 14.1328 27.1583 14.3823 27.9517 14.8083C28.745 15.2343 29.4369 15.8267 29.9801 16.5449C30.5232 17.2632 30.9047 18.0903 31.0985 18.9697C31.2923 19.8491 31.2938 20.76 31.1028 21.64C30.9119 22.52 30.533 23.3484 29.9922 24.0684V24.0742Z" fill="white"/>
</svg>
