<svg width="50" height="50" viewBox="0 0 50 50" fill="none" xmlns="http://www.w3.org/2000/svg">
<path d="M35.9365 31.2498H32.8115V9.37476C32.8118 9.0508 32.7113 8.73477 32.5241 8.47041C32.3368 8.20604 32.072 8.00642 31.7663 7.89916C31.4607 7.7919 31.1292 7.78231 30.8178 7.87172C30.5064 7.96112 30.2305 8.1451 30.0283 8.39819L11.2783 31.8357C11.0943 32.0656 10.9789 32.3427 10.9456 32.6353C10.9123 32.9279 10.9623 33.2239 11.0898 33.4893C11.2174 33.7547 11.4174 33.9786 11.6667 34.1353C11.9161 34.2919 12.2046 34.3749 12.499 34.3748H29.6865V40.6248C29.6865 41.0392 29.8511 41.4366 30.1442 41.7296C30.4372 42.0226 30.8346 42.1873 31.249 42.1873C31.6634 42.1873 32.0609 42.0226 32.3539 41.7296C32.6469 41.4366 32.8115 41.0392 32.8115 40.6248V34.3748H35.9365C36.3509 34.3748 36.7484 34.2101 37.0414 33.9171C37.3344 33.6241 37.499 33.2267 37.499 32.8123C37.499 32.3979 37.3344 32.0004 37.0414 31.7074C36.7484 31.4144 36.3509 31.2498 35.9365 31.2498ZM29.6865 31.2498H15.749L29.6865 13.8298V31.2498Z" fill="white"/>
</svg>
