<svg width="50" height="50" viewBox="0 0 50 50" fill="none" xmlns="http://www.w3.org/2000/svg">
<path d="M34.375 40.6249C34.375 41.0393 34.2104 41.4367 33.9174 41.7297C33.6243 42.0228 33.2269 42.1874 32.8125 42.1874H17.1875C16.8973 42.1874 16.6129 42.1066 16.366 41.954C16.1192 41.8015 15.9197 41.5832 15.79 41.3237C15.6602 41.0641 15.6053 40.7736 15.6313 40.4846C15.6574 40.1956 15.7634 39.9195 15.9375 39.6874L29.9883 20.953C30.4897 20.2983 30.8566 19.5507 31.0678 18.7535C31.279 17.9564 31.3303 17.1252 31.2188 16.3081C31.1073 15.491 30.8352 14.704 30.4182 13.9925C30.0012 13.281 29.4475 12.6591 28.789 12.1626C28.1305 11.6661 27.3803 11.3048 26.5815 11.0996C25.7828 10.8944 24.9513 10.8493 24.135 10.9669C23.3188 11.0844 22.5338 11.3624 21.8255 11.7848C21.1171 12.2071 20.4994 12.7654 20.0078 13.4276C19.714 13.8184 19.4662 14.2417 19.2695 14.6893C19.1035 15.069 18.7935 15.3672 18.4076 15.5183C18.0217 15.6694 17.5916 15.661 17.2119 15.495C16.8322 15.329 16.534 15.0189 16.3829 14.6331C16.2318 14.2472 16.2402 13.8171 16.4063 13.4374C16.936 12.2247 17.7165 11.1379 18.6964 10.2485C19.6763 9.35914 20.8334 8.68727 22.0915 8.27711C23.3497 7.86695 24.6804 7.7278 25.9962 7.86881C27.312 8.00982 28.5831 8.4278 29.7257 9.09525C30.8684 9.7627 31.8569 10.6645 32.626 11.7414C33.3952 12.8182 33.9277 14.0457 34.1884 15.3431C34.4492 16.6405 34.4323 17.9783 34.139 19.2688C33.8456 20.5592 33.2824 21.7728 32.4863 22.83L20.3125 39.0624H32.8125C33.2269 39.0624 33.6243 39.227 33.9174 39.52C34.2104 39.8131 34.375 40.2105 34.375 40.6249Z" fill="white"/>
</svg>
