<svg width="50" height="50" viewBox="0 0 50 50" fill="none" xmlns="http://www.w3.org/2000/svg">
<path d="M28.1254 9.375V40.625C28.1254 41.0394 27.9608 41.4368 27.6678 41.7299C27.3747 42.0229 26.9773 42.1875 26.5629 42.1875C26.1485 42.1875 25.7511 42.0229 25.4581 41.7299C25.165 41.4368 25.0004 41.0394 25.0004 40.625V12.1348L19.5551 15.4023C19.1998 15.6158 18.7742 15.6793 18.372 15.5789C17.9698 15.4785 17.624 15.2225 17.4106 14.8672C17.1972 14.5118 17.1336 14.0863 17.234 13.6841C17.3344 13.2819 17.5904 12.9361 17.9457 12.7227L25.7582 8.03515C25.9954 7.89269 26.266 7.81573 26.5426 7.81214C26.8192 7.80855 27.0918 7.87846 27.3326 8.01472C27.5733 8.15098 27.7736 8.3487 27.9129 8.58769C28.0522 8.82668 28.1255 9.09837 28.1254 9.375Z" fill="white"/>
</svg>
