<svg width="48" height="48" viewBox="0 0 48 48" fill="none" xmlns="http://www.w3.org/2000/svg">
<path d="M37.6444 10.1083C34.0138 6.51314 29.1094 4.49868 24 4.50392H23.7994C18.6625 4.55677 13.754 6.63454 10.1403 10.2858C6.52662 13.937 4.49973 18.8668 4.5 24.0039C4.5 32.0664 9.48375 38.8277 17.505 41.6608C18.4097 41.9798 19.3777 42.0771 20.3278 41.9448C21.2779 41.8124 22.1825 41.4542 22.9656 40.9001C23.7486 40.3461 24.3875 39.6123 24.8285 38.7604C25.2694 37.9084 25.4997 36.9632 25.5 36.0039C25.5 35.2083 25.8161 34.4452 26.3787 33.8826C26.9413 33.32 27.7043 33.0039 28.5 33.0039H37.1644C38.5254 33.0105 39.8477 32.5514 40.9119 31.7028C41.976 30.8543 42.7179 29.6673 43.0144 28.3389C43.3497 26.8627 43.5126 25.3526 43.5 23.8389C43.4809 21.2767 42.9535 18.7437 41.9483 16.3867C40.9432 14.0298 39.4803 11.8957 37.6444 10.1083ZM40.0819 27.6789C39.9329 28.3407 39.5625 28.9318 39.0321 29.3546C38.5016 29.7773 37.8427 30.0064 37.1644 30.0039H28.5C26.9087 30.0039 25.3826 30.6361 24.2574 31.7613C23.1321 32.8865 22.5 34.4126 22.5 36.0039C22.4993 36.4831 22.3838 36.9551 22.1633 37.3805C21.9427 37.8059 21.6234 38.1723 21.2322 38.449C20.8409 38.7257 20.3891 38.9046 19.9145 38.9708C19.4399 39.037 18.9564 38.9886 18.5044 38.8295C11.7169 36.4352 7.5 30.7539 7.5 24.0039C7.49977 19.6572 9.21471 15.4861 12.2723 12.3966C15.3298 9.30708 19.4829 7.54887 23.8294 7.50392H23.9981C28.3447 7.5208 32.5105 9.24538 35.5972 12.3057C38.6839 15.3661 40.444 19.517 40.4981 23.8633C40.5093 25.1467 40.3721 26.427 40.0894 27.6789H40.0819ZM26.25 14.2539C26.25 14.6989 26.118 15.1339 25.8708 15.5039C25.6236 15.874 25.2722 16.1623 24.861 16.3326C24.4499 16.5029 23.9975 16.5475 23.561 16.4607C23.1246 16.3739 22.7237 16.1596 22.409 15.8449C22.0943 15.5302 21.88 15.1293 21.7932 14.6929C21.7064 14.2564 21.751 13.804 21.9213 13.3929C22.0916 12.9817 22.38 12.6303 22.75 12.3831C23.12 12.1359 23.555 12.0039 24 12.0039C24.5967 12.0039 25.169 12.241 25.591 12.6629C26.0129 13.0849 26.25 13.6572 26.25 14.2539ZM18 18.7539C18 19.1989 17.868 19.6339 17.6208 20.0039C17.3736 20.374 17.0222 20.6623 16.611 20.8326C16.1999 21.0029 15.7475 21.0475 15.311 20.9607C14.8746 20.8739 14.4737 20.6596 14.159 20.3449C13.8443 20.0302 13.63 19.6293 13.5432 19.1929C13.4564 18.7564 13.501 18.304 13.6713 17.8929C13.8416 17.4817 14.13 17.1303 14.5 16.8831C14.87 16.6359 15.305 16.5039 15.75 16.5039C16.3467 16.5039 16.919 16.741 17.341 17.1629C17.7629 17.5849 18 18.1572 18 18.7539ZM18 29.2539C18 29.6989 17.868 30.1339 17.6208 30.504C17.3736 30.874 17.0222 31.1624 16.611 31.3326C16.1999 31.5029 15.7475 31.5475 15.311 31.4607C14.8746 31.3739 14.4737 31.1596 14.159 30.8449C13.8443 30.5302 13.63 30.1293 13.5432 29.6929C13.4564 29.2564 13.501 28.804 13.6713 28.3929C13.8416 27.9817 14.13 27.6303 14.5 27.3831C14.87 27.1359 15.305 27.0039 15.75 27.0039C16.3467 27.0039 16.919 27.241 17.341 27.6629C17.7629 28.0849 18 28.6572 18 29.2539ZM34.5 18.7539C34.5 19.1989 34.368 19.6339 34.1208 20.0039C33.8736 20.374 33.5222 20.6623 33.111 20.8326C32.6999 21.0029 32.2475 21.0475 31.811 20.9607C31.3746 20.8739 30.9737 20.6596 30.659 20.3449C30.3443 20.0302 30.13 19.6293 30.0432 19.1929C29.9564 18.7564 30.001 18.304 30.1713 17.8929C30.3416 17.4817 30.63 17.1303 31 16.8831C31.37 16.6359 31.805 16.5039 32.25 16.5039C32.8467 16.5039 33.419 16.741 33.841 17.1629C34.2629 17.5849 34.5 18.1572 34.5 18.7539Z" fill="white"/>
</svg>
