<svg width="50" height="50" viewBox="0 0 50 50" fill="none" xmlns="http://www.w3.org/2000/svg">
<path d="M25 4.6875C20.9826 4.6875 17.0554 5.87881 13.715 8.11077C10.3746 10.3427 7.77111 13.5151 6.23371 17.2267C4.6963 20.9384 4.29405 25.0225 5.07781 28.9628C5.86157 32.903 7.79615 36.5224 10.6369 39.3631C13.4777 42.2039 17.097 44.1384 21.0372 44.9222C24.9775 45.706 29.0616 45.3037 32.7733 43.7663C36.4849 42.2289 39.6573 39.6254 41.8892 36.285C44.1212 32.9446 45.3125 29.0174 45.3125 25C45.3068 19.6145 43.1649 14.4513 39.3568 10.6432C35.5487 6.83507 30.3855 4.69319 25 4.6875ZM25 42.1875C21.6006 42.1875 18.2776 41.1795 15.4511 39.2909C12.6247 37.4023 10.4217 34.718 9.12083 31.5774C7.81995 28.4368 7.47958 24.9809 8.14276 21.6469C8.80595 18.3128 10.4429 15.2503 12.8466 12.8466C15.2503 10.4429 18.3128 8.80594 21.6469 8.14275C24.9809 7.47957 28.4368 7.81994 31.5774 9.12082C34.718 10.4217 37.4023 12.6247 39.2909 15.4511C41.1795 18.2776 42.1875 21.6006 42.1875 25C42.1823 29.5568 40.3699 33.9255 37.1477 37.1477C33.9255 40.3699 29.5568 42.1823 25 42.1875ZM34.4219 23.6758L21.9219 15.8633C21.6854 15.7155 21.4137 15.6337 21.135 15.6263C20.8562 15.619 20.5806 15.6863 20.3366 15.8215C20.0927 15.9566 19.8894 16.1545 19.7478 16.3947C19.6062 16.6349 19.5314 16.9087 19.5313 17.1875V32.8125C19.5314 33.0913 19.6062 33.3651 19.7478 33.6053C19.8894 33.8455 20.0927 34.0434 20.3366 34.1785C20.5806 34.3137 20.8562 34.381 21.135 34.3737C21.4137 34.3663 21.6854 34.2845 21.9219 34.1367L34.4219 26.3242C34.6463 26.1837 34.8313 25.9884 34.9595 25.7568C35.0877 25.5252 35.155 25.2648 35.155 25C35.155 24.7352 35.0877 24.4748 34.9595 24.2432C34.8313 24.0116 34.6463 23.8163 34.4219 23.6758ZM22.6563 29.9941V20.0059L30.6465 25L22.6563 29.9941Z" fill="white"/>
</svg>
