<svg width="48" height="48" viewBox="0 0 48 48" fill="none" xmlns="http://www.w3.org/2000/svg">
<path d="M24 4.5C20.1433 4.5 16.3731 5.64366 13.1664 7.78634C9.95963 9.92903 7.46027 12.9745 5.98436 16.5377C4.50845 20.1008 4.12228 24.0216 4.8747 27.8043C5.62711 31.5869 7.4843 35.0615 10.2114 37.7886C12.9386 40.5157 16.4131 42.3729 20.1957 43.1253C23.9784 43.8777 27.8992 43.4916 31.4623 42.0156C35.0255 40.5397 38.071 38.0404 40.2137 34.8336C42.3564 31.6269 43.5 27.8567 43.5 24C43.4945 18.83 41.4383 13.8732 37.7826 10.2174C34.1268 6.56167 29.1701 4.50546 24 4.5ZM24 40.5C20.7366 40.5 17.5465 39.5323 14.8331 37.7192C12.1197 35.9062 10.0048 33.3293 8.756 30.3143C7.50715 27.2993 7.1804 23.9817 7.81705 20.781C8.45371 17.5803 10.0252 14.6403 12.3327 12.3327C14.6403 10.0252 17.5803 8.4537 20.781 7.81704C23.9817 7.18039 27.2993 7.50714 30.3143 8.75599C33.3293 10.0048 35.9062 12.1197 37.7193 14.8331C39.5323 17.5465 40.5 20.7366 40.5 24C40.495 28.3745 38.7551 32.5685 35.6618 35.6618C32.5685 38.7551 28.3746 40.495 24 40.5ZM15 20.25C15 19.805 15.132 19.37 15.3792 19C15.6264 18.63 15.9778 18.3416 16.389 18.1713C16.8001 18.001 17.2525 17.9564 17.689 18.0432C18.1254 18.13 18.5263 18.3443 18.841 18.659C19.1557 18.9737 19.37 19.3746 19.4568 19.811C19.5436 20.2475 19.499 20.6999 19.3287 21.111C19.1584 21.5222 18.8701 21.8736 18.5 22.1208C18.13 22.368 17.695 22.5 17.25 22.5C16.6533 22.5 16.081 22.2629 15.659 21.841C15.2371 21.419 15 20.8467 15 20.25ZM28.5 20.25C28.5 19.805 28.632 19.37 28.8792 19C29.1264 18.63 29.4778 18.3416 29.889 18.1713C30.3001 18.001 30.7525 17.9564 31.189 18.0432C31.6254 18.13 32.0263 18.3443 32.341 18.659C32.6557 18.9737 32.87 19.3746 32.9568 19.811C33.0436 20.2475 32.999 20.6999 32.8287 21.111C32.6584 21.5222 32.3701 21.8736 32 22.1208C31.63 22.368 31.195 22.5 30.75 22.5C30.1533 22.5 29.581 22.2629 29.159 21.841C28.7371 21.419 28.5 20.8467 28.5 20.25ZM34.5 31.5C34.5 31.8978 34.342 32.2794 34.0607 32.5607C33.7794 32.842 33.3978 33 33 33C31.125 33 30.1763 31.7362 29.55 30.9C28.9875 30.15 28.815 30 28.5 30C28.185 30 28.0181 30.1425 27.45 30.9C26.8238 31.7362 25.875 33 24 33C22.125 33 21.1763 31.7362 20.55 30.9C19.9875 30.15 19.815 30 19.5 30C19.185 30 19.0181 30.1425 18.45 30.9C17.8238 31.7362 16.875 33 15 33C14.6022 33 14.2207 32.842 13.9393 32.5607C13.658 32.2794 13.5 31.8978 13.5 31.5C13.5 31.1022 13.658 30.7206 13.9393 30.4393C14.2207 30.158 14.6022 30 15 30C15.315 30 15.4819 29.8575 16.05 29.1C16.6763 28.2638 17.625 27 19.5 27C21.375 27 22.3238 28.2638 22.95 29.1C23.5125 29.85 23.685 30 24 30C24.315 30 24.4819 29.8575 25.05 29.1C25.6763 28.2638 26.625 27 28.5 27C30.375 27 31.3238 28.2638 31.95 29.1C32.5125 29.85 32.685 30 33 30C33.3978 30 33.7794 30.158 34.0607 30.4393C34.342 30.7206 34.5 31.1022 34.5 31.5Z" fill="white"/>
</svg>
