<svg width="48" height="48" viewBox="0 0 48 48" fill="none" xmlns="http://www.w3.org/2000/svg">
<path d="M24 4.5C20.1433 4.5 16.3731 5.64366 13.1664 7.78634C9.95963 9.92903 7.46027 12.9745 5.98436 16.5377C4.50845 20.1008 4.12228 24.0216 4.8747 27.8043C5.62711 31.5869 7.4843 35.0615 10.2114 37.7886C12.9386 40.5157 16.4131 42.3729 20.1957 43.1253C23.9784 43.8777 27.8992 43.4916 31.4623 42.0156C35.0255 40.5397 38.071 38.0404 40.2137 34.8336C42.3564 31.6269 43.5 27.8567 43.5 24C43.4945 18.83 41.4383 13.8732 37.7826 10.2174C34.1268 6.56167 29.1701 4.50546 24 4.5ZM24 40.5C20.7366 40.5 17.5465 39.5323 14.8331 37.7192C12.1197 35.9062 10.0048 33.3293 8.756 30.3143C7.50715 27.2993 7.1804 23.9817 7.81705 20.781C8.45371 17.5803 10.0252 14.6403 12.3327 12.3327C14.6403 10.0252 17.5803 8.4537 20.781 7.81704C23.9817 7.18039 27.2993 7.50714 30.3143 8.75599C33.3293 10.0048 35.9062 12.1197 37.7193 14.8331C39.5323 17.5465 40.5 20.7366 40.5 24C40.495 28.3745 38.7551 32.5685 35.6618 35.6618C32.5685 38.7551 28.3746 40.495 24 40.5ZM35.5613 22.9387C35.7006 23.0781 35.8112 23.2436 35.8866 23.4257C35.962 23.6077 36.0008 23.8029 36.0008 24C36.0008 24.1971 35.962 24.3923 35.8866 24.5743C35.8112 24.7564 35.7006 24.9219 35.5613 25.0613C35.4219 25.2006 35.2564 25.3112 35.0744 25.3866C34.8923 25.462 34.6971 25.5008 34.5 25.5008C34.3029 25.5008 34.1078 25.462 33.9257 25.3866C33.7436 25.3112 33.5781 25.2006 33.4388 25.0613L31.5 23.1206L29.5613 25.0613C29.2798 25.3427 28.8981 25.5008 28.5 25.5008C28.102 25.5008 27.7202 25.3427 27.4388 25.0613C27.1573 24.7798 26.9992 24.398 26.9992 24C26.9992 23.602 27.1573 23.2202 27.4388 22.9387L29.3794 21L27.4388 19.0613C27.1573 18.7798 26.9992 18.398 26.9992 18C26.9992 17.602 27.1573 17.2202 27.4388 16.9387C27.7202 16.6573 28.102 16.4992 28.5 16.4992C28.8981 16.4992 29.2798 16.6573 29.5613 16.9387L31.5 18.8794L33.4388 16.9387C33.5781 16.7994 33.7436 16.6888 33.9257 16.6134C34.1078 16.538 34.3029 16.4992 34.5 16.4992C34.6971 16.4992 34.8923 16.538 35.0744 16.6134C35.2564 16.6888 35.4219 16.7994 35.5613 16.9387C35.7006 17.0781 35.8112 17.2436 35.8866 17.4257C35.962 17.6077 36.0008 17.8029 36.0008 18C36.0008 18.1971 35.962 18.3923 35.8866 18.5743C35.8112 18.7564 35.7006 18.9219 35.5613 19.0613L33.6206 21L35.5613 22.9387ZM20.5613 19.0613L18.6206 21L20.5613 22.9387C20.8427 23.2202 21.0008 23.602 21.0008 24C21.0008 24.398 20.8427 24.7798 20.5613 25.0613C20.2798 25.3427 19.8981 25.5008 19.5 25.5008C19.102 25.5008 18.7202 25.3427 18.4388 25.0613L16.5 23.1206L14.5613 25.0613C14.2798 25.3427 13.8981 25.5008 13.5 25.5008C13.102 25.5008 12.7202 25.3427 12.4388 25.0613C12.1573 24.7798 11.9992 24.398 11.9992 24C11.9992 23.602 12.1573 23.2202 12.4388 22.9387L14.3794 21L12.4388 19.0613C12.1573 18.7798 11.9992 18.398 11.9992 18C11.9992 17.602 12.1573 17.2202 12.4388 16.9387C12.7202 16.6573 13.102 16.4992 13.5 16.4992C13.8981 16.4992 14.2798 16.6573 14.5613 16.9387L16.5 18.8794L18.4388 16.9387C18.7202 16.6573 19.102 16.4992 19.5 16.4992C19.8981 16.4992 20.2798 16.6573 20.5613 16.9387C20.8427 17.2202 21.0008 17.602 21.0008 18C21.0008 18.398 20.8427 18.7798 20.5613 19.0613ZM26.25 33.75C26.25 34.195 26.118 34.63 25.8708 35C25.6236 35.37 25.2722 35.6584 24.861 35.8287C24.4499 35.999 23.9975 36.0436 23.5611 35.9568C23.1246 35.87 22.7237 35.6557 22.409 35.341C22.0944 35.0263 21.8801 34.6254 21.7932 34.189C21.7064 33.7525 21.751 33.3001 21.9213 32.889C22.0916 32.4778 22.38 32.1264 22.75 31.8792C23.12 31.632 23.555 31.5 24 31.5C24.5967 31.5 25.169 31.7371 25.591 32.159C26.013 32.581 26.25 33.1533 26.25 33.75Z" fill="white"/>
</svg>
