<svg width="48" height="48" viewBox="0 0 48 48" fill="none" xmlns="http://www.w3.org/2000/svg">
<path d="M16.5002 33.7541C16.5002 34.1991 16.3683 34.6341 16.121 35.0041C15.8738 35.3741 15.5224 35.6625 15.1113 35.8328C14.7001 36.0031 14.2477 36.0476 13.8113 35.9608C13.3748 35.874 12.9739 35.6597 12.6592 35.345C12.3446 35.0304 12.1303 34.6295 12.0435 34.193C11.9566 33.7566 12.0012 33.3042 12.1715 32.893C12.3418 32.4819 12.6302 32.1305 13.0002 31.8832C13.3702 31.636 13.8052 31.5041 14.2502 31.5041C14.847 31.5041 15.4193 31.7411 15.8412 32.1631C16.2632 32.585 16.5002 33.1573 16.5002 33.7541ZM45.0002 29.2897V39.0041C45.0002 39.7997 44.6842 40.5628 44.1215 41.1254C43.5589 41.688 42.7959 42.0041 42.0002 42.0041H14.2502C13.7512 42.0044 13.2531 41.9617 12.7615 41.8766C10.6165 41.4852 8.71372 40.2607 7.46891 38.4706C6.22411 36.6805 5.73855 34.4704 6.11835 32.3234L10.8059 5.48656C10.8725 5.09877 11.015 4.72796 11.2253 4.3954C11.4356 4.06284 11.7094 3.77507 12.0312 3.5486C12.353 3.32213 12.7163 3.16143 13.1003 3.0757C13.4843 2.98998 13.8815 2.98092 14.269 3.04906L24.5327 4.87906C25.3137 5.0198 26.0071 5.46422 26.4611 6.11503C26.9151 6.76585 27.0928 7.57004 26.9552 8.35156L24.6902 21.2891L37.4046 16.6916C38.1499 16.4224 38.9715 16.459 39.6899 16.7934C40.4083 17.1278 40.9652 17.7329 41.239 18.4766L44.8127 28.2584C44.9275 28.5906 44.9908 28.9384 45.0002 29.2897ZM19.3127 34.6672L24.0002 7.83031L13.774 6.00406L9.08648 32.8353C8.84175 34.2 9.14682 35.6062 9.9351 36.7468C10.7234 37.8874 11.9309 38.6699 13.294 38.9234C13.9613 39.0431 14.6457 39.029 15.3075 38.8819C15.9693 38.7348 16.5952 38.4576 17.149 38.0666C17.7169 37.6716 18.2006 37.1676 18.5721 36.5841C18.9435 36.0005 19.1953 35.3489 19.3127 34.6672ZM21.8965 36.5666L42.0002 29.2747L38.4227 19.5041L24.094 24.6978L22.2602 35.1828C22.1787 35.6536 22.057 36.1165 21.8965 36.5666ZM42.0002 32.4641L23.9515 39.0041H42.0002V32.4641Z" fill="white"/>
</svg>
