<svg width="50" height="50" viewBox="0 0 50 50" fill="none" xmlns="http://www.w3.org/2000/svg">
<path d="M47.8125 29.375C47.6483 29.4981 47.4615 29.5877 47.2628 29.6386C47.064 29.6896 46.8572 29.7008 46.654 29.6718C46.4509 29.6428 46.2555 29.5741 46.0789 29.4695C45.9024 29.365 45.7481 29.2267 45.625 29.0625C44.6832 27.7966 43.4574 26.7695 42.0462 26.0639C40.635 25.3583 39.0778 24.9939 37.5 25C37.1927 25 36.8923 24.9094 36.6363 24.7395C36.3803 24.5696 36.18 24.328 36.0605 24.0449C35.9794 23.8527 35.9376 23.6462 35.9376 23.4375C35.9376 23.2289 35.9794 23.0223 36.0605 22.8301C36.18 22.547 36.3803 22.3054 36.6363 22.1355C36.8923 21.9657 37.1927 21.8751 37.5 21.875C38.3767 21.8749 39.2358 21.629 39.9797 21.1651C40.7237 20.7013 41.3226 20.0381 41.7085 19.2509C42.0944 18.4637 42.2519 17.584 42.1629 16.7119C42.0739 15.8397 41.7422 15.0099 41.2053 14.3169C40.6684 13.6238 39.9479 13.0952 39.1256 12.7911C38.3033 12.487 37.4122 12.4195 36.5536 12.5965C35.6949 12.7734 34.9031 13.1876 34.268 13.792C33.6329 14.3964 33.1801 15.1668 32.9609 16.0156C32.9096 16.2144 32.8197 16.4012 32.6962 16.5652C32.5728 16.7292 32.4182 16.8673 32.2414 16.9716C32.0645 17.0758 31.8689 17.1443 31.6656 17.173C31.4623 17.2016 31.2554 17.19 31.0566 17.1387C30.8579 17.0874 30.6711 16.9974 30.5071 16.874C30.3431 16.7505 30.205 16.596 30.1007 16.4191C29.9964 16.2423 29.928 16.0467 29.8993 15.8434C29.8706 15.6401 29.8823 15.4332 29.9336 15.2344C30.2378 14.0573 30.8125 12.9674 31.6121 12.0515C32.4116 11.1356 33.4139 10.4189 34.5391 9.95852C35.6644 9.49812 36.8816 9.30671 38.0938 9.3995C39.3061 9.49229 40.4799 9.86672 41.522 10.493C42.5641 11.1193 43.4456 11.9802 44.0964 13.0071C44.7473 14.034 45.1494 15.1987 45.271 16.4084C45.3925 17.6181 45.23 18.8395 44.7964 19.9753C44.3628 21.1112 43.6701 22.1302 42.7734 22.9512C44.8981 23.8711 46.745 25.3309 48.1309 27.1856C48.254 27.3501 48.3434 27.5374 48.394 27.7366C48.4447 27.9357 48.4555 28.143 48.4259 28.3463C48.3964 28.5497 48.3269 28.7453 48.2217 28.9218C48.1164 29.0983 47.9774 29.2523 47.8125 29.375ZM37.2891 41.4063C37.4021 41.5841 37.478 41.783 37.5122 41.9909C37.5464 42.1989 37.5382 42.4116 37.4881 42.6162C37.4379 42.8209 37.3469 43.0134 37.2205 43.1819C37.0941 43.3505 36.9348 43.4918 36.7524 43.5973C36.5699 43.7027 36.368 43.7702 36.1588 43.7956C35.9497 43.821 35.7375 43.8039 35.5351 43.7451C35.3327 43.6864 35.1443 43.5874 34.9812 43.454C34.8181 43.3205 34.6836 43.1555 34.5859 42.9688C33.6016 41.3021 32.1998 39.9209 30.5188 38.9614C28.8378 38.0018 26.9356 37.4972 25 37.4972C23.0644 37.4972 21.1622 38.0018 19.4812 38.9614C17.8002 39.9209 16.3983 41.3021 15.4141 42.9688C15.3164 43.1555 15.1819 43.3205 15.0188 43.454C14.8557 43.5874 14.6673 43.6864 14.4649 43.7451C14.2625 43.8039 14.0503 43.821 13.8411 43.7956C13.6319 43.7702 13.4301 43.7027 13.2476 43.5973C13.0652 43.4918 12.9059 43.3505 12.7795 43.1819C12.6531 43.0134 12.5621 42.8209 12.5119 42.6162C12.4618 42.4116 12.4536 42.1989 12.4878 41.9909C12.522 41.783 12.5979 41.5841 12.7109 41.4063C14.2258 38.8035 16.5355 36.7552 19.3008 35.5625C17.7448 34.3712 16.6012 32.7222 16.0309 30.8473C15.4605 28.9725 15.492 26.966 16.1209 25.11C16.7499 23.254 17.9446 21.6417 19.5372 20.4998C21.1299 19.3579 23.0403 18.7438 25 18.7438C26.9597 18.7438 28.8701 19.3579 30.4628 20.4998C32.0554 21.6417 33.2501 23.254 33.8791 25.11C34.508 26.966 34.5395 28.9725 33.9691 30.8473C33.3988 32.7222 32.2552 34.3712 30.6992 35.5625C33.4645 36.7552 35.7742 38.8035 37.2891 41.4063ZM25 34.375C26.2361 34.375 27.4445 34.0085 28.4723 33.3217C29.5001 32.6349 30.3012 31.6588 30.7742 30.5168C31.2473 29.3748 31.3711 28.1181 31.1299 26.9057C30.8887 25.6933 30.2935 24.5797 29.4194 23.7056C28.5453 22.8315 27.4317 22.2363 26.2193 21.9951C25.0069 21.754 23.7503 21.8777 22.6082 22.3508C21.4662 22.8238 20.4901 23.6249 19.8033 24.6527C19.1166 25.6805 18.75 26.8889 18.75 28.125C18.75 29.7826 19.4085 31.3723 20.5806 32.5444C21.7527 33.7165 23.3424 34.375 25 34.375ZM14.0625 23.4375C14.0625 23.0231 13.8979 22.6257 13.6049 22.3327C13.3118 22.0396 12.9144 21.875 12.5 21.875C11.6233 21.8749 10.7642 21.629 10.0202 21.1651C9.27631 20.7013 8.67738 20.0381 8.29146 19.2509C7.90555 18.4637 7.74814 17.584 7.8371 16.7119C7.92607 15.8397 8.25784 15.0099 8.79474 14.3169C9.33164 13.6238 10.0521 13.0952 10.8744 12.7911C11.6967 12.487 12.5878 12.4195 13.4464 12.5965C14.3051 12.7734 15.0969 13.1876 15.732 13.792C16.367 14.3964 16.8199 15.1668 17.0391 16.0156C17.1427 16.4171 17.4015 16.761 17.7586 16.9716C18.1157 17.1822 18.5419 17.2423 18.9434 17.1387C19.3448 17.0351 19.6887 16.7763 19.8993 16.4191C20.1099 16.062 20.17 15.6358 20.0664 15.2344C19.7622 14.0573 19.1875 12.9674 18.3879 12.0515C17.5884 11.1356 16.5861 10.4189 15.4608 9.95852C14.3356 9.49812 13.1184 9.30671 11.9062 9.3995C10.6939 9.49229 9.52005 9.86672 8.47798 10.493C7.4359 11.1193 6.55438 11.9802 5.90355 13.0071C5.25272 14.034 4.85055 15.1987 4.72904 16.4084C4.60752 17.6181 4.77002 18.8395 5.2036 19.9753C5.63718 21.1112 6.32987 22.1302 7.22656 22.9512C5.10407 23.872 3.2592 25.3317 1.875 27.1856C1.6261 27.5171 1.51909 27.9339 1.57751 28.3443C1.63593 28.7547 1.855 29.1251 2.18652 29.374C2.51804 29.6229 2.93486 29.73 3.34528 29.6715C3.7557 29.6131 4.1261 29.394 4.375 29.0625C5.31677 27.7966 6.5426 26.7695 7.95382 26.0639C9.36504 25.3583 10.9222 24.9939 12.5 25C12.9144 25 13.3118 24.8354 13.6049 24.5424C13.8979 24.2494 14.0625 23.8519 14.0625 23.4375Z" fill="white"/>
</svg>
