<svg width="48" height="48" viewBox="0 0 48 48" fill="none" xmlns="http://www.w3.org/2000/svg">
<g id="Wrench">
<path id="Vector" d="M42.5162 12.9375C42.4252 12.7126 42.281 12.5131 42.096 12.3562C41.911 12.1993 41.6907 12.0895 41.4539 12.0364C41.2172 11.9833 40.9712 11.9885 40.7369 12.0513C40.5025 12.1142 40.287 12.233 40.1087 12.3975L32.5524 19.3706L29.3218 18.6769L28.628 15.4462L35.6012 7.88998C35.7656 7.71166 35.8844 7.4961 35.9473 7.26179C36.0102 7.02748 36.0153 6.78141 35.9622 6.54469C35.9091 6.30797 35.7994 6.08766 35.6424 5.90266C35.4855 5.71765 35.286 5.57347 35.0612 5.48248C33.0117 4.65342 30.7899 4.34039 28.5911 4.57089C26.3923 4.8014 24.2838 5.56838 22.4508 6.80445C20.6178 8.04053 19.1164 9.70786 18.0786 11.66C17.0408 13.612 16.4982 15.7892 16.4987 18C16.4962 19.8669 16.8792 21.7142 17.6237 23.4262L6.33428 33.1875C6.30615 33.21 6.2799 33.2362 6.25365 33.2606C5.12831 34.386 4.49609 35.9123 4.49609 37.5037C4.49609 38.2918 4.65131 39.0721 4.95287 39.8001C5.25443 40.5281 5.69644 41.1896 6.25365 41.7469C6.81087 42.3041 7.47238 42.7461 8.20042 43.0476C8.92845 43.3492 9.70876 43.5044 10.4968 43.5044C12.0883 43.5044 13.6146 42.8722 14.7399 41.7469C14.7643 41.7225 14.7905 41.6944 14.813 41.6681L24.5724 30.375C26.6282 31.2774 28.8766 31.6529 31.1141 31.4674C33.3516 31.2819 35.5075 30.5412 37.3866 29.3126C39.2657 28.0839 40.8087 26.406 41.8759 24.4307C42.9432 22.4554 43.5009 20.2451 43.4987 18C43.5016 16.2648 43.1679 14.5456 42.5162 12.9375ZM29.9987 28.5C28.2232 28.4975 26.4771 28.046 24.923 27.1875C24.6219 27.0212 24.2728 26.9634 23.9342 27.0238C23.5956 27.0842 23.288 27.2592 23.063 27.5194L12.5818 39.6581C12.0146 40.197 11.2593 40.4929 10.4771 40.4829C9.69477 40.4729 8.94735 40.1577 8.39414 39.6045C7.84094 39.0513 7.52573 38.3039 7.51571 37.5216C7.50569 36.7393 7.80167 35.984 8.34053 35.4169L20.4699 24.9375C20.7305 24.7124 20.9058 24.4045 20.9662 24.0654C21.0267 23.7264 20.9686 23.3769 20.8018 23.0756C19.8456 21.3462 19.3968 19.382 19.5071 17.4089C19.6175 15.4359 20.2823 13.534 21.4253 11.9219C22.5683 10.3098 24.1431 9.05303 25.9685 8.29601C27.7939 7.53899 29.7959 7.31246 31.7443 7.64248L25.8943 13.9819C25.7315 14.1584 25.6135 14.3715 25.5502 14.6032C25.4869 14.8348 25.4802 15.0783 25.5305 15.3131L26.5918 20.25C26.6525 20.5323 26.7934 20.7912 26.9976 20.9954C27.2018 21.1996 27.4607 21.3405 27.743 21.4012L32.6837 22.4625C32.9185 22.5128 33.1619 22.5061 33.3936 22.4428C33.6253 22.3795 33.8383 22.2615 34.0149 22.0987L40.3543 16.2487C40.607 17.7544 40.5287 19.297 40.1249 20.7693C39.721 22.2416 39.0012 23.6083 38.0157 24.7743C37.0301 25.9402 35.8024 26.8775 34.4179 27.5209C33.0334 28.1643 31.5254 28.4984 29.9987 28.5Z" fill="white"/>
</g>
</svg>
