<svg width="50" height="50" viewBox="0 0 50 50" fill="none" xmlns="http://www.w3.org/2000/svg">
<path d="M44.2898 13.4764C44.195 13.2422 44.0448 13.0344 43.8521 12.8709C43.6594 12.7074 43.4299 12.5931 43.1833 12.5378C42.9367 12.4825 42.6804 12.4878 42.4363 12.5533C42.1923 12.6189 41.9677 12.7426 41.782 12.9139L33.9109 20.1776L30.5456 19.4549L29.823 16.0897L37.0867 8.2186C37.258 8.03284 37.3817 7.8083 37.4472 7.56423C37.5127 7.32016 37.518 7.06384 37.4627 6.81725C37.4074 6.57067 37.2931 6.34118 37.1297 6.14847C36.9662 5.95576 36.7584 5.80557 36.5242 5.71079C34.3893 4.84718 32.0749 4.52111 29.7845 4.76121C27.4941 5.00132 25.2978 5.80026 23.3884 7.08784C21.479 8.37542 19.9151 10.1122 18.834 12.1457C17.7529 14.1791 17.1878 16.4469 17.1882 18.7499C17.1857 20.6945 17.5846 22.6188 18.3601 24.4022L6.60032 34.5702C6.57103 34.5936 6.54368 34.6209 6.51634 34.6463C5.3441 35.8186 4.68555 37.4085 4.68555 39.0663C4.68555 39.8871 4.84723 40.6999 5.16135 41.4583C5.47548 42.2167 5.93591 42.9057 6.51634 43.4862C7.09677 44.0666 7.78584 44.527 8.54422 44.8412C9.30259 45.1553 10.1154 45.317 10.9363 45.317C12.5941 45.317 14.1839 44.6584 15.3562 43.4862C15.3816 43.4608 15.4089 43.4315 15.4324 43.4041L25.5984 31.6405C27.7398 32.5805 30.0819 32.9716 32.4126 32.7784C34.7434 32.5851 36.9891 31.8137 38.9465 30.5338C40.9039 29.2539 42.5112 27.5061 43.6229 25.4485C44.7346 23.3909 45.3156 21.0886 45.3132 18.7499C45.3163 16.9424 44.9687 15.1515 44.2898 13.4764ZM31.2507 29.6874C29.4012 29.6848 27.5825 29.2145 25.9636 28.3202C25.65 28.1469 25.2863 28.0867 24.9336 28.1496C24.5808 28.2126 24.2605 28.3948 24.0261 28.6659L13.1081 41.3104C12.5173 41.8717 11.7306 42.18 10.9157 42.1696C10.1008 42.1591 9.32227 41.8308 8.74602 41.2546C8.16976 40.6783 7.84141 39.8997 7.83098 39.0848C7.82055 38.27 8.12885 37.4832 8.69017 36.8924L21.3249 25.9764C21.5964 25.7419 21.779 25.4212 21.8419 25.068C21.9049 24.7149 21.8444 24.3508 21.6706 24.037C20.6746 22.2355 20.2072 20.1895 20.3221 18.1342C20.437 16.0789 21.1295 14.0977 22.3202 12.4185C23.5108 10.7393 25.1511 9.43011 27.0526 8.64155C28.9541 7.85298 31.0395 7.61702 33.0691 7.96079L26.9753 14.5643C26.8058 14.7482 26.6829 14.9702 26.6169 15.2115C26.551 15.4528 26.544 15.7064 26.5964 15.951L27.7019 21.0936C27.7651 21.3877 27.9119 21.6573 28.1246 21.8701C28.3374 22.0828 28.607 22.2296 28.9011 22.2928L34.0476 23.3983C34.2922 23.4508 34.5458 23.4437 34.7871 23.3778C35.0284 23.3118 35.2504 23.1889 35.4343 23.0194L42.0378 16.9256C42.3011 18.494 42.2195 20.1009 41.7988 21.6346C41.3781 23.1682 40.6284 24.5918 39.6018 25.8064C38.5752 27.021 37.2963 27.9973 35.8541 28.6675C34.4119 29.3377 32.841 29.6857 31.2507 29.6874Z" fill="white"/>
</svg>
