<svg width="50" height="50" viewBox="0 0 50 50" fill="none" xmlns="http://www.w3.org/2000/svg">
<path d="M40.625 6.25H35.9375V4.6875C35.9375 4.2731 35.7729 3.87567 35.4799 3.58265C35.1868 3.28962 34.7894 3.125 34.375 3.125C33.9606 3.125 33.5632 3.28962 33.2701 3.58265C32.9771 3.87567 32.8125 4.2731 32.8125 4.6875V6.25H17.1875V4.6875C17.1875 4.2731 17.0229 3.87567 16.7299 3.58265C16.4368 3.28962 16.0394 3.125 15.625 3.125C15.2106 3.125 14.8132 3.28962 14.5201 3.58265C14.2271 3.87567 14.0625 4.2731 14.0625 4.6875V6.25H9.375C8.5462 6.25 7.75134 6.57924 7.16529 7.16529C6.57924 7.75134 6.25 8.5462 6.25 9.375V40.625C6.25 41.4538 6.57924 42.2487 7.16529 42.8347C7.75134 43.4208 8.5462 43.75 9.375 43.75H40.625C41.4538 43.75 42.2487 43.4208 42.8347 42.8347C43.4208 42.2487 43.75 41.4538 43.75 40.625V9.375C43.75 8.5462 43.4208 7.75134 42.8347 7.16529C42.2487 6.57924 41.4538 6.25 40.625 6.25ZM14.0625 9.375V10.9375C14.0625 11.3519 14.2271 11.7493 14.5201 12.0424C14.8132 12.3354 15.2106 12.5 15.625 12.5C16.0394 12.5 16.4368 12.3354 16.7299 12.0424C17.0229 11.7493 17.1875 11.3519 17.1875 10.9375V9.375H32.8125V10.9375C32.8125 11.3519 32.9771 11.7493 33.2701 12.0424C33.5632 12.3354 33.9606 12.5 34.375 12.5C34.7894 12.5 35.1868 12.3354 35.4799 12.0424C35.7729 11.7493 35.9375 11.3519 35.9375 10.9375V9.375H40.625V15.625H9.375V9.375H14.0625ZM40.625 40.625H9.375V18.75H40.625V40.625ZM33.1367 23.8945C33.282 24.0396 33.3972 24.212 33.4759 24.4017C33.5545 24.5913 33.595 24.7947 33.595 25C33.595 25.2053 33.5545 25.4087 33.4759 25.5983C33.3972 25.788 33.282 25.9604 33.1367 26.1055L23.7617 35.4805C23.6166 35.6257 23.4443 35.741 23.2546 35.8196C23.0649 35.8983 22.8616 35.9387 22.6562 35.9387C22.4509 35.9387 22.2476 35.8983 22.0579 35.8196C21.8682 35.741 21.6959 35.6257 21.5508 35.4805L16.8633 30.793C16.5701 30.4998 16.4054 30.1021 16.4054 29.6875C16.4054 29.2729 16.5701 28.8752 16.8633 28.582C17.1565 28.2888 17.5541 28.1241 17.9688 28.1241C18.3834 28.1241 18.781 28.2888 19.0742 28.582L22.6562 32.166L30.9258 23.8945C31.0709 23.7493 31.2432 23.634 31.4329 23.5554C31.6226 23.4767 31.8259 23.4363 32.0312 23.4363C32.2366 23.4363 32.4399 23.4767 32.6296 23.5554C32.8193 23.634 32.9916 23.7493 33.1367 23.8945Z" fill="white"/>
</svg>
