<svg width="50" height="50" viewBox="0 0 50 50" fill="none" xmlns="http://www.w3.org/2000/svg">
<path d="M27.3438 25C27.3438 25.4635 27.2063 25.9167 26.9488 26.3021C26.6912 26.6875 26.3252 26.9879 25.8969 27.1653C25.4686 27.3427 24.9974 27.3891 24.5428 27.2987C24.0881 27.2083 23.6705 26.985 23.3427 26.6572C23.0149 26.3295 22.7917 25.9119 22.7013 25.4572C22.6108 25.0026 22.6573 24.5313 22.8347 24.1031C23.0121 23.6748 23.3125 23.3087 23.6979 23.0512C24.0833 22.7937 24.5364 22.6562 25 22.6562C25.6216 22.6562 26.2177 22.9031 26.6573 23.3427C27.0968 23.7822 27.3438 24.3784 27.3438 25ZM16.4062 22.6562C15.9427 22.6562 15.4896 22.7937 15.1041 23.0512C14.7187 23.3087 14.4183 23.6748 14.2409 24.1031C14.0635 24.5313 14.0171 25.0026 14.1075 25.4572C14.198 25.9119 14.4212 26.3295 14.749 26.6572C15.0767 26.985 15.4944 27.2083 15.949 27.2987C16.4036 27.3891 16.8749 27.3427 17.3032 27.1653C17.7314 26.9879 18.0975 26.6875 18.355 26.3021C18.6125 25.9167 18.75 25.4635 18.75 25C18.75 24.3784 18.5031 23.7822 18.0635 23.3427C17.624 22.9031 17.0279 22.6562 16.4062 22.6562ZM33.5938 22.6562C33.1302 22.6562 32.6771 22.7937 32.2916 23.0512C31.9062 23.3087 31.6058 23.6748 31.4284 24.1031C31.251 24.5313 31.2046 25.0026 31.295 25.4572C31.3855 25.9119 31.6087 26.3295 31.9365 26.6572C32.2642 26.985 32.6819 27.2083 33.1365 27.2987C33.5912 27.3891 34.0624 27.3427 34.4907 27.1653C34.9189 26.9879 35.285 26.6875 35.5425 26.3021C35.8 25.9167 35.9375 25.4635 35.9375 25C35.9375 24.3784 35.6906 23.7822 35.251 23.3427C34.8115 22.9031 34.2154 22.6562 33.5938 22.6562ZM45.3125 25C45.3133 28.5069 44.4061 31.9542 42.6792 35.0065C40.9524 38.0588 38.4647 40.612 35.4584 42.4176C32.4521 44.2232 29.0294 45.2197 25.5237 45.3102C22.018 45.4006 18.5485 44.5818 15.4531 42.9336L8.80273 45.1504C8.25212 45.334 7.66125 45.3606 7.09634 45.2273C6.53143 45.094 6.01482 44.806 5.6044 44.3956C5.19397 43.9851 4.90597 43.4685 4.77265 42.9036C4.63934 42.3387 4.66599 41.7478 4.84961 41.1972L7.06641 34.5468C5.61748 31.8227 4.8082 28.8042 4.69999 25.7206C4.59179 22.637 5.18751 19.5692 6.44193 16.7502C7.69635 13.9312 9.57651 11.435 11.9397 9.45112C14.3029 7.46723 17.0869 6.04778 20.0806 5.30051C23.0743 4.55324 26.1988 4.49779 29.2171 5.13838C32.2354 5.77897 35.0681 7.09876 37.5002 8.99757C39.9322 10.8964 41.8998 13.3243 43.2534 16.097C44.6071 18.8698 45.3112 21.9144 45.3125 25ZM42.1875 25C42.1868 22.3635 41.5795 19.7625 40.4127 17.3983C39.2459 15.0341 37.5508 12.97 35.4586 11.3657C33.3664 9.76136 30.9332 8.65988 28.3472 8.14643C25.7612 7.63298 23.0918 7.72133 20.5454 8.40465C17.999 9.08797 15.6439 10.3479 13.6624 12.0871C11.6809 13.8262 10.126 15.9979 9.11809 18.4341C8.11016 20.8703 7.67621 23.5057 7.84979 26.1365C8.02338 28.7672 8.79985 31.3228 10.1191 33.6054C10.2299 33.7971 10.2986 34.01 10.3208 34.2303C10.3431 34.4505 10.3183 34.6729 10.248 34.8828L7.8125 42.1875L15.1172 39.7519C15.2763 39.6977 15.4432 39.67 15.6113 39.6699C15.8857 39.6704 16.1552 39.7431 16.3926 39.8808C19.0055 41.3926 21.9704 42.1895 24.9891 42.1914C28.0079 42.1933 30.9738 41.4001 33.5886 39.8917C36.2034 38.3832 38.3748 36.2127 39.8843 33.5985C41.3938 30.9843 42.1882 28.0187 42.1875 25Z" fill="white"/>
</svg>
