<svg width="29" height="28" viewBox="0 0 29 28" fill="none" xmlns="http://www.w3.org/2000/svg">
<path d="M14.5 2.625C11.4832 2.625 8.58989 3.82343 6.45666 5.95666C4.32343 8.08989 3.125 10.9832 3.125 14C3.125 17.0168 4.32343 19.9101 6.45666 22.0433C8.58989 24.1766 11.4832 25.375 14.5 25.375C16.8527 25.375 19.3234 24.6663 21.1095 23.4795C21.2053 23.4159 21.2875 23.334 21.3516 23.2386C21.4157 23.1432 21.4604 23.0361 21.4831 22.9234C21.5058 22.8107 21.5061 22.6947 21.4839 22.5819C21.4618 22.4691 21.4176 22.3617 21.354 22.266C21.2904 22.1703 21.2085 22.088 21.1131 22.0239C21.0177 21.9598 20.9105 21.9152 20.7979 21.8925C20.6852 21.8698 20.5691 21.8695 20.4563 21.8916C20.3435 21.9138 20.2362 21.9579 20.1405 22.0216C18.6563 23.0103 16.4917 23.625 14.5 23.625C12.5964 23.625 10.7355 23.0605 9.15264 22.0029C7.56981 20.9453 6.33615 19.4421 5.60766 17.6833C4.87917 15.9246 4.68856 13.9893 5.05994 12.1223C5.43132 10.2552 6.34802 8.54018 7.6941 7.1941C9.04018 5.84802 10.7552 4.93132 12.6223 4.55994C14.4893 4.18856 16.4246 4.37917 18.1833 5.10766C19.9421 5.83615 21.4453 7.06981 22.5029 8.65264C23.5605 10.2355 24.125 12.0964 24.125 14C24.125 16.893 22.935 17.5 21.9375 17.5C20.94 17.5 19.75 16.893 19.75 14V9.625C19.75 9.39294 19.6578 9.17038 19.4937 9.00628C19.3296 8.84219 19.1071 8.75 18.875 8.75C18.6429 8.75 18.4204 8.84219 18.2563 9.00628C18.0922 9.17038 18 9.39294 18 9.625V10.0909C17.2148 9.38692 16.2357 8.93571 15.1904 8.79609C14.1451 8.65647 13.0819 8.8349 12.1394 9.30816C11.197 9.78141 10.4189 10.5275 9.90652 11.4493C9.39417 12.3711 9.17131 13.4259 9.26698 14.4761C9.36265 15.5264 9.77241 16.5235 10.4429 17.3376C11.1134 18.1516 12.0135 18.7449 13.0259 19.04C14.0384 19.3352 15.1163 19.3186 16.1192 18.9924C17.1221 18.6662 18.0035 18.0456 18.6486 17.2113C19.3048 18.5238 20.4369 19.25 21.9375 19.25C24.4028 19.25 25.875 17.2878 25.875 14C25.8718 10.9841 24.6724 8.09271 22.5398 5.96018C20.4073 3.82764 17.5159 2.62818 14.5 2.625ZM14.5 17.5C13.8078 17.5 13.1311 17.2947 12.5555 16.9101C11.9799 16.5256 11.5313 15.9789 11.2664 15.3394C11.0015 14.6999 10.9322 13.9961 11.0673 13.3172C11.2023 12.6383 11.5356 12.0146 12.0251 11.5251C12.5146 11.0356 13.1383 10.7023 13.8172 10.5673C14.4961 10.4322 15.1999 10.5015 15.8394 10.7664C16.4789 11.0313 17.0256 11.4799 17.4101 12.0555C17.7947 12.6311 18 13.3078 18 14C18 14.9283 17.6313 15.8185 16.9749 16.4749C16.3185 17.1313 15.4283 17.5 14.5 17.5Z" fill="black"/>
</svg>
