<svg width="50" height="50" viewBox="0 0 50 50" fill="none" xmlns="http://www.w3.org/2000/svg">
<path d="M34.1066 15.8927C33.5869 13.0941 32.3127 10.4906 30.4214 8.36333C28.5302 6.23606 26.0937 4.66583 23.3752 3.82218C20.6566 2.97853 17.7593 2.89353 14.996 3.57634C12.2326 4.25915 9.70833 5.68384 7.6956 7.69657C5.68286 9.70931 4.25818 12.2336 3.57536 14.9969C2.89255 17.7603 2.97756 20.6576 3.8212 23.3762C4.66485 26.0947 6.23508 28.5311 8.36236 30.4224C10.4896 32.3137 13.0931 33.5879 15.8917 34.1076C16.4114 36.9062 17.6856 39.5097 19.5769 41.6369C21.4681 43.7642 23.9046 45.3344 26.6231 46.1781C29.3417 47.0217 32.239 47.1067 35.0023 46.4239C37.7657 45.7411 40.29 44.3164 42.3027 42.3037C44.3154 40.291 45.7401 37.7666 46.4229 35.0033C47.1058 32.24 47.0208 29.3426 46.1771 26.6241C45.3335 23.9056 43.7632 21.4691 41.6359 19.5778C39.5087 17.6866 36.9052 16.4123 34.1066 15.8927ZM19.6652 26.5626L23.4367 30.3341C21.9483 30.9404 20.3563 31.2515 18.7492 31.2501C18.7478 29.643 19.0589 28.051 19.6652 26.5626ZM26.257 28.7365L21.2628 23.7423C21.9698 22.8049 22.804 21.9707 23.7413 21.2638L28.7355 26.2579C28.0286 27.1953 27.1943 28.0295 26.257 28.7365ZM30.3331 23.4376L26.5617 19.6661C28.05 19.0599 29.6421 18.7488 31.2492 18.7501C31.2505 20.3572 30.9394 21.9493 30.3331 23.4376ZM6.24915 18.7501C6.24316 15.7034 7.3501 12.7594 9.36195 10.4714C11.3738 8.18337 14.152 6.70891 17.1745 6.3251C20.1969 5.9413 23.2555 6.67458 25.7754 8.38714C28.2952 10.0997 30.1028 12.6736 30.8585 15.6251C26.8522 15.7304 23.0392 17.3695 20.2063 20.2043C17.3733 23.0391 15.7366 26.8531 15.6339 30.8595C12.9497 30.1649 10.5719 28.5991 8.87346 26.4076C7.17502 24.216 6.252 21.5228 6.24915 18.7501ZM31.2492 43.7501C28.4778 43.7478 25.7855 42.8262 23.5942 41.1297C21.4028 39.4331 19.8362 37.0575 19.1398 34.3751C23.1478 34.2723 26.9632 32.6343 29.7983 29.7992C32.6333 26.9642 34.2713 23.1488 34.3742 19.1408C37.3257 19.8964 39.8996 21.7041 41.6121 24.2239C43.3247 26.7438 44.058 29.8024 43.6742 32.8248C43.2904 35.8473 41.8159 38.6255 39.5279 40.6373C37.2399 42.6492 34.2959 43.7561 31.2492 43.7501Z" fill="white"/>
</svg>
