<svg width="29" height="28" viewBox="0 0 29 28" fill="none" xmlns="http://www.w3.org/2000/svg">
<path d="M24.125 2.625H4.875C4.41087 2.625 3.96575 2.80937 3.63756 3.13756C3.30937 3.46575 3.125 3.91087 3.125 4.375V23.625C3.125 24.0891 3.30937 24.5342 3.63756 24.8624C3.96575 25.1906 4.41087 25.375 4.875 25.375H24.125C24.5891 25.375 25.0342 25.1906 25.3624 24.8624C25.6906 24.5342 25.875 24.0891 25.875 23.625V4.375C25.875 3.91087 25.6906 3.46575 25.3624 3.13756C25.0342 2.80937 24.5891 2.625 24.125 2.625ZM24.125 23.625H4.875V4.375H24.125V23.625ZM11 12.25V19.25C11 19.4821 10.9078 19.7046 10.7437 19.8687C10.5796 20.0328 10.3571 20.125 10.125 20.125C9.89294 20.125 9.67038 20.0328 9.50628 19.8687C9.34219 19.7046 9.25 19.4821 9.25 19.25V12.25C9.25 12.0179 9.34219 11.7954 9.50628 11.6313C9.67038 11.4672 9.89294 11.375 10.125 11.375C10.3571 11.375 10.5796 11.4672 10.7437 11.6313C10.9078 11.7954 11 12.0179 11 12.25ZM20.625 15.3125V19.25C20.625 19.4821 20.5328 19.7046 20.3687 19.8687C20.2046 20.0328 19.9821 20.125 19.75 20.125C19.5179 20.125 19.2954 20.0328 19.1313 19.8687C18.9672 19.7046 18.875 19.4821 18.875 19.25V15.3125C18.875 14.7323 18.6445 14.1759 18.2343 13.7657C17.8241 13.3555 17.2677 13.125 16.6875 13.125C16.1073 13.125 15.5509 13.3555 15.1407 13.7657C14.7305 14.1759 14.5 14.7323 14.5 15.3125V19.25C14.5 19.4821 14.4078 19.7046 14.2437 19.8687C14.0796 20.0328 13.8571 20.125 13.625 20.125C13.3929 20.125 13.1704 20.0328 13.0063 19.8687C12.8422 19.7046 12.75 19.4821 12.75 19.25V12.25C12.7511 12.0357 12.8308 11.8292 12.974 11.6697C13.1172 11.5103 13.314 11.4089 13.527 11.3849C13.74 11.3609 13.9543 11.4159 14.1295 11.5395C14.3046 11.6631 14.4283 11.8466 14.477 12.0553C15.069 11.6538 15.7591 11.421 16.4733 11.3821C17.1875 11.3432 17.8988 11.4996 18.5309 11.8344C19.1629 12.1693 19.6918 12.67 20.0607 13.2828C20.4297 13.8955 20.6248 14.5972 20.625 15.3125ZM11.4375 9.1875C11.4375 9.44709 11.3605 9.70085 11.2163 9.91669C11.0721 10.1325 10.8671 10.3008 10.6273 10.4001C10.3874 10.4994 10.1235 10.5254 9.86894 10.4748C9.61434 10.4241 9.38048 10.2991 9.19692 10.1156C9.01337 9.93202 8.88836 9.69816 8.83772 9.44356C8.78708 9.18896 8.81307 8.92506 8.91241 8.68523C9.01175 8.4454 9.17998 8.24042 9.39581 8.0962C9.61165 7.95198 9.86541 7.875 10.125 7.875C10.4731 7.875 10.8069 8.01328 11.0531 8.25942C11.2992 8.50556 11.4375 8.8394 11.4375 9.1875Z" fill="black"/>
</svg>
