<svg width="50" height="50" viewBox="0 0 50 50" fill="none" xmlns="http://www.w3.org/2000/svg">
<path d="M34.3743 31.25C34.3742 33.3613 33.763 35.4274 32.6146 37.199C31.4661 38.9706 29.8295 40.3719 27.9022 41.2339C25.9749 42.0958 23.8393 42.3816 21.7532 42.0566C19.667 41.7316 17.7196 40.8097 16.1458 39.4023C15.9851 39.2679 15.8531 39.1025 15.7576 38.916C15.6621 38.7295 15.6051 38.5257 15.59 38.3167C15.5749 38.1077 15.602 37.8978 15.6696 37.6995C15.7372 37.5012 15.8441 37.3186 15.9837 37.1624C16.1234 37.0062 16.2931 36.8797 16.4826 36.7904C16.6722 36.7011 16.8777 36.6509 17.0871 36.6427C17.2965 36.6344 17.5053 36.6684 17.7013 36.7425C17.8973 36.8167 18.0763 36.9295 18.2278 37.0742C19.1718 37.9182 20.3068 38.52 21.535 38.828C22.7632 39.1359 24.0478 39.1407 25.2783 38.8419C26.5088 38.5431 27.6482 37.9497 28.5984 37.1129C29.5487 36.276 30.2813 35.2206 30.7331 34.0378C31.1849 32.8549 31.3425 31.5799 31.1922 30.3227C31.0419 29.0654 30.5882 27.8635 29.8703 26.8205C29.1524 25.7774 28.1917 24.9245 27.071 24.3352C25.9502 23.7459 24.703 23.4378 23.4368 23.4375C23.1466 23.4375 22.8622 23.3567 22.6154 23.2041C22.3685 23.0516 22.169 22.8333 22.0393 22.5738C21.9095 22.3142 21.8546 22.0237 21.8806 21.7347C21.9067 21.4457 22.0127 21.1696 22.1868 20.9375L29.6868 10.9375H17.1868C16.7724 10.9375 16.375 10.7729 16.082 10.4799C15.7889 10.1868 15.6243 9.7894 15.6243 9.375C15.6243 8.9606 15.7889 8.56317 16.082 8.27015C16.375 7.97712 16.7724 7.8125 17.1868 7.8125H32.8118C33.102 7.8125 33.3864 7.8933 33.6333 8.04586C33.8801 8.19841 34.0796 8.41669 34.2094 8.67623C34.3391 8.93577 34.3941 9.22632 34.368 9.51532C34.3419 9.80432 34.2359 10.0804 34.0618 10.3125L26.2806 20.6875C28.6018 21.3159 30.6518 22.6905 32.1145 24.5994C33.5772 26.5082 34.3713 28.8452 34.3743 31.25Z" fill="white"/>
</svg>
