<svg width="50" height="50" viewBox="0 0 50 50" fill="none" xmlns="http://www.w3.org/2000/svg">
<path d="M48.4374 18.1016C48.4387 17.691 48.3584 17.2843 48.2012 16.9051C48.0439 16.5259 47.8129 16.1817 47.5214 15.8926L34.1074 2.47658C33.8172 2.18632 33.4726 1.95607 33.0934 1.79898C32.7143 1.64189 32.3078 1.56104 31.8974 1.56104C31.487 1.56104 31.0805 1.64189 30.7013 1.79898C30.3222 1.95607 29.9776 2.18632 29.6874 2.47658L24.1347 8.02931L12.8066 12.2813C12.2917 12.4733 11.8364 12.7971 11.4861 13.2205C11.1357 13.6438 10.9028 14.1517 10.8105 14.6934L6.27142 41.9297C6.23396 42.1536 6.24574 42.383 6.30593 42.6018C6.36612 42.8207 6.47328 43.0238 6.61995 43.1971C6.76662 43.3703 6.94928 43.5096 7.15522 43.605C7.36116 43.7005 7.58543 43.75 7.81243 43.75C7.8988 43.7497 7.98501 43.7425 8.07024 43.7285L35.3046 39.1895C35.8456 39.0992 36.3534 38.8681 36.7768 38.5194C37.2002 38.1708 37.5244 37.7168 37.7167 37.2031L41.9687 25.875L47.5214 20.3125C47.813 20.0231 48.0442 19.6786 48.2014 19.299C48.3587 18.9195 48.4389 18.5124 48.4374 18.1016ZM34.791 36.1074L12.3671 39.8438L21.6191 30.5918C22.7746 31.2163 24.1164 31.4041 25.399 31.1207C26.6816 30.8373 27.8193 30.1018 28.6042 29.0486C29.3891 27.9953 29.7687 26.6948 29.6736 25.3847C29.5785 24.0746 29.015 22.8425 28.0862 21.9137C27.1574 20.9849 25.9253 20.4215 24.6152 20.3263C23.3052 20.2312 22.0046 20.6108 20.9514 21.3957C19.8981 22.1806 19.1626 23.3184 18.8792 24.601C18.5959 25.8836 18.7836 27.2253 19.4081 28.3809L10.1562 37.6367L13.8925 15.207L24.6093 11.1895L38.8085 25.3906L34.791 36.1074ZM21.8749 25.7813C21.8749 25.3177 22.0124 24.8646 22.2699 24.4791C22.5275 24.0937 22.8935 23.7933 23.3218 23.6159C23.75 23.4385 24.2213 23.3921 24.6759 23.4826C25.1306 23.573 25.5482 23.7962 25.876 24.124C26.2037 24.4518 26.427 24.8694 26.5174 25.324C26.6078 25.7787 26.5614 26.2499 26.384 26.6782C26.2066 27.1064 25.9062 27.4725 25.5208 27.73C25.1354 27.9876 24.6822 28.125 24.2187 28.125C23.5971 28.125 23.0009 27.8781 22.5614 27.4385C22.1219 26.999 21.8749 26.4029 21.8749 25.7813ZM40.6249 22.7891L27.2089 9.37502L31.8964 4.68752L45.3124 18.1016L40.6249 22.7891Z" fill="white"/>
</svg>
