<svg width="50" height="50" viewBox="0 0 50 50" fill="none" xmlns="http://www.w3.org/2000/svg">
<path d="M21.9551 20.0254C21.8902 19.8307 21.8642 19.6252 21.8788 19.4205C21.8933 19.2158 21.948 19.016 22.0398 18.8324C22.1316 18.6489 22.2586 18.4852 22.4137 18.3507C22.5687 18.2163 22.7487 18.1137 22.9434 18.0488L25.2871 17.2676C25.522 17.1893 25.7721 17.1679 26.0169 17.2053C26.2617 17.2426 26.494 17.3376 26.6949 17.4823C26.8957 17.6271 27.0593 17.8176 27.1721 18.038C27.2849 18.2584 27.3438 18.5024 27.3438 18.75V26.5625C27.3438 26.9769 27.1791 27.3743 26.8861 27.6674C26.5931 27.9604 26.1957 28.125 25.7812 28.125C25.3668 28.125 24.9694 27.9604 24.6764 27.6674C24.3834 27.3743 24.2188 26.9769 24.2188 26.5625V20.918L23.9316 21.0137C23.737 21.0786 23.5314 21.1045 23.3267 21.09C23.122 21.0754 22.9222 21.0207 22.7387 20.9289C22.5551 20.8372 22.3914 20.7101 22.257 20.5551C22.1225 20.4001 22.02 20.2201 21.9551 20.0254ZM48.4375 40.625C48.4375 41.0394 48.2729 41.4368 47.9799 41.7299C47.6868 42.0229 47.2894 42.1875 46.875 42.1875H3.125C2.7106 42.1875 2.31317 42.0229 2.02015 41.7299C1.72712 41.4368 1.5625 41.0394 1.5625 40.625C1.5625 40.2106 1.72712 39.8132 2.02015 39.5201C2.31317 39.2271 2.7106 39.0625 3.125 39.0625H4.6875V20.3125C4.6875 19.4837 5.01674 18.6888 5.60279 18.1028C6.18884 17.5167 6.9837 17.1875 7.8125 17.1875H15.625V10.9375C15.625 10.1087 15.9542 9.31384 16.5403 8.72779C17.1263 8.14174 17.9212 7.8125 18.75 7.8125H31.25C32.0788 7.8125 32.8737 8.14174 33.4597 8.72779C34.0458 9.31384 34.375 10.1087 34.375 10.9375V25H42.1875C43.0163 25 43.8112 25.3292 44.3972 25.9153C44.9833 26.5013 45.3125 27.2962 45.3125 28.125V39.0625H46.875C47.2894 39.0625 47.6868 39.2271 47.9799 39.5201C48.2729 39.8132 48.4375 40.2106 48.4375 40.625ZM34.375 28.125V39.0625H42.1875V28.125H34.375ZM18.75 39.0625H31.25V10.9375H18.75V39.0625ZM7.8125 39.0625H15.625V20.3125H7.8125V39.0625Z" fill="white"/>
</svg>
