<svg width="50" height="50" viewBox="0 0 50 50" fill="none" xmlns="http://www.w3.org/2000/svg">
<path d="M48.4129 5.97453C48.3396 5.56698 48.1076 5.20518 47.7677 4.9686C47.4279 4.73203 47.008 4.64002 46.6004 4.71281L2.85037 12.5253C2.46712 12.5952 2.12381 12.8058 1.88778 13.1158C1.65175 13.4257 1.54002 13.8127 1.57449 14.2007C1.60897 14.5888 1.78717 14.9499 2.07415 15.2134C2.36113 15.4769 2.73618 15.6236 3.12576 15.6249C3.2187 15.6248 3.31147 15.617 3.40311 15.6015L23.4383 12.0214V18.7499H12.5008C10.8432 18.7499 9.25345 19.4084 8.08134 20.5805C6.90924 21.7526 6.25076 23.3423 6.25076 24.9999V37.4999C6.25076 39.1575 6.90924 40.7472 8.08134 41.9193C9.25345 43.0914 10.8432 43.7499 12.5008 43.7499H37.5008C39.1584 43.7499 40.7481 43.0914 41.9202 41.9193C43.0923 40.7472 43.7508 39.1575 43.7508 37.4999V24.9999C43.7508 23.3423 43.0923 21.7526 41.9202 20.5805C40.7481 19.4084 39.1584 18.7499 37.5008 18.7499H26.5633V11.4648L47.1492 7.78898C47.3514 7.75294 47.5445 7.6774 47.7174 7.56668C47.8904 7.45596 48.0398 7.31223 48.1572 7.14371C48.2745 6.97519 48.3575 6.78519 48.4014 6.58457C48.4453 6.38396 48.4492 6.17666 48.4129 5.97453ZM20.3133 31.2499V21.8749H29.6883V31.2499H20.3133ZM12.5008 21.8749H17.1883V31.2499H9.37576V24.9999C9.37576 24.1711 9.705 23.3763 10.2911 22.7902C10.8771 22.2042 11.672 21.8749 12.5008 21.8749ZM37.5008 40.6249H12.5008C11.672 40.6249 10.8771 40.2957 10.2911 39.7096C9.705 39.1236 9.37576 38.3287 9.37576 37.4999V34.3749H40.6258V37.4999C40.6258 38.3287 40.2965 39.1236 39.7105 39.7096C39.1244 40.2957 38.3296 40.6249 37.5008 40.6249ZM40.6258 24.9999V31.2499H32.8133V21.8749H37.5008C38.3296 21.8749 39.1244 22.2042 39.7105 22.7902C40.2965 23.3763 40.6258 24.1711 40.6258 24.9999Z" fill="white"/>
</svg>
