<svg width="50" height="50" viewBox="0 0 50 50" fill="none" xmlns="http://www.w3.org/2000/svg">
<path d="M38.7715 10.9551C36.4141 6.91406 33.1875 4.6875 29.6875 4.6875H20.3125C16.8125 4.6875 13.5859 6.91406 11.2285 10.9551C9.02539 14.7305 7.8125 19.7266 7.8125 25C7.8125 30.2734 9.02539 35.2695 11.2285 39.0449C13.5859 43.0859 16.8125 45.3125 20.3125 45.3125H29.6875C33.1875 45.3125 36.4141 43.0859 38.7715 39.0449C40.9746 35.2695 42.1875 30.2734 42.1875 25C42.1875 19.7266 40.9746 14.7305 38.7715 10.9551ZM39.0215 23.4375H32.7715C32.6494 20.2312 32.011 17.0655 30.8809 14.0625H36.8555C38.0508 16.6758 38.8398 19.9219 39.0215 23.4375ZM34.998 10.9375H29.3867C28.7341 9.80531 27.9471 8.75605 27.043 7.8125H29.6875C31.6406 7.8125 33.4766 8.98438 34.998 10.9375ZM10.9375 25C10.9375 15.6836 15.2344 7.8125 20.3125 7.8125C25.3906 7.8125 29.6875 15.6836 29.6875 25C29.6875 34.3164 25.3906 42.1875 20.3125 42.1875C15.2344 42.1875 10.9375 34.3164 10.9375 25ZM29.6875 42.1875H27.0488C27.953 41.2439 28.7399 40.1947 29.3926 39.0625H35.0039C33.4766 41.0156 31.6406 42.1875 29.6875 42.1875ZM36.8555 35.9375H30.8828C32.013 32.9345 32.6514 29.7688 32.7734 26.5625H39.0234C38.8398 30.0781 38.0508 33.3242 36.8555 35.9375Z" fill="white"/>
</svg>
