<svg width="50" height="50" viewBox="0 0 50 50" fill="none" xmlns="http://www.w3.org/2000/svg">
<path d="M34.3744 21.875H29.6869C29.2725 21.875 28.875 21.7104 28.582 21.4174C28.289 21.1243 28.1244 20.7269 28.1244 20.3125C28.1244 19.8981 28.289 19.5007 28.582 19.2076C28.875 18.9146 29.2725 18.75 29.6869 18.75H34.3744C34.7888 18.75 35.1862 18.9146 35.4792 19.2076C35.7722 19.5007 35.9369 19.8981 35.9369 20.3125C35.9369 20.7269 35.7722 21.1243 35.4792 21.4174C35.1862 21.7104 34.7888 21.875 34.3744 21.875ZM20.3119 18.75H18.7494V17.1875C18.7494 16.7731 18.5847 16.3757 18.2917 16.0826C17.9987 15.7896 17.6013 15.625 17.1869 15.625C16.7725 15.625 16.375 15.7896 16.082 16.0826C15.789 16.3757 15.6244 16.7731 15.6244 17.1875V18.75H14.0619C13.6475 18.75 13.25 18.9146 12.957 19.2076C12.664 19.5007 12.4994 19.8981 12.4994 20.3125C12.4994 20.7269 12.664 21.1243 12.957 21.4174C13.25 21.7104 13.6475 21.875 14.0619 21.875H15.6244V23.4375C15.6244 23.8519 15.789 24.2493 16.082 24.5424C16.375 24.8354 16.7725 25 17.1869 25C17.6013 25 17.9987 24.8354 18.2917 24.5424C18.5847 24.2493 18.7494 23.8519 18.7494 23.4375V21.875H20.3119C20.7263 21.875 21.1237 21.7104 21.4167 21.4174C21.7097 21.1243 21.8744 20.7269 21.8744 20.3125C21.8744 19.8981 21.7097 19.5007 21.4167 19.2076C21.1237 18.9146 20.7263 18.75 20.3119 18.75ZM47.1634 39.1895C46.5745 40.0304 45.8087 40.7321 44.9196 41.2454C44.0306 41.7587 43.0399 42.0711 42.0172 42.1607C40.9945 42.2502 39.9646 42.1147 38.9999 41.7637C38.0352 41.4127 37.159 40.8547 36.4329 40.1289C36.4095 40.1055 36.3861 40.082 36.3646 40.0566L28.6087 31.25H21.3822L13.6341 40.0566L13.5658 40.1289C12.2458 41.446 10.4577 42.1862 8.5931 42.1875C7.56662 42.1871 6.55266 41.962 5.62246 41.5279C4.69226 41.0939 3.86839 40.4614 3.2087 39.675C2.54902 38.8885 2.06953 37.9672 1.80392 36.9756C1.53831 35.9841 1.49302 34.9464 1.67123 33.9355C1.67029 33.9265 1.67029 33.9173 1.67123 33.9082L4.86849 17.4844C5.34433 14.7755 6.75962 12.321 8.86567 10.5522C10.9717 8.78332 13.6338 7.81328 16.3841 7.8125H33.5931C36.3351 7.81687 38.989 8.78137 41.0941 10.5385C43.1991 12.2957 44.6223 14.7345 45.1165 17.4316C45.1165 17.4434 45.1165 17.4551 45.1165 17.4668L48.3138 33.9063C48.3147 33.9153 48.3147 33.9245 48.3138 33.9336C48.4793 34.8422 48.4628 35.7746 48.2653 36.6768C48.0679 37.579 47.6933 38.433 47.1634 39.1895ZM33.5931 28.125C35.8723 28.125 38.0582 27.2196 39.6698 25.608C41.2814 23.9963 42.1869 21.8105 42.1869 19.5312C42.1869 17.252 41.2814 15.0662 39.6698 13.4546C38.0582 11.8429 35.8723 10.9375 33.5931 10.9375H16.3841C14.3664 10.9393 12.414 11.6526 10.8704 12.9519C9.32675 14.2512 8.29075 16.0532 7.94467 18.041V18.0664L4.74545 34.4902C4.60404 35.3045 4.72451 36.1426 5.08954 36.884C5.45458 37.6255 6.04536 38.232 6.77692 38.6165C7.50848 39.0009 8.34313 39.1435 9.16081 39.0236C9.9785 38.9037 10.7371 38.5275 11.3275 37.9492L19.515 28.6543C19.6616 28.488 19.8419 28.3548 20.0439 28.2635C20.246 28.1723 20.4651 28.125 20.6869 28.125H33.5931ZM45.2533 34.4902L43.5462 25.7012C42.4964 27.3965 41.0312 28.7959 39.2895 29.7668C37.5478 30.7378 35.5872 31.2483 33.5931 31.25H32.7728L38.6712 37.9512C39.1159 38.3837 39.6569 38.7047 40.2497 38.8877C40.8425 39.0707 41.4702 39.1105 42.0814 39.0039C43.0995 38.8242 44.0049 38.2482 44.5991 37.4021C45.1933 36.5561 45.4278 35.5089 45.2513 34.4902H45.2533Z" fill="white"/>
</svg>
