<svg width="50" height="50" viewBox="0 0 50 50" fill="none" xmlns="http://www.w3.org/2000/svg">
<path d="M25 4.6875C20.9826 4.6875 17.0554 5.87881 13.715 8.11077C10.3746 10.3427 7.77111 13.5151 6.23371 17.2267C4.6963 20.9384 4.29405 25.0225 5.07781 28.9628C5.86157 32.903 7.79615 36.5224 10.6369 39.3631C13.4777 42.2039 17.097 44.1384 21.0372 44.9222C24.9775 45.706 29.0616 45.3037 32.7733 43.7663C36.4849 42.2289 39.6573 39.6254 41.8892 36.285C44.1212 32.9446 45.3125 29.0174 45.3125 25C45.3068 19.6145 43.1649 14.4513 39.3568 10.6432C35.5487 6.83507 30.3855 4.69319 25 4.6875ZM25 42.1875C21.6006 42.1875 18.2776 41.1795 15.4511 39.2909C12.6247 37.4023 10.4217 34.718 9.12083 31.5774C7.81995 28.4368 7.47958 24.9809 8.14276 21.6469C8.80595 18.3128 10.4429 15.2503 12.8466 12.8466C15.2503 10.4429 18.3128 8.80594 21.6469 8.14275C24.9809 7.47957 28.4368 7.81994 31.5774 9.12082C34.718 10.4217 37.4023 12.6247 39.2909 15.4511C41.1795 18.2776 42.1875 21.6006 42.1875 25C42.1823 29.5568 40.3699 33.9255 37.1477 37.1477C33.9255 40.3699 29.5568 42.1823 25 42.1875ZM27.3438 15.625V34.375C27.3438 34.7894 27.1791 35.1868 26.8861 35.4799C26.5931 35.7729 26.1957 35.9375 25.7813 35.9375C25.3669 35.9375 24.9694 35.7729 24.6764 35.4799C24.3834 35.1868 24.2188 34.7894 24.2188 34.375V18.5547L21.9609 20.0605C21.7901 20.1744 21.5985 20.2535 21.3971 20.2934C21.1957 20.3332 20.9885 20.333 20.7872 20.2928C20.5858 20.2525 20.3944 20.173 20.2239 20.0587C20.0533 19.9445 19.9069 19.7978 19.793 19.627C19.6791 19.4561 19.6 19.2646 19.5601 19.0632C19.5203 18.8618 19.5205 18.6545 19.5608 18.4532C19.601 18.2519 19.6806 18.0604 19.7948 17.8899C19.909 17.7193 20.0557 17.5729 20.2266 17.459L24.9141 14.334C25.1488 14.1774 25.4214 14.0873 25.7032 14.0732C25.985 14.0591 26.2653 14.1215 26.5144 14.2539C26.7636 14.3863 26.9722 14.5837 27.1182 14.8251C27.2643 15.0665 27.3422 15.3429 27.3438 15.625Z" fill="white"/>
</svg>
