<?xml version="1.0" encoding="UTF-8"?>
<svg id="Layer_2" data-name="Layer 2" xmlns="http://www.w3.org/2000/svg" viewBox="0 0 114.25 100.09">
  <g id="Layer_1-2" data-name="Layer 1">
    <g>
      <path d="M99.46,75.19c.45.34.83.53,1.08.83.7.83.56,2.01-.36,2.68-.5.37-1.11.59-1.76.93.87.79,1.12,1.74.63,2.85-.46,1.06-1.35,1.52-2.38,1.86-.02.09-.08.2-.04.26.63,1.22-.23,2.17-1.16,2.72-.38.22-.81.35-1.22.52-.81.35-1.64.4-2.55.07,0,.6.09,1.14-.02,1.64-.22.98-.9,1.66-1.73,2.17-.39.24-.68.51-.88.95-.63,1.36-2.35,2.03-3.7,1.34-.84-.43-1.42-.29-2.16.19-1.06.69-2.22.93-3.33.01-.07-.06-.17-.09-.25-.12-.11-.05-.23-.09-.38-.14-.11.12-.29.24-.29.35-.01.79-.71,1.18-1.02,1.79-.16.32-.83.51-1.18.34-.45-.22-.9-.46-1.31-.75-.56-.4-1.09-.86-1.67-1.33-.81,1.15-1.52,2.3-1.89,3.65-.15.56-.49,1.1-.85,1.57-.51.67-1.44.71-2.1.03-.61-.64-1.37-1.23-1.51-2.22-.03-.24-.24-.45-.46-.82-.26.48-.44.77-.59,1.08-.26.56-.7.91-1.25,1.1-.84.29-1.29.07-2.11-1.03-.3.25-.62.5-.91.76-1.06.98-2.45.67-2.98-.68-.11-.29-.17-.6-.27-.94-.58.13-1,.44-1.41.79-.34.28-.69.56-1.07.77-.58.31-1.24.15-1.57-.42-.42-.72-.85-1.45-.97-2.32-.13-.91-.29-.99-1.09-.53-.67.39-1.34.66-2.15.51-.66-.12-.97-.43-1.18-1.12-.1-.33-.34-.65-.6-.89-.59-.55-1.19-1.07-.85-2.1-.31.03-.51.04-.71.08-.98.17-1.69-.38-1.74-1.36-.03-.53,0-1.07,0-1.65-.94-.26-1.8-.61-2.13-1.5-.63.38-1.19.78-1.8,1.07-.47.23-.97.21-1.41-.2-.45-.42-.42-.88-.25-1.39.34-1.01.61-2.05,1.36-2.89-.42-.26-.78-.48-1.21-.74-.56.39-1.17.47-1.89.12-.27-.13-.72.09-1.08.17-.43.1-.84.29-1.27.35-.6.09-1.07-.2-1.11-.77-.04-.53-.17-1.08.1-1.62.27-.55.42-1.16.67-1.88-.8.22-1.34.02-1.62-.65-.11-.26-.21-.55-.21-.82.03-.81.01-1.63.35-2.42.23-.54.51-1.1.22-1.87-.41.16-.83.26-1.19.47-.63.37-1.29.52-2,.39-.64-.11-.77-.25-.88-.91-.17-1.04-.05-1.91.45-3.06-.34-.23-.61,0-.84.16-.7.49-1.42.39-2.05-.02-.6-.39-.74-1.07-.69-1.78.04-.47.1-.95.12-1.42.02-.41,0-.83,0-1.28-.54.38-1.03.73-1.53,1.07-.34.24-.64.1-.97-.07-.46-.24-.67-.6-.58-1.07.18-.92.39-1.83.62-2.74.18-.7.4-1.39.64-2.06.15-.41.36-.8.55-1.2.13-.28.29-.55.38-.84.12-.38.28-.79.25-1.17-.03-.37-.28-.72-.46-1.12h-1.1c-.45.42-.89.83-1.33,1.24-.29.27-.62.36-.93.07-.31-.28-.28-.58-.01-.92.16-.2.2-.5.17-.84-.29.26-.55.56-.87.79-1.34.95-2.71,1.86-4.04,2.82-.58.42-1.19.68-1.9.78-1.22.17-2.04-.58-1.91-1.8.03-.31.06-.64.17-.92.65-1.58,1.32-3.15,2-4.71.32-.72.69-1.42,1.03-2.13.12-.25.21-.52.29-.72-.37-.72-.86-.9-1.53-.59-.49.22-.97.46-1.48.63-.59.19-1.23.49-1.81.42-1.3-.16-1.79-.95-1.93-1.89-.19-1.35.06-2.65.31-3.95.18-.96.46-1.89.68-2.84.03-.14-.02-.3-.05-.54-.66.13-1.29.17-1.86.39-1.61.63-3.32.72-4.97,1.14-1.03.26-1.72-.31-2.34-1.06-.03-.84.27-1.57.72-2.29.68-1.1,1.25-2.26,1.86-3.4.06-.11.13-.24.13-.35-.01-1.11.74-1.83,1.29-2.67.6-.92,1.08-1.92,1.61-2.88.18-.33.37-.64.6-1.03-.27-.19-.48-.44-.73-.49-1.38-.3-2.62-1.1-4.11-1.01-.74.04-1.52.01-2.22-.38-.18-.1-.43-.09-.64-.13-.63-.09-1.07-.48-1.19-1.04-.1-.47.17-1.15.62-1.4.96-.53,1.94-1.02,2.9-1.54,1.16-.62,2.33-1.24,3.48-1.88,1.13-.63,2.21-1.35,3.38-1.9,1.05-.5,2.18-.83,3.28-1.23,1.36-.49,2.75-.9,3.98-1.69.17-.11.42-.11.63-.15.25-.04.51-.02.74-.1.56-.19,1.12-.21,1.67,0,.5.18.95.15,1.44-.16.49-.31,1.09-.62,1.59.06,1.42.15,2.11,1.41,3.16,2.13.32.22.71.39.7.93,0,.3.34.37.66.4.29.03.61.14.85.31.89.65,1.73,1.36,2.62,2.01,1.52,1.1,3.04,2.2,4.22,3.69.79,1,1.63,1.96,2.42,2.96.26.33.54.66.39,1.19-.06.23.19.57.36.81.07.09.34.03.62.05-.15-.27-.28-.44-.36-.64-.2-.5-.11-.83.39-1.11.51-.29,1.05-.58,1.62-.73.84-.23,1.72-.33,2.58-.49.15-.03.32-.03.46-.08,1.69-.64,3.48-.55,5.24-.73,1.54-.16,3.07-.35,4.6-.54.21-.03.44-.13.59-.26.55-.46,1.23-.51,1.8-.29,1.14.45,2.26.14,3.38.08.77-.04,1.54-.33,2.3-.51.06-.01.13-.08.18-.06,1.14.35,2.13-.46,3.24-.42.24,0,.5-.08.74-.16.99-.35,1.99-.51,3.06-.51.74,0,1.46-.35,2.21-.5.86-.16,1.73-.26,2.6-.4.62-.1,1.24-.21,1.86-.34,1.42-.3,2.83-.65,4.26-.91.85-.15,1.46-.68,1.8-1.33.75-1.43,1.89-2.53,2.87-3.76.47-.59,1.06-1.08,1.56-1.65.25-.28.4-.63.63-.92.76-.97,1.55-1.92,2.31-2.89.27-.34.49-.73.75-1.08.43-.59.89-1.15,1.3-1.75.39-.57.78-1.13.86-1.87.04-.33.3-.69.57-.92.36-.3.57-.63.73-1.07.26-.71.59-1.39.92-2.08.28-.6.57-1.2.89-1.78.61-1.1,1.22-1.56,2.24-1.34.29.06.58.22.83.39.78.54,1.54,1.1,2.57,1.06.21,0,.42.13.63.18.48.11.97.25,1.46.28.99.07,1.87.4,2.54,1.12.93,1,.38,2.02-.48,2.62-.31.21-.66.36-.93.51-.05.15-.07.2-.08.27-.11.94.32,1.49,1.16,1.92,1.21.61,2.37,1.32,3.49,2.08.47.32.93.82,1.12,1.34.37.99-.26,1.99-1.37,2.43-.49.2-1.06.3-1.22.95,1.24.61,2.47,1.22,3.7,1.83.73.37,1.45.78,1.94,1.47.52.73.47,1.32-.17,1.95-.65.64-1.3,1.28-1.97,1.9-.18.17-.44.24-.64.39-.16.11-.3.27-.51.47.41.24.72.47,1.07.59.34.11.59.26.86.52.26.25.6.53,1.11.38.21-.06.59.17.78.36.73.73.5,2.02-.41,2.48-.09.05-.25.1-.26.16-.08.6-.66.61-1.01.87-.38.28-.83.48-1.15.81-.4.42-.86.66-1.4.85-.51.18-.99.46-1.42.87.57.14,1.16.23,1.71.42.72.24.95.69.85,1.45-.09.64-.28.89-.96.94-.88.07-1.77.04-2.65.05-.15,0-.31,0-.5,0,0,.49,0,.95,0,1.41,0,.09,0,.23.05.27.57.47.42,1.17.62,1.79-.75.97-1.92,1.23-3.06,1.6.1.34.21.63.27.93.14.73-.09,1.05-.83,1.31-.19.07-.36.23-.52.37-.35.32-.65.7-1.03.97-.43.29-.42.57-.16.94.17.23.3.49.47.71.56.72.45,1.46.04,2.19-.26.46-.56.9-.92,1.47.26.29.58.67.92,1.02.9.95.79,1.94-.3,2.69-.16.11-.31.22-.46.33-.05.04-.08.09-.09.1.23.58.51,1.13.65,1.7.15.6-.27,1.1-.56,1.54-.62.91-.75,1.82-.21,2.75.54.94.45,1.79-.1,2.66-.07.1-.1.23-.18.44.46.16.9.31,1.41.48-.02.29,0,.6-.05.9-.25,1.46-.53,2.91-.79,4.37-.14.81-.25,1.62-.39,2.42-.11.64-.21,1.29-.36,1.92-.14.61-.21,1.18.05,1.81.22.55-.2,1.02-.63,1.38-.29.24-.61.44-.99.71ZM62.99,32.95c-.12.72-.27,1.33-.31,1.94-.04.56-.05,1.15.07,1.69.31,1.4.43,2.8.38,4.24-.02.76.03,1.53.38,2.28.5,1.08.43,2.18-.3,3.2-.45.63-.31,1.19.32,1.6.26.18.56.31.79.52.54.48.95,1.09.66,1.82-.3.74-.9,1.3-1.67,1.57-.72.26-.8.25-.64.94.21.92-.03,1.65-.68,2.32-.3.31-.52.73-.67,1.13-.66,1.81-1.28,3.63-1.92,5.45-.26.75-.47,1.53-.84,2.21-.28.52-.45,1.01-.55,1.58-.21,1.21-.57,2.34-1.94,2.81-.28.1-.55.54-.62.87-.13.65-.48,1.13-.98,1.44-.63.39-.77.88-.57,1.53.06.21.13.43.16.65.29,1.8.1,2.5-1.46,3.4-.34.2-.62.25-.97.09-.35-.17-.72-.31-1.11-.48-.04.22-.08.31-.07.4.17,1.86-.66,2.96-2.48,3.29-.35.06-.6-.04-.85-.29-.15-.14-.4-.18-.67-.29.03,1.21-.45,2.08-1.1,2.89-.35.44-.71.9-.79,1.57.62-.26,1.23-.52,1.7-.08.38.36.56.93.9,1.52.64-.08,1.13.36,1.65.95.67.76-.24,1.44.03,2.16.25.01.47,0,.68.04.96.13,1.39.62,1.4,1.6,0,.32-.07.64-.03.95.04.26.13.6.31.73.55.4.84.9.86,1.63.44-.07.82-.09,1.18-.19.58-.16,1.16-.41,1.61.24.85-.07.89.62,1.09,1.16.07.21.13.42.2.63.27.71.59.77,1.14.22.77-.77,2.32-.91,3.22-.26.32.23.61.52.9.78.45-.41.85-.82,1.3-1.15.86-.64,1.67-.43,2.18.53.05.1.13.19.21.3.65-.35-.19-.66.02-.97.32-.43.62-.87,1-1.25.99-.97,2.25-.73,2.86.51.08.17.09.38.19.54.24.38.32.89.83,1.12.59-.94,1.22-1.81,1.71-2.76.33-.65.79-.95,1.47-1,.63-.05,1.24-.14,1.82.3.51.39,1.1.68,1.67,1.03.72-.84,1.32-1.56,2.42-1.72,1.14-.17,1.93.42,2.78,1.02,1.42-1.47,3.03-1.63,4.72-.68.17-.21.29-.32.37-.45.4-.67.9-1.22,1.68-1.46.09-.03.17-.08.24-.14.74-.61,1.48-1.22,2.27-1.87-.46-.86-.11-1.56.65-2.08-.21-1.08,0-1.58.86-2.14.76-.49,1.53-.99,2.4-1.55-.32-.24-.54-.39-.75-.57-.48-.41-.69-1.11-.47-1.63.29-.69.75-1.22,1.45-1.56.49-.24.95-.55,1.45-.84-.14-.16-.19-.23-.26-.3-1.04-.98-.98-2.18.18-3.03.38-.28.8-.48,1.15-.69-.21-.98-.44-1.9-.6-2.83-.09-.53-.07-1.07-.13-1.6-.14-1.22-.29-2.45-.47-3.66-.26-1.8-.58-3.58-2.03-4.89-.29-.27-.53-.6-.38-1.01.28-.76-.18-1.33-.38-1.99-.22-.71-.51-1.34-.96-1.91-.13-.17-.27-.42-.24-.6.09-.56-.24-.91-.58-1.22-.34-.32-.5-.66-.39-1.1.1-.41,0-.71-.24-1.05-.19-.26-.34-.66-.28-.95.09-.44-.07-.74-.28-1.05-.21-.32-.47-.61-.63-.94-.59-1.24-1.18-2.49-1.7-3.76-.32-.78-.87-1.4-1.45-1.94-.86-.81-1.86-1.49-2.8-2.22-.51-.39-.69-.89-.48-1.48.07-.21.18-.4.31-.69-.37-.29-.74-.57-1.1-.86-.46-.37-.93-.72-1.36-1.12-.12-.11-.13-.34-.16-.52-.04-.25-.04-.5-.05-.76-.93-.52-1.87-.99-2.74-1.54-.28-.18-.45-.57-.59-.89-.1-.22-.07-.49-.1-.72-.38-.22-.71-.52-1.1-.62-1.27-.31-1.77-1.11-1.65-2.39-.55-.27-1.13-.46-1.37-1.11-.06-.16-.49-.27-.73-.24-.81.09-1.61.27-2.42.4-2.72.42-5.43.84-8.15,1.26-.11.02-.22.08-.44.16.27.25.48.43.68.61,1.16,1.09,1.83,2.01.22,3.3ZM52.15,48.72c-.03-.35-.07-.69-.09-1.04-.1-1.38-.86-2.19-2.16-2.55-.27-.08-.54-.17-.8-.29-1.42-.65-2.73.22-3.43,1.23-.63.93-.68,2.09-.59,3.13.07.79.65,1.55,1.06,2.28.33.58.98.98,1.58.92.99-.1,2.05.13,2.96-.48.03-.02.05-.04.07-.06.73-.92,1.6-1.79,1.41-3.14ZM36.19,76.5c.54-.12.95-.21,1.34-.29-.03-.46-.09-.89-.07-1.32.02-.53-.28-.61-.72-.64-.18.73-.35,1.42-.55,2.26ZM58.18,31.58c.03-1.05-.34-1.31-1.86-1.43-.03.21-.07.43-.12.74.93-.49,1.49-.08,1.97.69ZM29.01,63.76c.2.78.38,1.49.57,2.24.52-.55.19-1.26.37-1.72-.35-.19-.62-.34-.94-.52ZM94.19,12.13c.03-.68-.24-1-.65-1.16-.37-.15-.55.13-.72.54.43.2.85.39,1.37.62ZM19.49,19.07c-.77-.04-1.46.12-2.19.78.96-.02,1.6-.32,2.19-.78ZM84.37,23.19l.16-.19c-.08-.37-.16-.75-.28-1.27-.25.36-.41.59-.63.9.27.2.5.38.74.56ZM99.1,65.63c.47-.82.43-.9-.33-.94.12.34.23.64.33.94ZM14.63,37.62c-.05-.05-.1-.11-.15-.16-.42.34-.84.68-1.26,1.02.72.05,1-.5,1.41-.86ZM109.26,26.81c.42-.2.7-.33.99-.47,0-.06-.01-.12-.02-.18-.27-.09-.55-.18-.91-.3-.02.33-.03.56-.05.95ZM33,29.3c.4.12.77.29.84-.17.06-.41-.3-.45-.66-.44-.06.2-.11.37-.18.61ZM9.1,26.33s-.05-.1-.07-.15l-.7.29c.03.07.06.13.1.2.23-.12.45-.23.68-.35ZM99.49,58.87c-.05-.02-.11-.03-.16-.05-.05.1-.14.2-.13.29.01.1.11.2.29.49v-.73ZM45.2,37.05l-.03-.28c-.17.05-.33.09-.5.14.01.06.03.13.04.19.16-.02.32-.03.49-.05ZM12.05,27.85s-.06-.09-.09-.14c-.18.1-.36.2-.54.3.04.06.07.12.11.18.17-.11.35-.23.52-.34ZM88.63,16.94c-.21.07-.42.14-.7.24.42.38.57.04.7-.24ZM37.22,73.57c.09-.02.18-.03.27-.05.05-.1.18-.26.15-.3-.09-.12-.23-.21-.37-.28-.02-.01-.19.15-.19.23,0,.13.09.27.14.4ZM107.33,28c.16-.13.24-.2.33-.27-.11-.1-.2-.21-.32-.28-.03-.02-.19.1-.18.14.02.12.1.24.18.42ZM88.77,16.43l.2.21c.16-.16.32-.32.49-.48-.06-.06-.11-.12-.17-.18-.17.15-.35.3-.52.45ZM31.95,67.21c-.06-.03-.12-.06-.18-.09-.1.15-.19.31-.29.46l.17.1c.1-.16.2-.32.3-.48ZM38.75,72.81c-.1-.07-.17-.16-.23-.15-.06,0-.15.12-.15.17,0,.06.11.14.17.15.06,0,.12-.09.21-.17ZM17.43,57.47l.16.09c.06-.13.12-.26.16-.4,0-.01-.09-.06-.14-.09-.06.14-.12.27-.18.41ZM88.62,32.81l-.12.19c.14.05.27.11.41.16.02-.04.04-.08.06-.12-.12-.08-.23-.15-.35-.23ZM15.68,20.58s-.02-.08-.03-.12c-.06-.01-.15-.05-.17-.03-.06.06-.09.15-.13.23.11-.02.22-.05.32-.07Z" fill="#fff" stroke-width="0"/>
      <path d="M62.99,32.95c1.61-1.29.95-2.21-.22-3.3-.2-.19-.4-.36-.68-.61.22-.08.33-.14.44-.16,2.72-.42,5.43-.84,8.15-1.26.81-.13,1.61-.31,2.42-.4.24-.03.67.09.73.24.25.65.82.84,1.37,1.11-.12,1.28.38,2.08,1.65,2.39.38.09.71.39,1.1.62.03.24,0,.51.1.72.15.33.32.72.59.89.88.56,1.81,1.03,2.74,1.54.02.27.02.52.05.76.03.18.04.42.16.52.43.4.9.75,1.36,1.12.36.29.73.57,1.1.86-.13.29-.24.48-.31.69-.2.59-.03,1.08.48,1.48.94.73,1.94,1.4,2.8,2.22.58.54,1.12,1.16,1.45,1.94.53,1.27,1.11,2.52,1.7,3.76.16.34.43.63.63.94.21.32.37.61.28,1.05-.06.29.09.69.28.95.25.34.35.64.24,1.05-.11.44.04.78.39,1.1.34.31.66.66.58,1.22-.03.19.11.44.24.6.45.58.74,1.2.96,1.91.21.66.66,1.23.38,1.99-.15.41.09.74.38,1.01,1.45,1.31,1.76,3.09,2.03,4.89.18,1.22.33,2.44.47,3.66.06.53.04,1.08.13,1.6.16.93.39,1.84.6,2.83-.35.21-.77.41-1.15.69-1.15.85-1.21,2.05-.18,3.03.07.06.12.14.26.3-.5.29-.96.6-1.45.84-.69.34-1.16.87-1.45,1.56-.22.53-.01,1.23.47,1.63.21.18.43.33.75.57-.87.56-1.64,1.05-2.4,1.55-.86.56-1.07,1.06-.86,2.14-.76.52-1.1,1.22-.65,2.08-.79.65-1.52,1.26-2.27,1.87-.07.06-.16.11-.24.14-.78.24-1.27.79-1.68,1.46-.08.13-.2.24-.37.45-1.69-.95-3.29-.79-4.72.68-.85-.6-1.64-1.18-2.78-1.02-1.09.16-1.7.89-2.42,1.72-.57-.34-1.16-.63-1.67-1.03-.58-.44-1.19-.35-1.82-.3-.68.05-1.14.35-1.47,1-.49.95-1.12,1.82-1.71,2.76-.52-.24-.6-.74-.83-1.12-.1-.16-.11-.37-.19-.54-.61-1.24-1.87-1.48-2.86-.51-.38.37-.68.82-1,1.25-.21.32.62.63-.02.97-.08-.11-.16-.2-.21-.3-.51-.95-1.31-1.17-2.18-.53-.45.33-.85.75-1.3,1.15-.3-.26-.58-.54-.9-.78-.9-.65-2.44-.51-3.22.26-.56.55-.87.5-1.14-.22-.08-.21-.13-.42-.2-.63-.2-.54-.24-1.23-1.09-1.16-.46-.65-1.03-.4-1.61-.24-.36.1-.74.12-1.18.19-.02-.73-.31-1.23-.86-1.63-.19-.13-.28-.47-.31-.73-.04-.31.03-.63.03-.95,0-.98-.44-1.46-1.4-1.6-.21-.03-.43-.02-.68-.04-.26-.72.64-1.4-.03-2.16-.52-.59-1.01-1.03-1.65-.95-.34-.59-.52-1.16-.9-1.52-.46-.45-1.07-.18-1.7.08.08-.68.44-1.13.79-1.57.64-.81,1.12-1.68,1.1-2.89.27.11.52.15.67.29.25.25.5.35.85.29,1.82-.33,2.65-1.43,2.48-3.29,0-.09.03-.18.07-.4.39.17.76.31,1.11.48.35.17.62.11.97-.09,1.55-.89,1.75-1.6,1.46-3.4-.04-.22-.1-.43-.16-.65-.2-.66-.07-1.14.57-1.53.5-.31.85-.79.98-1.44.06-.33.34-.78.62-.87,1.37-.47,1.73-1.6,1.94-2.81.1-.57.27-1.07.55-1.58.37-.69.58-1.47.84-2.21.64-1.82,1.26-3.64,1.92-5.45.15-.41.37-.83.67-1.13.65-.67.9-1.4.68-2.32-.16-.7-.08-.69.64-.94.77-.27,1.37-.83,1.67-1.57.29-.73-.11-1.34-.66-1.82-.23-.21-.53-.35-.79-.52-.62-.41-.77-.97-.32-1.6.74-1.02.8-2.11.3-3.2-.34-.75-.4-1.52-.38-2.28.04-1.44-.07-2.84-.38-4.24-.12-.54-.11-1.13-.07-1.69.04-.62.19-1.23.31-1.94ZM71.72,75.08c.05.31.13.57.14.85.02.4-.03.81-.01,1.21.02.5.17,1.02.08,1.49-.12.71-.06,1.38.09,2.07.25,1.16-.08,2.21-1.77,2.4-.12.01-.24.07-.35.14-.92.55-1.96.43-2.96.54-.23.02-.5-.1-.71-.22-.83-.47-1.54-1.08-2.18-1.8-.66-.76-1.4-1.45-2.1-2.17-.3-.31-.56-.31-.88.03-.87.94-.84,2.11.08,3.03.24.24.44.52.62.81.37.59.64,1.25,1.27,1.62.66.38,1.35.69,1.99,1.1,1.64,1.05,3.42.75,5.11.4,1.36-.28,2.61-1.04,3.99-1.62.2.09.51.28.84.37,2.41.61,4.4-.33,6.21-1.79.8-.65,1.4-1.49,1.99-2.37.52-.78.79-1.58.97-2.42.11-.53.03-1.13-.12-1.66-.11-.4-.42-.77-.95-.81-1.02-.09-1.63.34-2.06,1.27-.63,1.34-1.13,2.79-2.38,3.74-.52.4-1.13.69-1.64,1.1-.59.47-1.18.5-1.91.26-.07-.66-.05-1.35-.23-1.97-.26-.9-.42-1.78-.41-2.73,0-.83-.25-1.67-.4-2.5-.1-.51.08-.77.54-1.05,1.45-.88,2.86-1.83,4.26-2.78.28-.19.51-.47.71-.75.58-.78,1.18-1.55,1.67-2.38.99-1.67,1.2-3.4.35-5.22-.43-.91-.73-1.88-1.16-2.79-.28-.59-.59-1.2-1.04-1.66-1.02-1.05-2.18-1.9-3.74-1.97-1.13-.05-2.27-.18-3.4-.18-.65,0-1.33.1-1.96.28-.97.28-1.88.76-2.85.99-1.2.28-2.14.97-3.05,1.69-.91.72-1.67,1.62-2.47,2.47-.23.24-.37.58-.5.9-.24.59-.48,1.18-.64,1.79-.3,1.09-.67,2.18-.28,3.34.53,1.6,1.31,3.04,2.58,4.18.16.15.3.32.46.48.28.28.53.64.87.83.77.42,1.58.76,2.38,1.12.2.09.43.13.64.15,1.07.08,2.12.35,3.21.13.32-.07.68.06,1.09.1ZM83.61,45.36c-.31-1.14-.68-2.22-1.49-3.06-.31-.32-.79-.57-1.23-.66-2.03-.43-3.73,1.06-3.59,3.14.05.72.15,1.46.78,1.98.69.58,1.42,1.05,2.38,1.01.28-.01.56.09.84.11.69.05,1.4-.13,1.76-.68.34-.52.39-1.23.56-1.84Z" stroke-width="0"/>
      <path d="M52.15,48.72c.19,1.35-.67,2.21-1.41,3.14-.02.02-.04.05-.07.06-.91.61-1.97.38-2.96.48-.6.06-1.24-.33-1.58-.92-.42-.73-.99-1.49-1.06-2.28-.09-1.04-.05-2.2.59-3.13.69-1.01,2.01-1.88,3.43-1.23.26.12.53.21.8.29,1.3.36,2.06,1.17,2.16,2.55.02.35.06.69.09,1.04ZM48.55,50.37c.15-.03.47-.05.77-.14,1.21-.38,1.65-1.19,1.06-2.51-.05-.12-.12-.22-.17-.34-.42-.86-1.21-1.05-2.05-1.12-.87-.08-1.21.57-1.53,1.18-.71,1.34.26,2.94,1.93,2.93Z" stroke-width="0"/>
      <path d="M36.19,76.5c.2-.84.37-1.52.55-2.26.44.03.74.11.72.64-.02.43.04.87.07,1.32-.39.08-.8.17-1.34.29Z" stroke-width="0"/>
      <path d="M58.18,31.58c-.48-.77-1.04-1.19-1.97-.69.05-.3.08-.52.12-.74,1.51.12,1.88.38,1.86,1.43Z" stroke-width="0"/>
      <path d="M29.01,63.76c.32.18.59.33.94.52-.18.46.14,1.16-.37,1.72-.19-.74-.37-1.46-.57-2.24Z" stroke-width="0"/>
      <path d="M94.19,12.13c-.52-.24-.94-.43-1.37-.62.17-.41.35-.69.72-.54.42.17.69.49.65,1.16Z" stroke-width="0"/>
      <path d="M19.49,19.07c-.59.46-1.23.76-2.19.78.72-.66,1.42-.82,2.19-.78Z" stroke-width="0"/>
      <path d="M84.37,23.19c-.24-.18-.47-.36-.74-.56.22-.31.37-.53.63-.9.12.52.2.89.28,1.27l-.16.19Z" stroke-width="0"/>
      <path d="M99.1,65.63c-.11-.3-.21-.61-.33-.94.76.04.8.12.33.94Z" stroke-width="0"/>
      <path d="M14.63,37.62c-.41.36-.68.91-1.41.86.42-.34.84-.68,1.26-1.02.05.05.1.11.15.16Z" stroke-width="0"/>
      <path d="M109.26,26.81c.02-.39.03-.62.05-.95.36.12.64.21.91.3,0,.06.01.12.02.18-.29.13-.57.27-.99.47Z" stroke-width="0"/>
      <path d="M33,29.3c.07-.24.12-.41.18-.61.36,0,.73.04.66.44-.07.45-.44.29-.84.17Z" stroke-width="0"/>
      <path d="M9.1,26.33c-.23.12-.45.23-.68.35-.03-.07-.06-.13-.1-.2l.7-.29s.05.1.07.15Z" stroke-width="0"/>
      <path d="M99.49,58.87v.73c-.18-.29-.28-.38-.29-.49,0-.09.08-.19.13-.29.05.02.11.03.16.05Z" stroke-width="0"/>
      <path d="M45.2,37.05c-.16.02-.32.03-.49.05-.01-.06-.03-.13-.04-.19.17-.05.33-.09.5-.14l.03.28Z" stroke-width="0"/>
      <path d="M12.05,27.85c-.17.11-.35.23-.52.34-.04-.06-.07-.12-.11-.18.18-.1.36-.2.54-.3.03.05.06.09.09.14Z" stroke-width="0"/>
      <path d="M88.63,16.94c-.14.27-.29.62-.7.24.29-.1.5-.17.7-.24Z" stroke-width="0"/>
      <path d="M37.22,73.57c-.05-.13-.14-.27-.14-.4,0-.08.16-.24.19-.23.14.07.28.16.37.28.03.04-.09.2-.15.3-.09.02-.18.03-.27.05Z" stroke-width="0"/>
      <path d="M107.33,28c-.08-.18-.15-.29-.18-.42,0-.03.16-.15.18-.14.12.07.22.18.32.28-.09.07-.18.14-.33.27Z" stroke-width="0"/>
      <path d="M88.77,16.43c.17-.15.35-.3.52-.45.06.06.11.12.17.18-.16.16-.32.32-.49.48l-.2-.21Z" stroke-width="0"/>
      <path d="M31.95,67.21c-.1.16-.2.32-.3.48l-.17-.1c.1-.15.19-.31.29-.46.06.03.12.06.18.09Z" stroke-width="0"/>
      <path d="M38.75,72.81c-.09.07-.15.17-.21.17-.06,0-.17-.09-.17-.15,0-.06.09-.17.15-.17.06,0,.13.08.23.15Z" stroke-width="0"/>
      <path d="M17.43,57.47c.06-.14.12-.27.18-.41.05.03.15.08.14.09-.05.14-.11.27-.16.4l-.16-.09Z" stroke-width="0"/>
      <path d="M88.62,32.81c.12.08.23.15.35.23-.02.04-.04.08-.06.12-.14-.05-.27-.11-.41-.16l.12-.19Z" stroke-width="0"/>
      <path d="M15.68,20.58c-.11.02-.22.05-.32.07.04-.08.07-.17.13-.23.02-.02.11.02.17.03,0,.04.02.08.03.12Z" stroke-width="0"/>
      <path d="M71.72,75.08c-.41-.04-.77-.17-1.09-.1-1.09.22-2.14-.05-3.21-.13-.22-.02-.45-.06-.64-.15-.8-.36-1.62-.7-2.38-1.12-.34-.19-.58-.55-.87-.83-.16-.16-.29-.33-.46-.48-1.28-1.14-2.05-2.58-2.58-4.18-.39-1.16-.02-2.25.28-3.34.17-.61.41-1.2.64-1.79.13-.32.27-.65.5-.9.8-.85,1.56-1.75,2.47-2.47.91-.72,1.85-1.41,3.05-1.69.97-.23,1.89-.71,2.85-.99.63-.18,1.3-.28,1.96-.28,1.13,0,2.27.13,3.4.18,1.56.07,2.72.92,3.74,1.97.45.46.76,1.07,1.04,1.66.43.91.73,1.88,1.16,2.79.86,1.82.65,3.56-.35,5.22-.5.83-1.1,1.6-1.67,2.38-.2.28-.43.56-.71.75-1.41.95-2.81,1.9-4.26,2.78-.46.28-.64.54-.54,1.05.16.83.41,1.67.4,2.5,0,.95.15,1.83.41,2.73.18.62.16,1.31.23,1.97.73.24,1.33.21,1.91-.26.51-.41,1.12-.7,1.64-1.1,1.25-.95,1.75-2.4,2.38-3.74.44-.93,1.04-1.36,2.06-1.27.53.05.84.41.95.81.15.53.23,1.13.12,1.66-.17.85-.45,1.65-.97,2.42-.59.88-1.19,1.72-1.99,2.37-1.8,1.46-3.8,2.4-6.21,1.79-.33-.08-.63-.28-.84-.37-1.38.58-2.64,1.34-3.99,1.62-1.68.35-3.47.65-5.11-.4-.64-.41-1.33-.72-1.99-1.1-.64-.37-.9-1.03-1.27-1.62-.18-.29-.38-.57-.62-.81-.92-.92-.95-2.09-.08-3.03.32-.34.58-.34.88-.03.71.72,1.44,1.41,2.1,2.17.63.73,1.35,1.33,2.18,1.8.21.12.48.24.71.22,1-.11,2.04.01,2.96-.54.11-.06.23-.12.35-.14,1.68-.19,2.02-1.24,1.77-2.4-.15-.68-.21-1.36-.09-2.07.08-.48-.07-.99-.08-1.49-.01-.4.03-.81.01-1.21-.01-.27-.09-.54-.14-.85ZM78.09,64.15c-.1-1.35-.41-2.6-1.34-3.58-.3-.32-.78-.5-1.21-.65-.16-.05-.51.13-.61.3-.1.16-.03.48.06.68.16.34.41.63.58.97.44.88.81,1.78.81,2.79,0,.5.3.75.75.82.37.06.74-.25.88-.71.06-.21.06-.44.09-.62Z" fill="#fff" stroke-width="0"/>
      <path d="M83.61,45.36c-.17.61-.22,1.31-.56,1.84-.36.56-1.07.73-1.76.68-.28-.02-.56-.12-.84-.11-.96.04-1.68-.43-2.38-1.01-.63-.52-.73-1.25-.78-1.98-.13-2.08,1.56-3.57,3.59-3.14.44.09.92.34,1.23.66.81.84,1.18,1.92,1.49,3.06Z" fill="#fff" stroke-width="0"/>
      <path d="M48.55,50.37c-1.67.01-2.64-1.59-1.93-2.93.32-.61.66-1.26,1.53-1.18.85.08,1.63.26,2.05,1.12.06.11.12.22.17.34.59,1.32.15,2.14-1.06,2.51-.3.09-.62.11-.77.14Z" stroke-width="0"/>
      <path d="M78.09,64.15c-.02.18-.03.41-.09.62-.13.46-.51.77-.88.71-.45-.07-.75-.32-.75-.82,0-1.01-.37-1.91-.81-2.79-.17-.34-.43-.63-.58-.97-.09-.2-.16-.52-.06-.68.1-.17.45-.36.61-.3.43.14.91.33,1.21.65.93.98,1.24,2.23,1.34,3.58Z" stroke-width="0"/>
    </g>
  </g>
</svg>