<?xml version="1.0" encoding="UTF-8"?>
<svg id="Layer_2" data-name="Layer 2" xmlns="http://www.w3.org/2000/svg" viewBox="0 0 144.57 205.24">
  <g id="Layer_1-2" data-name="Layer 1">
    <path d="M75.6,0c17.55,0,30.71,4.39,39.48,13.16,8.96,8.77,15.4,17.08,19.32,24.92.75,1.87,1.49,3.83,2.24,5.88.75,2.05,1.4,3.83,1.96,5.32.19.37.28.84.28,1.4s-.28,1.03-.84,1.4c-.37.37-.93.75-1.68,1.12-.75.19-1.59.56-2.52,1.12l-6.44,3.36c-6.53,3.55-11.11,5.88-13.72,7-4.11,2.43-7.47,4.57-10.08,6.44l-5.32,3.64c-1.12.93-2.89,2.15-5.32,3.64-.75.56-1.49.84-2.24.84-1.12.37-1.87.56-2.24.56-.93,0-1.77-.65-2.52-1.96-.56-1.31-1.12-2.33-1.68-3.08-.37-.56-1.12-1.68-2.24-3.36s-2.52-3.08-4.2-4.2c-1.49-1.31-3.27-1.96-5.32-1.96-5.6,0-9.99,4.39-13.16,13.16-3.17,8.59-4.76,17.64-4.76,27.16,0,8.77.19,15.87.56,21.28.56,5.23,2.05,10.08,4.48,14.56,2.61,4.48,6.81,6.72,12.6,6.72,7.47,0,12.69-4.67,15.68-14,1.31-3.92,1.96-8.59,1.96-14l-5.6-1.12c-4.48-.75-7.75-1.21-9.8-1.4-3.55-.37-5.32-1.68-5.32-3.92,0-1.31.75-4.95,2.24-10.92.93-2.99,1.87-4.76,2.8-5.32.93-.56,2.33-.75,4.2-.56.93.19,3.08.56,6.44,1.12,3.55.37,9.05.93,16.52,1.68l15.4,2.24c10.45,1.49,17.45,2.33,21,2.52,3.17.19,5.32,1.87,6.44,5.04.37,1.87.47,3.45.28,4.76-1.31,23.15-5.69,41.53-13.16,55.16-7.28,13.44-15.77,22.77-25.48,28-9.71,5.23-19.32,7.84-28.84,7.84-8.59,0-18.85-2.71-30.8-8.12-11.76-5.41-22.4-15.49-31.92-30.24C4.76,152.13,0,132.07,0,106.68c0-29.49,4.48-52.08,13.44-67.76,8.96-15.87,19.04-26.32,30.24-31.36C54.88,2.52,65.52,0,75.6,0Z" fill="#ecebeb" stroke-width="0"/>
  </g>
</svg>