<?xml version="1.0" encoding="utf-8"?>
<!-- Generator: Adobe Illustrator 28.1.0, SVG Export Plug-In . SVG Version: 6.00 Build 0)  -->
<svg version="1.1" id="Layer_1" xmlns="http://www.w3.org/2000/svg" xmlns:xlink="http://www.w3.org/1999/xlink" x="0px" y="0px"
	 viewBox="0 0 725 440" style="enable-background:new 0 0 725 440;" xml:space="preserve">
<style type="text/css">
	.st0{fill:url(#SVGID_1_);}
	.st1{fill-rule:evenodd;clip-rule:evenodd;fill:url(#SVGID_00000048494036890677147880000004285467492002803119_);}
	.st2{fill:url(#SVGID_00000070838122230869023050000003465333835234704283_);}
	.st3{fill-rule:evenodd;clip-rule:evenodd;fill:url(#SVGID_00000059269303249573472830000010233395219980071562_);}
	.st4{fill:#FFFFFF;filter:url(#Adobe_OpacityMaskFilter);}
	.st5{mask:url(#mask0_686_2452_00000173871858931231471460000009432360136766707333_);}
	.st6{fill:url(#SVGID_00000008865963785264534860000006018582300251599515_);}
	.st7{fill:url(#SVGID_00000124868026831715560930000017548325776283533702_);}
	.st8{fill:url(#SVGID_00000175313173786540971910000001007333969162906752_);}
	.st9{fill:url(#SVGID_00000043415941592475799480000002443673085633305506_);}
	.st10{filter:url(#Adobe_OpacityMaskFilter_00000035501881235742972240000007324239098029239954_);}
	.st11{mask:url(#mask1_686_2452_00000003807622318438792150000011326062529703450814_);}
	.st12{fill:#141311;}
	.st13{fill:url(#SVGID_00000072247604213683265230000014337557610684688830_);}
	.st14{fill-rule:evenodd;clip-rule:evenodd;fill:#232122;}
	.st15{fill:#78797D;}
	.st16{fill:#0F1316;}
	.st17{fill:#080905;}
	.st18{fill:#05111D;}
	.st19{fill:#0F3455;}
	.st20{fill:#0F3857;}
</style>
<linearGradient id="SVGID_1_" gradientUnits="userSpaceOnUse" x1="641.035" y1="3.9635" x2="689.347" y2="3.9635" gradientTransform="matrix(1 0 0 -1 0 442.315)">
	<stop  offset="0" style="stop-color:#8C8D91"/>
	<stop  offset="0.173" style="stop-color:#525358"/>
	<stop  offset="0.3182" style="stop-color:#78797D"/>
	<stop  offset="0.465" style="stop-color:#A0A0A2"/>
	<stop  offset="0.6915" style="stop-color:#9A9A9C"/>
	<stop  offset="0.8258" style="stop-color:#4F5055"/>
	<stop  offset="0.9413" style="stop-color:#9E9EA0"/>
	<stop  offset="1" style="stop-color:#848589"/>
</linearGradient>
<path class="st0" d="M687.5,438.2c1-0.2,1.6-1.1,1.8-1.5H641c0.2,0.4,0.9,1.3,1.8,1.5c0.1,0.6,0.5,1.8,1.5,1.8H686
	C687,440,687.4,438.8,687.5,438.2z"/>
<linearGradient id="SVGID_00000139263657367994911320000014288623716331902394_" gradientUnits="userSpaceOnUse" x1="642.883" y1="3.1395" x2="687.477" y2="3.1395" gradientTransform="matrix(1 0 0 -1 0 442.315)">
	<stop  offset="0" style="stop-color:#575757"/>
	<stop  offset="8.278461e-02" style="stop-color:#2D2D2D"/>
	<stop  offset="0.4905" style="stop-color:#4E4E4E"/>
	<stop  offset="0.8248" style="stop-color:#2A2A2A"/>
	<stop  offset="1" style="stop-color:#5C5C5C"/>
</linearGradient>
<path style="fill-rule:evenodd;clip-rule:evenodd;fill:url(#SVGID_00000139263657367994911320000014288623716331902394_);" d="
	M687.5,438.4L687.5,438.4l-44.6-0.1c0.1,0.6,0.6,1.6,1.5,1.6H686C686.9,440,687.3,439.1,687.5,438.4z"/>
<linearGradient id="SVGID_00000166662588144623024150000007043038462158636166_" gradientUnits="userSpaceOnUse" x1="35.2969" y1="3.9635" x2="83.6083" y2="3.9635" gradientTransform="matrix(1 0 0 -1 0 442.315)">
	<stop  offset="0" style="stop-color:#8C8D91"/>
	<stop  offset="0.173" style="stop-color:#525358"/>
	<stop  offset="0.3182" style="stop-color:#78797D"/>
	<stop  offset="0.465" style="stop-color:#A0A0A2"/>
	<stop  offset="0.6915" style="stop-color:#9A9A9C"/>
	<stop  offset="0.8258" style="stop-color:#4F5055"/>
	<stop  offset="0.9413" style="stop-color:#9E9EA0"/>
	<stop  offset="1" style="stop-color:#848589"/>
</linearGradient>
<path style="fill:url(#SVGID_00000166662588144623024150000007043038462158636166_);" d="M81.8,438.2c1-0.2,1.6-1.1,1.8-1.5H35.3
	c0.2,0.4,0.9,1.3,1.8,1.5c0.1,0.6,0.5,1.8,1.5,1.8h41.6C81.2,440,81.7,438.8,81.8,438.2z"/>
<linearGradient id="SVGID_00000078029227019746893320000018323999413179518886_" gradientUnits="userSpaceOnUse" x1="37.1484" y1="3.1395" x2="81.743" y2="3.1395" gradientTransform="matrix(1 0 0 -1 0 442.315)">
	<stop  offset="0" style="stop-color:#575757"/>
	<stop  offset="8.278461e-02" style="stop-color:#2D2D2D"/>
	<stop  offset="0.4905" style="stop-color:#4E4E4E"/>
	<stop  offset="0.8248" style="stop-color:#2A2A2A"/>
	<stop  offset="1" style="stop-color:#5C5C5C"/>
</linearGradient>
<path style="fill-rule:evenodd;clip-rule:evenodd;fill:url(#SVGID_00000078029227019746893320000018323999413179518886_);" d="
	M81.7,438.4L81.7,438.4l-44.6-0.1c0.1,0.6,0.6,1.6,1.5,1.6h41.6C81.1,440,81.6,439.1,81.7,438.4z"/>
<defs>
	<filter id="Adobe_OpacityMaskFilter" filterUnits="userSpaceOnUse" x="0" y="418.2" width="725" height="18.5">
		<feColorMatrix  type="matrix" values="1 0 0 0 0  0 1 0 0 0  0 0 1 0 0  0 0 0 1 0"/>
	</filter>
</defs>
<mask maskUnits="userSpaceOnUse" x="0" y="418.2" width="725" height="18.5" id="mask0_686_2452_00000173871858931231471460000009432360136766707333_">
	<path class="st4" d="M725,420.2v-2H0v2c0,5.8,0,8.7,1.6,10.9c1.4,1.9,3.6,3.5,6.3,4.5c3.1,1.1,7.1,1.1,15.1,1.1h679.2
		c8,0,12,0,15.1-1.1c2.7-1,4.9-2.6,6.3-4.5C725,428.9,725,426,725,420.2z"/>
</mask>
<g class="st5">
	
		<linearGradient id="SVGID_00000040543922850906809080000000950903268223762587_" gradientUnits="userSpaceOnUse" x1="362.4915" y1="24.075" x2="362.4915" y2="5.612" gradientTransform="matrix(1 0 0 -1 0 442.315)">
		<stop  offset="0" style="stop-color:#DADBDD"/>
		<stop  offset="0.2135" style="stop-color:#D6D7D9"/>
		<stop  offset="0.498" style="stop-color:#C7C8CA"/>
		<stop  offset="0.6259" style="stop-color:#949597"/>
		<stop  offset="0.7723" style="stop-color:#858688"/>
		<stop  offset="0.8802" style="stop-color:#D2D3D5"/>
		<stop  offset="1" style="stop-color:#999A9C"/>
	</linearGradient>
	<path style="fill:url(#SVGID_00000040543922850906809080000000950903268223762587_);" d="M725,420.2v-2H0v2c0,5.8,0,8.7,1.6,10.9
		c1.4,1.9,3.6,3.5,6.3,4.5c3.1,1.1,7.1,1.1,15.1,1.1h679.2c8,0,12,0,15.1-1.1c2.7-1,4.9-2.6,6.3-4.5C725,428.9,725,426,725,420.2z"
		/>
	
		<linearGradient id="SVGID_00000139263890357679254980000017348436259795547540_" gradientUnits="userSpaceOnUse" x1="724.9836" y1="14.8436" x2="643.582" y2="14.8436" gradientTransform="matrix(1 0 0 -1 0 442.315)">
		<stop  offset="7.280230e-02" style="stop-color:#A9AAAC"/>
		<stop  offset="0.2599" style="stop-color:#858688"/>
		<stop  offset="1" style="stop-color:#858688;stop-opacity:0"/>
	</linearGradient>
	
		<rect x="643.6" y="418.2" style="fill:url(#SVGID_00000139263890357679254980000017348436259795547540_);" width="81.4" height="18.5"/>
	
		<linearGradient id="SVGID_00000183217539383699635120000018355126063022615178_" gradientUnits="userSpaceOnUse" x1="-37.9625" y1="433.0836" x2="-120" y2="433.0836" gradientTransform="matrix(-1 0 0 -1 -37.9609 860.555)">
		<stop  offset="0" style="stop-color:#A9AAAC"/>
		<stop  offset="0.2599" style="stop-color:#858688"/>
		<stop  offset="1" style="stop-color:#858688;stop-opacity:0"/>
	</linearGradient>
	<rect x="0" y="418.2" style="fill:url(#SVGID_00000183217539383699635120000018355126063022615178_);" width="82" height="18.5"/>
</g>
<linearGradient id="SVGID_00000091737834935045580890000011714484309833846194_" gradientUnits="userSpaceOnUse" x1="297.613" y1="19.459" x2="427.674" y2="19.459" gradientTransform="matrix(1 0 0 -1 0 442.315)">
	<stop  offset="0" style="stop-color:#25262B"/>
	<stop  offset="1.565900e-02" style="stop-color:#606166"/>
	<stop  offset="3.581900e-02" style="stop-color:#9FA0A4"/>
	<stop  offset="5.043510e-02" style="stop-color:#C8C8CE"/>
	<stop  offset="0.4792" style="stop-color:#D7D8DD"/>
	<stop  offset="0.9412" style="stop-color:#CBCBD3"/>
	<stop  offset="0.9704" style="stop-color:#A7A8AC"/>
	<stop  offset="0.9801" style="stop-color:#595A5E"/>
	<stop  offset="1" style="stop-color:#27282C"/>
</linearGradient>
<path style="fill:url(#SVGID_00000091737834935045580890000011714484309833846194_);" d="M297.3,418.2h130.4c0,5.1-4.1,9.2-9.2,9.2
	H306.5C301.4,427.5,297.3,423.3,297.3,418.2z"/>
<defs>
	
		<filter id="Adobe_OpacityMaskFilter_00000154403850621283421150000001925182361903804319_" filterUnits="userSpaceOnUse" x="61.7" y="400.5" width="602.3" height="17.7">
		<feColorMatrix  type="matrix" values="1 0 0 0 0  0 1 0 0 0  0 0 1 0 0  0 0 0 1 0"/>
	</filter>
</defs>
<mask maskUnits="userSpaceOnUse" x="61.7" y="400.5" width="602.3" height="17.7" id="mask1_686_2452_00000003807622318438792150000011326062529703450814_">
	<path style="filter:url(#Adobe_OpacityMaskFilter_00000154403850621283421150000001925182361903804319_);" d="M59.5,418.1v-12.7
		c0-3.9,3.1-7,7-7h592.7c3.9,0,7,3.1,7,7v12.7h-4.8H64.2H59.5z"/>
</mask>
<g class="st11">
	<g>
		<path class="st12" d="M658.5,418.1c5.9-1.7,5.5-11.2,5.4-16.2c0-0.9-0.8-1.7-1.6-1.5c-8.1,1.8-5.2,17.3-10.4,17.6H658.5z"/>
	</g>
	<g>
		<path class="st12" d="M67.1,418.1c-5.9-1.7-5.5-11.2-5.4-16.2c0-0.9,0.8-1.7,1.6-1.5c8.1,1.8,5.2,17.3,10.4,17.6H67.1z"/>
	</g>
</g>
<g>
	
		<linearGradient id="SVGID_00000145763726033048492810000006173449936090832034_" gradientUnits="userSpaceOnUse" x1="362.8057" y1="41.985" x2="362.8057" y2="24.178" gradientTransform="matrix(1 0 0 -1 0 442.315)">
		<stop  offset="0" style="stop-color:#252525"/>
		<stop  offset="1" style="stop-color:#101010"/>
	</linearGradient>
	<path style="fill:url(#SVGID_00000145763726033048492810000006173449936090832034_);" d="M652.2,418.1c5.6,0,10.2-5.1,10.2-11.4
		v-6.4H63.3v6.4c0,6.3,4.6,11.4,10.2,11.4H652.2z"/>
</g>
<g>
	<path class="st14" d="M644.5,1.9H81.1c-10.9,0-19.7,8.8-19.7,19.7v384.4c0,6.7,5.4,12.1,12.1,12.1h55.3v-0.6c0-0.7-0.6-1.3-1.3-1.3
		H73.5c-5.6,0-10.2-4.6-10.2-10.2V21.6c0-9.8,8-17.8,17.8-17.8h563.5c9.8,0,17.8,8,17.8,17.8v384.4c0,5.6-4.6,10.2-10.2,10.2h-54.1
		c-0.7,0-1.3,0.6-1.3,1.3v0.6h55.3c6.7,0,12.1-5.4,12.1-12.1V21.6C664.2,10.7,655.4,1.9,644.5,1.9z"/>
</g>
<path class="st15" d="M644.5,0H81.1C69.1,0,59.5,9.7,59.5,21.6v383.8c0,3.8,0.6,12.7,4.8,12.7h597.2c4.1,0,4.8-8.9,4.8-12.7V21.6
	C666.2,9.7,656.5,0,644.5,0z M652.2,388.6H73.4V20c0-4.2,3.4-7.6,7.6-7.6h563.5c4.2,0,7.6,3.4,7.6,7.6V388.6z"/>
<path d="M321.5,11.4h4.7c1.1,0,1.9,0.9,1.9,1.9v7.5c0,2.1,1.7,3.8,3.8,3.8h62.9c2.1,0,3.8-1.7,3.8-3.8v-7.5c0-1.1,0.9-1.9,1.9-1.9
	h4.7H321.5z"/>
<g>
	<circle class="st16" cx="362.8" cy="14.9" r="3.8"/>
</g>
<g>
	<circle class="st17" cx="362.8" cy="14.9" r="2.9"/>
</g>
<g>
	<ellipse class="st18" cx="362.8" cy="15.6" rx="1.3" ry="0.6"/>
</g>
<g>
	<ellipse class="st18" cx="362.8" cy="14.3" rx="1.3" ry="0.6"/>
</g>
<g>
	<ellipse class="st19" cx="362.8" cy="15.7" rx="1" ry="0.5"/>
</g>
<g>
	<ellipse class="st20" cx="362.8" cy="14.3" rx="1" ry="0.6"/>
</g>
<path d="M644.5,3.8H81.1c-9.8,0-17.8,8-17.8,17.8v384.4c0,5.6,4.6,10.2,10.2,10.2h578.7c5.6,0,10.2-4.6,10.2-10.2V21.6
	C662.3,11.8,654.4,3.8,644.5,3.8z M651.9,388.6H73.1V20c0-4.2,3.4-7.6,7.6-7.6h563.5c4.2,0,7.6,3.4,7.6,7.6V388.6z"/>
</svg>
