<?xml version="1.0" encoding="UTF-8"?>
<svg id="Layer_2" data-name="Layer 2" xmlns="http://www.w3.org/2000/svg" viewBox="0 0 131.6 206.68">
  <g id="Layer_1-2" data-name="Layer 1">
    <path d="M78.12,31.4c0-11.57.09-18.76.28-21.56,0-3.55,1.21-5.69,3.64-6.44,2.43-.75,5.97-1.12,10.64-1.12,4.11,0,9.33-.19,15.68-.56,6.53-.56,11.57-1.12,15.12-1.68,2.61-.19,4.48.28,5.6,1.4,1.12.93,1.68,2.61,1.68,5.04,0,.75-.19,2.8-.56,6.16-.37,2.8-.56,21.37-.56,55.72v63.28c0,9.52.09,20.07.28,31.64.37,11.39.75,21.65,1.12,30.8.37,9.15.56,11.67.56,7.56,0,2.99-1.49,4.48-4.48,4.48-1.31,0-2.43-.09-3.36-.28-.75-.19-2.24-.28-4.48-.28s-5.79.19-10.64.56c-5.23.37-8.87.56-10.92.56-3.55,0-6.25-.75-8.12-2.24-1.68-1.49-3.45-4.2-5.32-8.12l-4.76-9.52c-5.6-12.51-10.55-22.31-14.84-29.4-2.43-4.11-8.59-15.4-18.48-33.88l-12.32-23.24v17.08c0,1.49-.09,3.36-.28,5.6,0,2.24.09,4.76.28,7.56,0,9.71.09,22.4.28,38.08.37,15.68.84,25.11,1.4,28.28.19.93.28,2.05.28,3.36,0,1.87-.37,3.08-1.12,3.64-.75.37-2.15.47-4.2.28-2.99,0-6.53.19-10.64.56-3.92.37-7.65.75-11.2,1.12-2.8.37-4.67-.09-5.6-1.4-.75-1.31-1.03-4.2-.84-8.68,0-6.72-.28-18.57-.84-35.56-.75-17.73-1.21-33.13-1.4-46.2,0-13.25.28-26.69.84-40.32.37-17.17.56-28.93.56-35.28,0-8.59-.28-14.84-.84-18.76-.37-3.36-.56-5.51-.56-6.44,0-3.36.56-5.6,1.68-6.72,1.12-1.31,2.61-1.96,4.48-1.96.93,0,2.8.09,5.6.28,2.8,0,6.81-.65,12.04-1.96,2.05-.37,4.11-.56,6.16-.56,1.12,0,2.71.09,4.76.28,2.05.19,4.76.28,8.12.28,4.29,0,7.84,1.68,10.64,5.04,2.99,3.36,6.16,8.12,9.52,14.28l2.8,5.04c2.24,4.11,4.95,8.49,8.12,13.16l4.2,6.44v-15.4Z" fill="#dfac2b" stroke-width="0"/>
  </g>
</svg>