<?xml version="1.0" encoding="UTF-8"?>
<svg id="Layer_2" data-name="Layer 2" xmlns="http://www.w3.org/2000/svg" viewBox="0 0 124.11 194.04">
  <g id="Layer_1-2" data-name="Layer 1">
    <path d="M124.04,11.48c0,4.29-.37,6.44-1.12,6.44-1.12,0-2.43-.09-3.92-.28-1.31-.37-2.99-.56-5.04-.56h-44.8l-34.72-.28c-1.12,0-5.32.28-12.6.84l-6.44.56-.56,7.56c-.19,2.8-.28,7.19-.28,13.16,0,2.99.19,6.91.56,11.76.37,4.48.56,7.75.56,9.8v11.2c0,2.99.09,5.32.28,7,1.68.19,4.2.28,7.56.28h11.2c1.12,0,3.36-.19,6.72-.56,4.85-.37,9.05-.56,12.6-.56,1.49,0,6.72.28,15.68.84l6.16.28c1.49,0,3.64-.09,6.44-.28,2.8-.37,5.51-.56,8.12-.56l9.24.28c4.85.37,8.21.56,10.08.56,2.05,0,3.45-.09,4.2-.28l1.68-.28c1.31,0,2.24.47,2.8,1.4.56.75.75,1.49.56,2.24-.19,1.31-.28,2.99-.28,5.04,0,1.87-.09,3.55-.28,5.04-.19,1.49-.47,2.43-.84,2.8-.37.19-1.49.28-3.36.28l-11.2-1.12c-14-1.31-23.15-1.96-27.44-1.96-15.87,0-27.53.28-35,.84-2.99.37-6.25.56-9.8.56h-6.72c-3.55,0-6.16-.09-7.84-.28l-.84,4.48c-.37,3.36-.56,6.35-.56,8.96,0,2.24.19,4.85.56,7.84.37,2.99.56,5.6.56,7.84l.28,33.32-.28,14c-.19,1.68-.28,4.01-.28,7,2.43.19,5.97.28,10.64.28,3.92.19,9.99.28,18.2.28l15.12.28c3.17.19,8.03.28,14.56.28,3.92,0,9.05-.19,15.4-.56l11.76-.28c4.48,0,8.21.09,11.2.28,2.99.19,5.23.28,6.72.28s2.33.28,2.52.84c.37.56.56,1.77.56,3.64,0,1.31-.09,2.71-.28,4.2-.19,1.31-.28,2.8-.28,4.48,0,1.31-.47,2.24-1.4,2.8-.93.37-2.43.56-4.48.56s-3.73-.09-5.04-.28c-5.04-.56-15.21-.84-30.52-.84-9.33,0-16.05.09-20.16.28-3.17.19-8.4.28-15.68.28l-26.04-.28c-2.99-.19-6.53-.28-10.64-.28-2.61,0-4.39-.28-5.32-.84-.75-.75-1.12-1.87-1.12-3.36l.28-4.48c.19-.75.28-1.59.28-2.52,0-.56-.09-1.87-.28-3.92-.19-2.24-.28-6.25-.28-12.04s-.19-14.75-.56-27.44c-.56-10.45-.84-20.53-.84-30.24,0-4.11.47-15.96,1.4-35.56.19-3.92.37-7.84.56-11.76.19-3.92.28-7.47.28-10.64,0-21.65-.28-35.93-.84-42.84C.84,2.8,3.55.56,9.52.56c1.49,0,3.92.19,7.28.56,2.99.37,5.23.56,6.72.56l17.64-.56c12.69-.75,22.49-1.12,29.4-1.12,8.03,0,19.32.19,33.88.56,4.67.19,9.61.28,14.84.28,2.24,0,3.64.56,4.2,1.68.56,1.12.75,2.33.56,3.64v5.32Z" fill="#d5501c" stroke-width="0"/>
  </g>
</svg>