<?xml version="1.0" encoding="UTF-8"?>
<svg id="Layer_2" data-name="Layer 2" xmlns="http://www.w3.org/2000/svg" viewBox="0 0 163.8 201.32">
  <g id="Layer_1-2" data-name="Layer 1">
    <path d="M35,18.76c.93,5.04,3.08,12.04,6.44,21,3.55,8.96,6.91,16.8,10.08,23.52,2.61,4.48,6.07,11.76,10.36,21.84,4.48,9.89,7.65,17.73,9.52,23.52,1.12,2.99,2.71,6.72,4.76,11.2l4.2,10.08,5.88,13.16c5.41-10.64,9.33-18.39,11.76-23.24l18.2-36.4,12.6-25.2c6.53-13.44,10.92-22.12,13.16-26.04,3.55-7.28,7.28-14,11.2-20.16,3.92-6.35,6.72-9.52,8.4-9.52,1.49,0,2.24,1.21,2.24,3.64,0,2.24-.47,5.23-1.4,8.96l-1.12,7c-.75,5.04-1.12,27.44-1.12,67.2,0,8.77-.28,19.41-.84,31.92-.37,12.51-.75,20.81-1.12,24.92-.37,4.85-.56,12.04-.56,21.56l.28,27.16v1.4c0,2.24-.56,3.17-1.68,2.8h-.56c-.93,0-2.05.09-3.36.28-1.12.19-2.33.28-3.64.28-.75-.19-1.31-.65-1.68-1.4-.19-.75-.28-2.05-.28-3.92v-16.52c0-19.04.19-30.24.56-33.6.37-3.92.75-11.2,1.12-21.84.56-10.64.84-19.23.84-25.76-.19-1.68-.09-6.91.28-15.68l.28-10.08.56-20.16c-1.31,1.87-2.43,3.83-3.36,5.88-1.87,3.17-3.64,6.63-5.32,10.36l-2.8,5.6c-3.17,6.16-6.81,13.44-10.92,21.84-4.11,8.21-7.65,15.21-10.64,21-3.36,6.72-7.65,15.4-12.88,26.04-5.04,10.45-8.96,18.76-11.76,24.92-4.85,11.39-7.65,17.08-8.4,17.08-.56,0-1.4-.93-2.52-2.8s-1.87-3.08-2.24-3.64c-1.31-2.05-3.36-6.35-6.16-12.88-2.8-6.72-5.04-12.6-6.72-17.64-1.12-3.36-5.97-12.79-14.56-28.28-6.72-12.88-10.17-19.6-10.36-20.16-1.87-3.73-4.39-9.99-7.56-18.76-2.05-4.67-3.64-8.77-4.76-12.32l-.56,12.32-.56,19.04-.56,55.16-.28,43.68c0,1.68-.47,2.71-1.4,3.08-.93.37-2.05.56-3.36.56-1.31-.19-2.33-.28-3.08-.28l-6.16.28c-3.36.37-5.79.56-7.28.56-2.8,0-4.48-.56-5.04-1.68-.37-1.31-.47-3.92-.28-7.84,0-6.16-.09-12.04-.28-17.64l-.56-34.44c0-5.23.19-10.64.56-16.24.37-5.79.65-10.92.84-15.4.93-13.44,1.4-22.87,1.4-28.28l.56-52.64-.28-15.12c0-6.53.47-10.27,1.4-11.2.56-.56,1.21-.84,1.96-.84.56,0,1.4.19,2.52.56,1.12.37,2.52.47,4.2.28,1.68-.19,4.01-.28,7-.28,3.55,0,6.16.19,7.84.56,1.68.56,2.89,1.96,3.64,4.2.75,2.05,1.4,4.48,1.96,7.28.56,2.61,1.03,4.67,1.4,6.16Z" fill="#648a5d" stroke-width="0"/>
  </g>
</svg>