<?xml version="1.0" encoding="UTF-8"?>
<svg id="Layer_2" data-name="Layer 2" xmlns="http://www.w3.org/2000/svg" viewBox="0 0 133.06 201.6">
  <g id="Layer_1-2" data-name="Layer 1">
    <path d="M132.22,197.68c.56,1.31.84,2.24.84,2.8,0,.75-1.03,1.12-3.08,1.12h-15.68c-.75,0-1.4-.09-1.96-.28-.37-.37-.75-1.12-1.12-2.24-.75-2.05-1.77-5.41-3.08-10.08-1.68-4.67-2.8-8.87-3.36-12.6-.56-2.8-1.49-6.16-2.8-10.08-1.12-3.92-2.15-6.91-3.08-8.96-1.68-3.55-3.17-7.56-4.48-12.04l-2.52-8.12c-.93-2.05-1.68-3.27-2.24-3.64-.37-.56-1.12-.84-2.24-.84-3.92,0-6.81.09-8.68.28l-12.04.56c-1.49.19-8.4.28-20.72.28h-17.64c-1.12,0-1.96,1.03-2.52,3.08l-.56,2.8-1.12,5.32c-.37.93-1.59,6.35-3.64,16.24-.56,3.17-1.49,7.28-2.8,12.32-.37,3.73-1.21,6.81-2.52,9.24-.37.56-.84,1.87-1.4,3.92-.56,2.05-1.03,3.73-1.4,5.04-.56,1.49-1.21,3.92-1.96,7.28-.19.19-.37.65-.56,1.4-.19.56-.47.93-.84,1.12H1.74c-1.68,0-2.15-1.21-1.4-3.64,0-.56.09-1.03.28-1.4,0-.37.09-.84.28-1.4.19-.56.47-1.4.84-2.52l2.52-10.36c.37-1.12,1.03-3.08,1.96-5.88.93-2.8,1.59-5.41,1.96-7.84.93-4.48,2.71-11.29,5.32-20.44l2.24-7.84c3.55-11.57,5.79-19.69,6.72-24.36l3.92-14.84c1.87-6.16,2.99-10.08,3.36-11.76,1.31-5.6,3.17-12.6,5.6-21l1.96-7.84,1.68-5.88c1.87-6.35,3.45-10.92,4.76-13.72.37-1.12,1.68-4.95,3.92-11.48,2.43-6.72,4.01-12.04,4.76-15.96,1.31-4.48,2.61-7.84,3.92-10.08,1.49-2.24,3.45-3.36,5.88-3.36.93,0,1.87.84,2.8,2.52.93,1.68,1.87,3.73,2.8,6.16.93,2.43,1.59,4.2,1.96,5.32,1.49,3.55,4.11,12.41,7.84,26.6l2.24,7.84c.19,1.49,3.27,10.64,9.24,27.44l5.32,15.4,5.04,13.16c5.23,14.75,8.59,23.71,10.08,26.88,6.53,19.79,10.36,31.73,11.48,35.84,1.31,4.85,3.36,10.92,6.16,18.2,2.99,7.28,4.67,11.39,5.04,12.32ZM79.86,114.52c2.43,0,3.64-.65,3.64-1.96,0-.93-.65-2.99-1.96-6.16-1.12-2.8-2.8-8.03-5.04-15.68-1.68-6.16-3.36-11.48-5.04-15.96-1.87-5.6-3.92-12.23-6.16-19.88-2.05-7.65-3.27-12.6-3.64-14.84-2.8-9.89-4.67-14.84-5.6-14.84-.56,0-1.49,2.52-2.8,7.56l-1.68,6.16c-1.31,5.04-2.99,11.39-5.04,19.04-2.05,7.47-3.92,13.81-5.6,19.04-1.12,4.85-2.71,11.01-4.76,18.48-1.87,7.28-3.36,12.32-4.48,15.12-.37,1.12-.56,1.77-.56,1.96,0,1.31.56,2.15,1.68,2.52,1.31.37,2.52.56,3.64.56,1.31-.19,2.15-.28,2.52-.28l16.24-.56c2.24-.37,5.41-.56,9.52-.56l15.12.28Z" fill="#ecebeb" stroke-width="0"/>
  </g>
</svg>