<?xml version="1.0" encoding="UTF-8"?>
<svg id="Layer_2" data-name="Layer 2" xmlns="http://www.w3.org/2000/svg" viewBox="0 0 123.81 193.23">
  <g id="Layer_1-2" data-name="Layer 1">
    <path d="M122.78,17.12c-3.31-.21-6.6-.58-9.88-.6-25.82-.16-51.64-.31-77.46-.32-5.48,0-10.96.74-16.45.92-3.22.1-4.24,1.56-4.18,4.64.22,11.64.31,23.28.4,34.92.05,6.97,0,13.94,0,21.32,8.59,0,16.38.02,24.17,0,8.31-.03,16.62-.16,24.93-.15,16.47.03,32.94.22,49.41.12,3.7-.02,5.1,1.1,4.95,4.87-.47,11.97-.44,12.48-12.38,10.94-29.92-3.87-59.83-1.32-90.79-.58-.27,4.93-.79,9.99-.77,15.04.12,21.97.4,43.93.64,65.9,0,.47.19.93.57,2.7,11.23,0,22.67,0,34.11,0,22.31.02,44.61.14,66.92.01,4.02-.02,5.17,1.38,5.1,5.23-.22,11.7-.16,11.29-11.81,11.12-26.3-.39-52.61-.23-78.92-.39-8.49-.05-16.98-.47-25.47-.61-3.31-.06-4.77-1.42-4.82-4.83C.74,164.56.03,141.77,0,118.98c-.02-17.14,1.01-34.29,1.19-51.44.21-19.64.1-39.28-.07-58.92C1.07,1.93,2.61,0,9.45,0c35.77.04,71.55.09,107.32.16,6.36.01,7.06.76,7.04,7.26,0,2.33-.04,4.66-.19,6.99-.05.79-.47,1.56-.83,2.71Z" stroke-width="0" fill="#ECEBEB"/>
  </g>
</svg>
