<?xml version="1.0" encoding="UTF-8"?>
<svg id="Layer_2" data-name="Layer 2" xmlns="http://www.w3.org/2000/svg" viewBox="0 0 20.72 199.92">
  <g id="Layer_1-2" data-name="Layer 1">
    <path d="M20.16,10.92c-.56,4.11-1.03,14.65-1.4,31.64,0,5.23-.37,18.48-1.12,39.76-.75,20.53-1.12,33.04-1.12,37.52,0,10.83.19,24.55.56,41.16.37,16.43.75,26.23,1.12,29.4.19,1.12.28,2.43.28,3.92,0,1.31-.28,2.24-.84,2.8-.37.56-1.03,1.12-1.96,1.68-1.12.75-4.01,1.12-8.68,1.12h-3.64c-1.49,0-2.43-.19-2.8-.56-.37-.37-.56-1.12-.56-2.24l.28-8.96.56-36.68.56-58.8c0-5.6.37-18.29,1.12-38.08.19-4.67.47-12.23.84-22.68.37-10.64.37-16.89,0-18.76l-.28-5.88C3.08,2.43,4.57,0,7.56,0l10.36.28c1.87,0,2.8,1.31,2.8,3.92,0,.93-.09,2.05-.28,3.36-.19,1.12-.28,2.24-.28,3.36Z" fill="#dfac2b" stroke-width="0"/>
  </g>
</svg>