<?xml version="1.0" encoding="UTF-8"?>
<svg id="Layer_2" data-name="Layer 2" xmlns="http://www.w3.org/2000/svg" viewBox="0 0 144.76 197.96">
  <g id="Layer_1-2" data-name="Layer 1">
    <path d="M24.36,19.04c-.93,26.13-1.4,40.32-1.4,42.56l-.28,40.04c0,3.55.09,6.63.28,9.24l.28,16.8c0,3.92-.09,6.35-.28,7.28-.19,1.12-.28,2.15-.28,3.08.19.93.28,1.59.28,1.96,0,.75.09,1.21.28,1.4l6.72.56c5.97.37,10.92.47,14.84.28l51.8-.56s9.8.28,29.4.84l13.16.28c2.05.19,3.08.75,3.08,1.68,0,.37-.09.84-.28,1.4-.19.56-.28,1.12-.28,1.68v12.88c0,3.36.56,10.45,1.68,21.28l1.12,11.76.28,1.4c0,.93-.47,1.49-1.4,1.68-.93.37-2.61.56-5.04.56l-20.44-.28-34.72-.56c-4.67,0-11.2.28-19.6.84-3.73.19-7.93.37-12.6.56-4.48.19-8.96.28-13.44.28l-4.76-.28c-1.12-.19-3.27-.28-6.44-.28l-12.6.28c-2.24.19-5.13.28-8.68.28-2.43,0-3.92-.37-4.48-1.12-.37-.56-.56-1.49-.56-2.8.19-1.31.28-2.43.28-3.36,0-4.11.28-11.2.84-21.28l.84-28.84-.56-13.16c-.19-2.61-.37-5.69-.56-9.24-.19-3.73-.28-7.56-.28-11.48,0,6.35.56,0,1.68-19.04,1.12-19.23,1.68-31.08,1.68-35.56l-.28-31.64L3.08,2.52v-.28c0-1.49,1.03-2.24,3.08-2.24l3.92.28c.93,0,2.15.09,3.64.28h9.52c1.12,0,1.68.75,1.68,2.24l-.56,16.24Z" fill="#648a5d" stroke-width="0"/>
  </g>
</svg>